{
.appVersion = "3197";
.formatVersion = 3;
DisplayStrings = (
"a/slash_component n/title s.,:;…!¡?¿·•*#///backslash -–—―The_(){}[p],‚„‘“”‘’«»‹›\"'",
"/f_f/f_t ﬁﬂ/t_t",
"̣",
"́á̂âä̀à̊å̃ã̧çš",
"↑↗→↘↓↙←↖↔↕"
);
axes = (
{
name = Weight;
tag = wght;
},
{
name = Italic;
tag = ital;
},
{
name = Sans;
tag = SANS;
}
);
classes = (
{
automatic = 1;

glyphs = (
{
glyphname = A;
kernLeft = KO_A;
kernRight = KO_A;
lastChange = "2023-06-15 07:11:45 +0000";
layers = (
{
anchors = (
{
name = top;
pos = (273,700);
}
);
layerId = m01;
shapes = (
{
closed = 1;
nodes = (
(64,0,l),
(283,684,l),
(255,684,l),
(480,0,l),
(533,0,l),
(296,700,l),
(249,700,l),
(20,0,l)
);
},
{
closed = 1;
nodes = (
(422,201,l),
(411,233,l),
(130,233,l),
(120,201,l)
);
}
);
userData = {
com.hugojourdan.ColorFlow = {
"0" = 0;
"1" = 0;
"10" = 0;
"11" = 0;
"2" = 0;
"3" = 0;
"4" = 0;
"5" = 0;
"6" = 0;
"7" = 0;
"8" = 0;
"9" = 0;
};
};
width = 553;
},
{
anchors = (
{
name = top;
pos = (309,700);
}
);
layerId = "FF73925E-1E34-445B-881D-5A7CAAA8E8BE";
shapes = (
{
closed = 1;
nodes = (
(116,0,l),
(283,623,l),
(260,624,l),
(417,0,l),
(605,0,l),
(406,700,l),
(212,700,l),
(12,0,l)
);
},
{
closed = 1;
nodes = (
(415,168,l),
(392,258,l),
(145,258,l),
(121,168,l)
);
}
);
userData = {
com.hugojourdan.ColorFlow = {
"0" = 0;
"1" = 0;
"10" = 0;
"11" = 0;
"2" = 0;
"3" = 0;
"4" = 0;
"5" = 0;
"6" = 0;
"7" = 0;
"8" = 0;
"9" = 0;
};
};
width = 617;
},
{
anchors = (
{
name = top;
pos = (287,700);
}
);
layerId = "BF6BA5B2-0556-42F4-A103-614BEBF16A1A";
shapes = (
{
closed = 1;
nodes = (
(84,0,l),
(283,660,l),
(257,660,l),
(456,0,l),
(561,0,l),
(338,700,l),
(235,700,l),
(17,0,l)
);
},
{
closed = 1;
nodes = (
(410,192,l),
(396,239,l),
(144,239,l),
(130,192,l)
);
}
);
userData = {
com.hugojourdan.ColorFlow = {
"0" = 0;
"1" = 0;
"10" = 0;
"11" = 0;
"2" = 0;
"3" = 0;
"4" = 0;
"5" = 0;
"6" = 0;
"7" = 0;
"8" = 0;
"9" = 0;
};
};
width = 577;
},
{
anchors = (
{
name = top;
pos = (287,700);
}
);
layerId = m004;
shapes = (
{
closed = 1;
nodes = (
(73,0,l),
(298,684,l),
(270,684,l),
(494,0,l),
(547,0,l),
(310,700,l),
(257,700,l),
(20,0,l)
);
},
{
closed = 1;
nodes = (
(474,197,l),
(460,237,l),
(109,237,l),
(96,197,l)
);
}
);
userData = {
com.hugojourdan.ColorFlow = {
"0" = 0;
"1" = 0;
"10" = 0;
"11" = 0;
"2" = 0;
"3" = 0;
"4" = 0;
"5" = 0;
"6" = 0;
"7" = 0;
"8" = 0;
"9" = 0;
};
};
width = 567;
},
{
anchors = (
{
name = top;
pos = (298,700);
}
);
layerId = m005;
shapes = (
{
closed = 1;
nodes = (
(122,0,l),
(307,638,l),
(283,638,l),
(467,0,l),
(572,0,l),
(354,700,l),
(235,700,l),
(17,0,l)
);
},
{
closed = 1;
nodes = (
(483,177,l),
(460,254,l),
(140,254,l),
(118,177,l)
);
}
);
userData = {
com.hugojourdan.ColorFlow = {
"0" = 0;
"1" = 0;
"10" = 0;
"11" = 0;
"2" = 0;
"3" = 0;
"4" = 0;
"5" = 0;
"6" = 0;
"7" = 0;
"8" = 0;
"9" = 0;
};
};
width = 589;
},
{
anchors = (
{
name = top;
pos = (315,700);
}
);
layerId = m006;
shapes = (
{
closed = 1;
nodes = (
(200,0,l),
(321,565,l),
(303,565,l),
(423,0,l),
(611,0,l),
(423,700,l),
(200,700,l),
(12,0,l)
);
},
{
closed = 1;
nodes = (
(496,145,l),
(461,281,l),
(188,281,l),
(152,145,l)
);
}
);
userData = {
com.hugojourdan.ColorFlow = {
"0" = 0;
"1" = 0;
"10" = 0;
"11" = 0;
"2" = 0;
"3" = 0;
"4" = 0;
"5" = 0;
"6" = 0;
"7" = 0;
"8" = 0;
"9" = 0;
};
};
width = 623;
}
);
note = A;
unicode = 65;
},
{
glyphname = AE;
kernRight = KO_E;
lastChange = "2023-06-15 10:32:54 +0000";
layers = (
{
layerId = m01;
shapes = (
{
closed = 1;
nodes = (
(64,0,l),
(434,684,l),
(400,700,l),
(20,0,l)
);
},
{
closed = 1;
nodes = (
(417,201,l),
(417,233,l),
(155,233,l),
(155,201,l)
);
},
{
closed = 1;
nodes = (
(781,0,l),
(781,32,l),
(424,32,l),
(448,8,l),
(448,692,l),
(424,668,l),
(768,668,l),
(768,700,l),
(400,700,l),
(400,0,l)
);
},
{
closed = 1;
nodes = (
(748,348,l),
(748,378,l),
(424,378,l),
(424,348,l)
);
}
);
userData = {
com.hugojourdan.ColorFlow = {
"0" = 0;
"1" = 0;
"10" = 0;
"11" = 0;
"2" = 0;
"3" = 0;
"4" = 0;
"5" = 0;
"6" = 0;
"7" = 0;
"8" = 0;
"9" = 0;
};
};
width = 827;
},
{
layerId = "BF6BA5B2-0556-42F4-A103-614BEBF16A1A";
shapes = (
{
closed = 1;
nodes = (
(86,0,l),
(441,660,l),
(393,700,l),
(17,0,l)
);
},
{
closed = 1;
nodes = (
(442,192,l),
(442,240,l),
(179,240,l),
(179,192,l)
);
},
{
closed = 1;
nodes = (
(806,0,l),
(806,52,l),
(451,52,l),
(490,13,l),
(490,687,l),
(451,648,l),
(794,648,l),
(794,700,l),
(393,700,l),
(393,0,l)
);
},
{
closed = 1;
nodes = (
(773,339,l),
(773,387,l),
(441,387,l),
(441,339,l)
);
}
);
userData = {
com.hugojourdan.ColorFlow = {
"0" = 0;
"1" = 0;
"10" = 0;
"11" = 0;
"2" = 0;
"3" = 0;
"4" = 0;
"5" = 0;
"6" = 0;
"7" = 0;
"8" = 0;
"9" = 0;
};
};
width = 846;
},
{
layerId = "FF73925E-1E34-445B-881D-5A7CAAA8E8BE";
shapes = (
{
closed = 1;
nodes = (
(116,0,l),
(451,643,l),
(382,700,l),
(12,0,l)
);
},
{
closed = 1;
nodes = (
(471,173,l),
(471,253,l),
(173,253,l),
(173,173,l)
);
},
{
closed = 1;
nodes = (
(833,0,l),
(833,90,l),
(515,90,l),
(560,45,l),
(560,655,l),
(515,610,l),
(823,610,l),
(823,700,l),
(382,700,l),
(382,0,l)
);
},
{
closed = 1;
nodes = (
(800,323,l),
(800,403,l),
(471,403,l),
(471,323,l)
);
}
);
userData = {
com.hugojourdan.ColorFlow = {
"0" = 0;
"1" = 0;
"10" = 0;
"11" = 0;
"2" = 0;
"3" = 0;
"4" = 0;
"5" = 0;
"6" = 0;
"7" = 0;
"8" = 0;
"9" = 0;
};
};
width = 856;
},
{
layerId = m004;
shapes = (
{
closed = 1;
nodes = (
(71,0,l),
(441,684,l),
(400,700,l),
(20,0,l)
);
},
{
closed = 1;
nodes = (
(418,197,l),
(418,237,l),
(156,237,l),
(156,197,l)
);
},
{
closed = 1;
nodes = (
(781,0,l),
(781,40,l),
(424,40,l),
(448,16,l),
(448,684,l),
(424,660,l),
(768,660,l),
(768,700,l),
(400,700,l),
(400,0,l)
);
},
{
closed = 1;
nodes = (
(748,343,l),
(748,383,l),
(424,383,l),
(424,343,l)
);
}
);
userData = {
com.hugojourdan.ColorFlow = {
"0" = 0;
"1" = 0;
"10" = 0;
"11" = 0;
"2" = 0;
"3" = 0;
"4" = 0;
"5" = 0;
"6" = 0;
"7" = 0;
"8" = 0;
"9" = 0;
};
};
width = 827;
},
{
layerId = m005;
shapes = (
{
closed = 1;
nodes = (
(121,0,l),
(476,660,l),
(393,700,l),
(17,0,l)
);
},
{
closed = 1;
nodes = (
(442,183,l),
(442,257,l),
(179,257,l),
(179,183,l)
);
},
{
closed = 1;
nodes = (
(806,0,l),
(806,77,l),
(451,77,l),
(491,38,l),
(491,662,l),
(451,623,l),
(794,623,l),
(794,700,l),
(393,700,l),
(393,0,l)
);
},
{
closed = 1;
nodes = (
(771,326,l),
(771,400,l),
(441,400,l),
(441,326,l)
);
}
);
userData = {
com.hugojourdan.ColorFlow = {
"0" = 0;
"1" = 0;
"10" = 0;
"11" = 0;
"2" = 0;
"3" = 0;
"4" = 0;
"5" = 0;
"6" = 0;
"7" = 0;
"8" = 0;
"9" = 0;
};
};
width = 846;
},
{
layerId = m006;
shapes = (
{
closed = 1;
nodes = (
(196,0,l),
(451,700,l),
(282,700,l),
(12,0,l)
);
},
{
closed = 1;
nodes = (
(471,147,l),
(471,277,l),
(173,277,l),
(173,147,l)
);
},
{
closed = 1;
nodes = (
(833,0,l),
(833,136,l),
(515,136,l),
(560,91,l),
(560,609,l),
(515,564,l),
(823,564,l),
(823,700,l),
(382,700,l),
(382,0,l)
);
},
{
closed = 1;
nodes = (
(800,298,l),
(800,428,l),
(471,428,l),
(471,298,l)
);
}
);
userData = {
com.hugojourdan.ColorFlow = {
"0" = 0;
"1" = 0;
"10" = 0;
"11" = 0;
"2" = 0;
"3" = 0;
"4" = 0;
"5" = 0;
"6" = 0;
"7" = 0;
"8" = 0;
"9" = 0;
};
};
width = 856;
}
);
metricLeft = "=A";
metricRight = "=E";
unicode = 198;
},
{
glyphname = B;
kernLeft = KO_H;
kernRight = KO_B;
lastChange = "2023-06-15 07:55:49 +0000";
layers = (
{
layerId = m01;
shapes = (
{
closed = 1;
nodes = (
(306,0,ls),
(450,0,o),
(531,69,o),
(531,192,cs),
(531,306,o),
(461,372,o),
(335,376,c),
(341,367,l),
(438,377,o),
(493,436,o),
(493,532,cs),
(493,640,o),
(413,700,o),
(270,700,cs),
(102,700,l),
(102,0,l)
);
},
{
closed = 1;
nodes = (
(150,692,l),
(126,668,l),
(275,668,ls),
(383,668,o),
(444,617,o),
(444,526,cs),
(444,435,o),
(383,384,o),
(275,384,cs),
(126,384,l),
(126,352,l),
(292,352,ls),
(415,352,o),
(483,295,o),
(483,192,cs),
(483,89,o),
(415,32,o),
(292,32,cs),
(126,32,l),
(150,8,l)
);
}
);
userData = {
com.hugojourdan.ColorFlow = {
"0" = 0;
"1" = 0;
"10" = 0;
"11" = 0;
"2" = 0;
"3" = 0;
"4" = 0;
"5" = 0;
"6" = 0;
"7" = 0;
"8" = 0;
"9" = 0;
};
};
width = 601;
},
{
layerId = "FF73925E-1E34-445B-881D-5A7CAAA8E8BE";
shapes = (
{
closed = 1;
nodes = (
(301,0,ls),
(491,0,o),
(586,70,o),
(586,209,cs),
(586,322,o),
(523,377,o),
(393,377,c),
(399,362,l),
(502,362,o),
(560,419,o),
(560,522,cs),
(560,646,o),
(478,700,o),
(291,700,cs),
(51,700,l),
(51,0,l)
);
},
{
closed = 1;
nodes = (
(227,655,l),
(182,610,l),
(273,610,ls),
(347,610,o),
(384,579,o),
(384,516,cs),
(384,453,o),
(347,421,o),
(273,421,cs),
(139,421,l),
(139,331,l),
(276,331,ls),
(364,331,o),
(407,291,o),
(407,210,cs),
(407,129,o),
(364,90,o),
(276,90,cs),
(182,90,l),
(227,45,l)
);
}
);
userData = {
com.hugojourdan.ColorFlow = {
"0" = 0;
"1" = 0;
"10" = 0;
"11" = 0;
"2" = 0;
"3" = 0;
"4" = 0;
"5" = 0;
"6" = 0;
"7" = 0;
"8" = 0;
"9" = 0;
};
};
width = 633;
},
{
layerId = "BF6BA5B2-0556-42F4-A103-614BEBF16A1A";
shapes = (
{
closed = 1;
nodes = (
(310,0,ls),
(471,0,o),
(558,66,o),
(558,197,cs),
(558,304,o),
(500,367,o),
(369,376,c),
(369,365,l),
(470,379,o),
(524,441,o),
(524,539,cs),
(524,656,o),
(448,700,o),
(284,700,cs),
(88,700,l),
(88,0,l)
);
},
{
closed = 1;
nodes = (
(185,692,l),
(146,653,l),
(272,653,ls),
(380,653,o),
(427,623,o),
(427,530,cs),
(427,438,o),
(381,391,o),
(289,391,cs),
(137,391,l),
(137,345,l),
(290,345,ls),
(409,345,o),
(461,291,o),
(461,190,cs),
(461,88,o),
(406,47,o),
(296,47,cs),
(146,47,l),
(185,8,l)
);
}
);
userData = {
com.hugojourdan.ColorFlow = {
"0" = 0;
"1" = 0;
"10" = 0;
"11" = 0;
"2" = 0;
"3" = 0;
"4" = 0;
"5" = 0;
"6" = 0;
"7" = 0;
"8" = 0;
"9" = 0;
};
};
width = 619;
},
{
layerId = m004;
shapes = (
{
closed = 1;
nodes = (
(306,0,ls),
(450,0,o),
(531,69,o),
(531,192,cs),
(531,306,o),
(461,372,o),
(335,376,c),
(341,367,l),
(438,377,o),
(493,436,o),
(493,532,cs),
(493,640,o),
(413,700,o),
(270,700,cs),
(102,700,l),
(102,0,l)
);
},
{
closed = 1;
nodes = (
(150,684,l),
(126,660,l),
(275,660,ls),
(383,660,o),
(444,611,o),
(444,524,cs),
(444,437,o),
(383,388,o),
(275,388,cs),
(126,388,l),
(126,352,l),
(292,352,ls),
(415,352,o),
(483,296,o),
(483,195,cs),
(483,95,o),
(415,40,o),
(292,40,cs),
(126,40,l),
(150,16,l)
);
}
);
userData = {
com.hugojourdan.ColorFlow = {
"0" = 0;
"1" = 0;
"10" = 0;
"11" = 0;
"2" = 0;
"3" = 0;
"4" = 0;
"5" = 0;
"6" = 0;
"7" = 0;
"8" = 0;
"9" = 0;
};
};
width = 601;
},
{
layerId = m005;
shapes = (
{
closed = 1;
nodes = (
(312,0,ls),
(474,0,o),
(560,69,o),
(560,199,cs),
(560,312,o),
(493,374,o),
(366,376,c),
(372,365,l),
(473,371,o),
(527,430,o),
(527,535,cs),
(527,643,o),
(444,700,o),
(286,700,cs),
(88,700,l),
(88,0,l)
);
},
{
closed = 1;
nodes = (
(186,662,l),
(147,623,l),
(295,623,ls),
(385,623,o),
(430,579,o),
(430,512,cs),
(430,445,o),
(385,401,o),
(295,401,cs),
(138,401,l),
(138,328,l),
(313,328,ls),
(405,328,o),
(462,284,o),
(462,202,cs),
(462,120,o),
(405,77,o),
(313,77,cs),
(147,77,l),
(186,38,l)
);
}
);
userData = {
com.hugojourdan.ColorFlow = {
"0" = 0;
"1" = 0;
"10" = 0;
"11" = 0;
"2" = 0;
"3" = 0;
"4" = 0;
"5" = 0;
"6" = 0;
"7" = 0;
"8" = 0;
"9" = 0;
};
};
width = 622;
},
{
layerId = m006;
shapes = (
{
closed = 1;
nodes = (
(308,0,ls),
(499,0,o),
(593,71,o),
(593,209,cs),
(593,322,o),
(530,377,o),
(400,377,c),
(406,362,l),
(514,362,o),
(567,427,o),
(567,526,cs),
(567,647,o),
(488,700,o),
(298,700,cs),
(51,700,l),
(51,0,l)
);
},
{
closed = 1;
nodes = (
(229,609,l),
(184,564,l),
(312,564,ls),
(373,564,o),
(393,528,o),
(393,492,cs),
(393,457,o),
(373,421,o),
(312,421,cs),
(141,421,l),
(141,291,l),
(333,291,ls),
(376,291,o),
(416,266,o),
(416,212,cs),
(416,160,o),
(376,136,o),
(333,136,cs),
(184,136,l),
(229,91,l)
);
}
);
userData = {
com.hugojourdan.ColorFlow = {
"0" = 0;
"1" = 0;
"10" = 0;
"11" = 0;
"2" = 0;
"3" = 0;
"4" = 0;
"5" = 0;
"6" = 0;
"7" = 0;
"8" = 0;
"9" = 0;
};
};
width = 640;
}
);
metricLeft = "=H";
note = B;
unicode = 66;
},
{
glyphname = C;
kernLeft = KO_O;
kernRight = KO_C;
lastChange = "2023-06-15 07:55:49 +0000";
layers = (
{
anchors = (
{
name = bottom;
pos = (336,0);
}
);
layerId = m01;
shapes = (
{
closed = 1;
nodes = (
(406,-10,o),
(477,16,o),
(522,69,c),
(483,98,l),
(457,52,o),
(397,22,o),
(335,22,cs),
(200,22,o),
(123,140,o),
(123,350,cs),
(123,560,o),
(200,678,o),
(335,678,cs),
(397,678,o),
(457,648,o),
(483,602,c),
(516,637,l),
(471,686,o),
(403,710,o),
(337,710,cs),
(166,710,o),
(70,581,o),
(70,350,cs),
(70,119,o),
(166,-10,o),
(337,-10,cs)
);
}
);
userData = {
com.hugojourdan.ColorFlow = {
"0" = 0;
"1" = 0;
"10" = 0;
"11" = 0;
"2" = 0;
"3" = 0;
"4" = 0;
"5" = 0;
"6" = 0;
"7" = 0;
"8" = 0;
"9" = 0;
};
};
width = 555;
},
{
anchors = (
{
name = bottom;
pos = (353,0);
}
);
layerId = "FF73925E-1E34-445B-881D-5A7CAAA8E8BE";
shapes = (
{
closed = 1;
nodes = (
(467,-10,o),
(566,40,o),
(616,121,c),
(487,211,l),
(463,155,o),
(421,80,o),
(362,80,cs),
(282,80,o),
(232,178,o),
(232,355,cs),
(232,523,o),
(278,616,o),
(350,616,cs),
(403,616,o),
(434,554,o),
(453,491,c),
(598,542,l),
(557,656,o),
(456,710,o),
(351,710,cs),
(152,710,o),
(35,581,o),
(35,350,cs),
(35,119,o),
(152,-10,o),
(350,-10,cs)
);
}
);
userData = {
com.hugojourdan.ColorFlow = {
"0" = 0;
"1" = 0;
"10" = 0;
"11" = 0;
"2" = 0;
"3" = 0;
"4" = 0;
"5" = 0;
"6" = 0;
"7" = 0;
"8" = 0;
"9" = 0;
};
};
width = 636;
},
{
anchors = (
{
name = bottom;
pos = (340,0);
}
);
layerId = "BF6BA5B2-0556-42F4-A103-614BEBF16A1A";
shapes = (
{
closed = 1;
nodes = (
(447,-10,o),
(542,43,o),
(572,114,c),
(490,145,l),
(470,86,o),
(410,42,o),
(342,42,cs),
(214,42,o),
(163,185,o),
(163,350,cs),
(163,515,o),
(214,658,o),
(341,658,cs),
(410,658,o),
(470,614,o),
(490,555,c),
(570,591,l),
(539,658,o),
(446,710,o),
(339,710,cs),
(140,710,o),
(61,530,o),
(61,350,cs),
(61,169,o),
(141,-10,o),
(339,-10,cs)
);
}
);
userData = {
com.hugojourdan.ColorFlow = {
"0" = 0;
"1" = 0;
"10" = 0;
"11" = 0;
"2" = 0;
"3" = 0;
"4" = 0;
"5" = 0;
"6" = 0;
"7" = 0;
"8" = 0;
"9" = 0;
};
};
width = 594;
},
{
anchors = (
{
name = bottom;
pos = (336,0);
}
);
layerId = m004;
shapes = (
{
closed = 1;
nodes = (
(406,-10,o),
(477,16,o),
(522,69,c),
(483,98,l),
(457,67,o),
(397,38,o),
(335,38,cs),
(200,38,o),
(123,151,o),
(123,350,cs),
(123,549,o),
(200,662,o),
(335,662,cs),
(397,662,o),
(457,633,o),
(483,602,c),
(516,637,l),
(471,686,o),
(403,710,o),
(337,710,cs),
(166,710,o),
(70,581,o),
(70,350,cs),
(70,119,o),
(166,-10,o),
(337,-10,cs)
);
}
);
userData = {
com.hugojourdan.ColorFlow = {
"0" = 0;
"1" = 0;
"10" = 0;
"11" = 0;
"2" = 0;
"3" = 0;
"4" = 0;
"5" = 0;
"6" = 0;
"7" = 0;
"8" = 0;
"9" = 0;
};
};
width = 555;
},
{
anchors = (
{
name = bottom;
pos = (354,0);
}
);
layerId = m005;
shapes = (
{
closed = 1;
nodes = (
(441,-10,o),
(524,25,o),
(572,89,c),
(496,138,l),
(471,105,o),
(414,77,o),
(356,77,cs),
(245,77,o),
(170,167,o),
(170,351,cs),
(170,531,o),
(241,622,o),
(348,622,cs),
(406,622,o),
(461,591,o),
(484,554,c),
(561,600,l),
(517,674,o),
(435,710,o),
(352,710,cs),
(167,710,o),
(61,581,o),
(61,350,cs),
(61,119,o),
(167,-10,o),
(352,-10,cs)
);
}
);
userData = {
com.hugojourdan.ColorFlow = {
"0" = 0;
"1" = 0;
"10" = 0;
"11" = 0;
"2" = 0;
"3" = 0;
"4" = 0;
"5" = 0;
"6" = 0;
"7" = 0;
"8" = 0;
"9" = 0;
};
};
width = 591;
},
{
anchors = (
{
name = bottom;
pos = (370,0);
}
);
layerId = m006;
shapes = (
{
closed = 1;
nodes = (
(484,-10,o),
(587,40,o),
(639,121,c),
(505,201,l),
(481,166,o),
(428,138,o),
(377,138,cs),
(304,138,o),
(232,192,o),
(232,353,cs),
(232,502,o),
(294,558,o),
(355,558,cs),
(401,558,o),
(445,528,o),
(466,484,c),
(620,542,l),
(577,656,o),
(472,710,o),
(363,710,cs),
(157,710,o),
(35,581,o),
(35,350,cs),
(35,119,o),
(157,-10,o),
(362,-10,cs)
);
}
);
userData = {
com.hugojourdan.ColorFlow = {
"0" = 0;
"1" = 0;
"10" = 0;
"11" = 0;
"2" = 0;
"3" = 0;
"4" = 0;
"5" = 0;
"6" = 0;
"7" = 0;
"8" = 0;
"9" = 0;
};
};
width = 636;
}
);
metricLeft = "=O";
note = C;
unicode = 67;
},
{
glyphname = D;
kernLeft = KO_H;
kernRight = KO_O;
lastChange = "2023-06-15 07:55:49 +0000";
layers = (
{
layerId = m01;
shapes = (
{
closed = 1;
nodes = (
(272,0,ls),
(475,0,o),
(580,119,o),
(580,350,cs),
(580,581,o),
(476,700,o),
(276,700,cs),
(102,700,l),
(102,0,l)
);
},
{
closed = 1;
nodes = (
(150,692,l),
(126,668,l),
(267,668,ls),
(440,668,o),
(527,562,o),
(527,350,cs),
(527,139,o),
(442,32,o),
(275,32,cs),
(126,32,l),
(150,8,l)
);
}
);
userData = {
com.hugojourdan.ColorFlow = {
"0" = 0;
"1" = 0;
"10" = 0;
"11" = 0;
"2" = 0;
"3" = 0;
"4" = 0;
"5" = 0;
"6" = 0;
"7" = 0;
"8" = 0;
"9" = 0;
};
};
width = 650;
},
{
layerId = "FF73925E-1E34-445B-881D-5A7CAAA8E8BE";
shapes = (
{
closed = 1;
nodes = (
(267,0,ls),
(504,0,o),
(621,116,o),
(621,350,cs),
(621,584,o),
(504,700,o),
(267,700,cs),
(51,700,l),
(51,0,l)
);
},
{
closed = 1;
nodes = (
(229,655,l),
(184,610,l),
(282,610,ls),
(382,610,o),
(432,524,o),
(432,350,cs),
(432,176,o),
(382,89,o),
(282,89,cs),
(184,89,l),
(229,44,l)
);
}
);
userData = {
com.hugojourdan.ColorFlow = {
"0" = 0;
"1" = 0;
"10" = 0;
"11" = 0;
"2" = 0;
"3" = 0;
"4" = 0;
"5" = 0;
"6" = 0;
"7" = 0;
"8" = 0;
"9" = 0;
};
};
width = 656;
},
{
layerId = "BF6BA5B2-0556-42F4-A103-614BEBF16A1A";
shapes = (
{
closed = 1;
nodes = (
(274,0,ls),
(468,0,o),
(601,142,o),
(601,350,cs),
(601,558,o),
(468,700,o),
(274,700,cs),
(88,700,l),
(88,0,l)
);
},
{
closed = 1;
nodes = (
(185,691,l),
(146,652,l),
(276,652,ls),
(409,652,o),
(498,531,o),
(498,350,cs),
(498,169,o),
(409,48,o),
(276,48,cs),
(146,48,l),
(185,9,l)
);
}
);
userData = {
com.hugojourdan.ColorFlow = {
"0" = 0;
"1" = 0;
"10" = 0;
"11" = 0;
"2" = 0;
"3" = 0;
"4" = 0;
"5" = 0;
"6" = 0;
"7" = 0;
"8" = 0;
"9" = 0;
};
};
width = 662;
},
{
layerId = m004;
shapes = (
{
closed = 1;
nodes = (
(305,0,ls),
(484,0,o),
(580,129,o),
(580,350,cs),
(580,571,o),
(484,700,o),
(309,700,cs),
(102,700,l),
(102,0,l)
);
},
{
closed = 1;
nodes = (
(150,682,l),
(126,658,l),
(300,658,ls),
(450,658,o),
(527,544,o),
(527,350,cs),
(527,156,o),
(450,42,o),
(308,42,cs),
(126,42,l),
(150,18,l)
);
}
);
userData = {
com.hugojourdan.ColorFlow = {
"0" = 0;
"1" = 0;
"10" = 0;
"11" = 0;
"2" = 0;
"3" = 0;
"4" = 0;
"5" = 0;
"6" = 0;
"7" = 0;
"8" = 0;
"9" = 0;
};
};
width = 650;
},
{
layerId = m005;
shapes = (
{
closed = 1;
nodes = (
(296,0,ls),
(498,0,o),
(602,124,o),
(602,350,cs),
(602,576,o),
(498,700,o),
(299,700,cs),
(88,700,l),
(88,0,l)
);
},
{
closed = 1;
nodes = (
(186,667,l),
(141,622,l),
(299,622,ls),
(430,622,o),
(496,524,o),
(496,350,cs),
(496,176,o),
(430,78,o),
(304,78,cs),
(141,78,l),
(186,33,l)
);
}
);
userData = {
com.hugojourdan.ColorFlow = {
"0" = 0;
"1" = 0;
"10" = 0;
"11" = 0;
"2" = 0;
"3" = 0;
"4" = 0;
"5" = 0;
"6" = 0;
"7" = 0;
"8" = 0;
"9" = 0;
};
};
width = 663;
},
{
layerId = m006;
shapes = (
{
closed = 1;
nodes = (
(267,0,ls),
(504,0,o),
(621,116,o),
(621,350,cs),
(621,584,o),
(504,700,o),
(267,700,cs),
(51,700,l),
(51,0,l)
);
},
{
closed = 1;
nodes = (
(228,609,l),
(183,564,l),
(282,564,ls),
(382,564,o),
(432,493,o),
(432,350,cs),
(432,207,o),
(382,136,o),
(282,136,cs),
(183,136,l),
(228,91,l)
);
}
);
userData = {
com.hugojourdan.ColorFlow = {
"0" = 0;
"1" = 0;
"10" = 0;
"11" = 0;
"2" = 0;
"3" = 0;
"4" = 0;
"5" = 0;
"6" = 0;
"7" = 0;
"8" = 0;
"9" = 0;
};
};
width = 656;
}
);
metricLeft = "=H";
metricRight = "=O";
note = D;
unicode = 68;
},
{
glyphname = E;
kernLeft = KO_H;
kernRight = KO_E;
lastChange = "2023-06-15 07:55:49 +0000";
layers = (
{
anchors = (
{
name = top;
pos = (286,700);
}
);
layerId = m01;
shapes = (
{
closed = 1;
nodes = (
(483,0,l),
(483,32,l),
(126,32,l),
(150,8,l),
(150,692,l),
(126,668,l),
(470,668,l),
(470,700,l),
(102,700,l),
(102,0,l)
);
},
{
closed = 1;
nodes = (
(450,348,l),
(450,378,l),
(126,378,l),
(126,348,l)
);
}
);
userData = {
com.hugojourdan.ColorFlow = {
"0" = 0;
"1" = 0;
"10" = 0;
"11" = 0;
"2" = 0;
"3" = 0;
"4" = 0;
"5" = 0;
"6" = 0;
"7" = 0;
"8" = 0;
"9" = 0;
};
};
width = 529;
},
{
anchors = (
{
name = top;
pos = (267,700);
}
);
layerId = "FF73925E-1E34-445B-881D-5A7CAAA8E8BE";
shapes = (
{
closed = 1;
nodes = (
(492,0,l),
(492,90,l),
(184,90,l),
(229,45,l),
(229,655,l),
(184,610,l),
(482,610,l),
(482,700,l),
(51,700,l),
(51,0,l)
);
},
{
closed = 1;
nodes = (
(459,323,l),
(459,403,l),
(140,403,l),
(140,323,l)
);
}
);
userData = {
com.hugojourdan.ColorFlow = {
"0" = 0;
"1" = 0;
"10" = 0;
"11" = 0;
"2" = 0;
"3" = 0;
"4" = 0;
"5" = 0;
"6" = 0;
"7" = 0;
"8" = 0;
"9" = 0;
};
};
width = 515;
},
{
anchors = (
{
name = top;
pos = (284,700);
}
);
layerId = "BF6BA5B2-0556-42F4-A103-614BEBF16A1A";
shapes = (
{
closed = 1;
nodes = (
(491,0,l),
(491,52,l),
(146,52,l),
(185,13,l),
(185,687,l),
(146,648,l),
(479,648,l),
(479,700,l),
(88,700,l),
(88,0,l)
);
},
{
closed = 1;
nodes = (
(458,339,l),
(458,387,l),
(136,387,l),
(136,339,l)
);
}
);
userData = {
com.hugojourdan.ColorFlow = {
"0" = 0;
"1" = 0;
"10" = 0;
"11" = 0;
"2" = 0;
"3" = 0;
"4" = 0;
"5" = 0;
"6" = 0;
"7" = 0;
"8" = 0;
"9" = 0;
};
};
width = 531;
},
{
anchors = (
{
name = top;
pos = (286,700);
}
);
layerId = m004;
shapes = (
{
closed = 1;
nodes = (
(483,0,l),
(483,40,l),
(126,40,l),
(150,16,l),
(150,684,l),
(126,660,l),
(470,660,l),
(470,700,l),
(102,700,l),
(102,0,l)
);
},
{
closed = 1;
nodes = (
(450,343,l),
(450,383,l),
(126,383,l),
(126,343,l)
);
}
);
userData = {
com.hugojourdan.ColorFlow = {
"0" = 0;
"1" = 0;
"10" = 0;
"11" = 0;
"2" = 0;
"3" = 0;
"4" = 0;
"5" = 0;
"6" = 0;
"7" = 0;
"8" = 0;
"9" = 0;
};
};
width = 529;
},
{
anchors = (
{
name = top;
pos = (286,700);
}
);
layerId = m005;
shapes = (
{
closed = 1;
nodes = (
(496,0,l),
(496,77,l),
(146,77,l),
(186,38,l),
(186,662,l),
(146,623,l),
(484,623,l),
(484,700,l),
(88,700,l),
(88,0,l)
);
},
{
closed = 1;
nodes = (
(461,326,l),
(461,400,l),
(136,400,l),
(136,326,l)
);
}
);
userData = {
com.hugojourdan.ColorFlow = {
"0" = 0;
"1" = 0;
"10" = 0;
"11" = 0;
"2" = 0;
"3" = 0;
"4" = 0;
"5" = 0;
"6" = 0;
"7" = 0;
"8" = 0;
"9" = 0;
};
};
width = 536;
},
{
anchors = (
{
name = top;
pos = (267,700);
}
);
background = {
anchors = (
{
name = top;
pos = (267,700);
}
);
};
layerId = m006;
shapes = (
{
closed = 1;
nodes = (
(502,0,l),
(502,136,l),
(184,136,l),
(229,91,l),
(229,609,l),
(184,564,l),
(492,564,l),
(492,700,l),
(51,700,l),
(51,0,l)
);
},
{
closed = 1;
nodes = (
(469,298,l),
(469,428,l),
(140,428,l),
(140,298,l)
);
}
);
userData = {
com.hugojourdan.ColorFlow = {
"0" = 0;
"1" = 0;
"10" = 0;
"11" = 0;
"2" = 0;
"3" = 0;
"4" = 0;
"5" = 0;
"6" = 0;
"7" = 0;
"8" = 0;
"9" = 0;
};
};
width = 525;
}
);
metricLeft = "=H";
metricRight = "=H*0.45";
note = E;
unicode = 69;
},
{
glyphname = F;
kernLeft = KO_H;
kernRight = KO_F;
lastChange = "2023-06-15 09:54:41 +0000";
layers = (
{
layerId = m01;
shapes = (
{
closed = 1;
nodes = (
(150,0,l),
(150,692,l),
(126,668,l),
(483,668,l),
(483,700,l),
(102,700,l),
(102,0,l)
);
},
{
closed = 1;
nodes = (
(446,343,l),
(446,373,l),
(126,373,l),
(126,343,l)
);
}
);
userData = {
com.hugojourdan.ColorFlow = {
"0" = 0;
"1" = 0;
"10" = 0;
"11" = 0;
"2" = 0;
"3" = 0;
"4" = 0;
"5" = 0;
"6" = 0;
"7" = 0;
"8" = 0;
"9" = 0;
};
};
width = 529;
},
{
layerId = "FF73925E-1E34-445B-881D-5A7CAAA8E8BE";
shapes = (
{
closed = 1;
nodes = (
(229,0,l),
(229,655,l),
(184,610,l),
(498,610,l),
(498,700,l),
(51,700,l),
(51,0,l)
);
},
{
closed = 1;
nodes = (
(454,325,l),
(454,405,l),
(140,405,l),
(140,325,l)
);
}
);
userData = {
com.hugojourdan.ColorFlow = {
"0" = 0;
"1" = 0;
"10" = 0;
"11" = 0;
"2" = 0;
"3" = 0;
"4" = 0;
"5" = 0;
"6" = 0;
"7" = 0;
"8" = 0;
"9" = 0;
};
};
width = 521;
},
{
layerId = "BF6BA5B2-0556-42F4-A103-614BEBF16A1A";
shapes = (
{
closed = 1;
nodes = (
(186,0,l),
(186,687,l),
(147,648,l),
(495,648,l),
(495,700,l),
(88,700,l),
(88,0,l)
);
},
{
closed = 1;
nodes = (
(456,337,l),
(456,385,l),
(136,385,l),
(136,337,l)
);
}
);
userData = {
com.hugojourdan.ColorFlow = {
"0" = 0;
"1" = 0;
"10" = 0;
"11" = 0;
"2" = 0;
"3" = 0;
"4" = 0;
"5" = 0;
"6" = 0;
"7" = 0;
"8" = 0;
"9" = 0;
};
};
width = 535;
},
{
layerId = m004;
shapes = (
{
closed = 1;
nodes = (
(150,0,l),
(150,684,l),
(126,660,l),
(483,660,l),
(483,700,l),
(102,700,l),
(102,0,l)
);
},
{
closed = 1;
nodes = (
(446,338,l),
(446,378,l),
(126,378,l),
(126,338,l)
);
}
);
userData = {
com.hugojourdan.ColorFlow = {
"0" = 0;
"1" = 0;
"10" = 0;
"11" = 0;
"2" = 0;
"3" = 0;
"4" = 0;
"5" = 0;
"6" = 0;
"7" = 0;
"8" = 0;
"9" = 0;
};
};
width = 529;
},
{
layerId = m005;
shapes = (
{
closed = 1;
nodes = (
(186,0,l),
(186,662,l),
(147,623,l),
(495,623,l),
(495,700,l),
(88,700,l),
(88,0,l)
);
},
{
closed = 1;
nodes = (
(455,322,l),
(455,399,l),
(136,399,l),
(136,322,l)
);
}
);
userData = {
com.hugojourdan.ColorFlow = {
"0" = 0;
"1" = 0;
"10" = 0;
"11" = 0;
"2" = 0;
"3" = 0;
"4" = 0;
"5" = 0;
"6" = 0;
"7" = 0;
"8" = 0;
"9" = 0;
};
};
width = 535;
},
{
layerId = m006;
shapes = (
{
closed = 1;
nodes = (
(229,0,l),
(229,609,l),
(184,564,l),
(498,564,l),
(498,700,l),
(51,700,l),
(51,0,l)
);
},
{
closed = 1;
nodes = (
(454,297,l),
(454,433,l),
(140,433,l),
(140,297,l)
);
}
);
userData = {
com.hugojourdan.ColorFlow = {
"0" = 0;
"1" = 0;
"10" = 0;
"11" = 0;
"2" = 0;
"3" = 0;
"4" = 0;
"5" = 0;
"6" = 0;
"7" = 0;
"8" = 0;
"9" = 0;
};
};
width = 521;
}
);
metricLeft = "=H";
metricRight = "=H*0.45";
note = F;
unicode = 70;
},
{
glyphname = G;
kernLeft = KO_O;
kernRight = KO_G;
lastChange = "2023-06-15 07:55:49 +0000";
layers = (
{
layerId = m01;
shapes = (
{
closed = 1;
nodes = (
(430,-10,o),
(501,45,o),
(518,138,c),
(502,138,l),
(502,0,l),
(539,0,l),
(539,344,l),
(324,344,l),
(324,312,l),
(490,308,l),
(491,187,ls),
(492,84,o),
(433,22,o),
(336,22,cs),
(200,22,o),
(123,141,o),
(123,350,cs),
(123,558,o),
(200,678,o),
(332,678,cs),
(398,678,o),
(457,648,o),
(483,602,c),
(516,637,l),
(473,684,o),
(407,710,o),
(333,710,cs),
(166,710,o),
(70,579,o),
(70,350,cs),
(70,123,o),
(165,-10,o),
(326,-10,cs)
);
}
);
userData = {
com.hugojourdan.ColorFlow = {
"0" = 0;
"1" = 0;
"10" = 0;
"11" = 0;
"2" = 0;
"3" = 0;
"4" = 0;
"5" = 0;
"6" = 0;
"7" = 0;
"8" = 0;
"9" = 0;
};
};
width = 641;
},
{
layerId = "FF73925E-1E34-445B-881D-5A7CAAA8E8BE";
shapes = (
{
closed = 1;
nodes = (
(453,-10,o),
(526,51,o),
(538,160,c),
(530,160,l),
(530,0,l),
(623,0,l),
(623,365,l),
(320,365,l),
(320,299,l),
(456,298,l),
(456,186,ls),
(456,118,o),
(424,80,o),
(368,80,cs),
(281,80,o),
(232,179,o),
(232,355,cs),
(232,522,o),
(277,616,o),
(358,616,cs),
(408,616,o),
(449,571,o),
(473,491,c),
(618,542,l),
(578,650,o),
(483,710,o),
(353,710,cs),
(149,710,o),
(35,580,o),
(35,348,cs),
(35,118,o),
(143,-10,o),
(336,-10,cs)
);
}
);
userData = {
com.hugojourdan.ColorFlow = {
"0" = 0;
"1" = 0;
"10" = 0;
"11" = 0;
"2" = 0;
"3" = 0;
"4" = 0;
"5" = 0;
"6" = 0;
"7" = 0;
"8" = 0;
"9" = 0;
};
};
width = 674;
},
{
layerId = "BF6BA5B2-0556-42F4-A103-614BEBF16A1A";
shapes = (
{
closed = 1;
nodes = (
(444,-10,o),
(512,39,o),
(535,131,c),
(531,131,l),
(531,0,l),
(590,0,l),
(590,352,l),
(325,352,l),
(325,307,l),
(497,302,l),
(497,208,ls),
(497,105,o),
(444,42,o),
(357,42,cs),
(231,42,o),
(163,149,o),
(163,347,cs),
(163,541,o),
(230,658,o),
(341,658,cs),
(408,658,o),
(469,616,o),
(490,555,c),
(570,591,l),
(538,661,o),
(443,710,o),
(340,710,cs),
(168,710,o),
(61,570,o),
(61,345,cs),
(61,128,o),
(171,-10,o),
(344,-10,cs)
);
}
);
userData = {
com.hugojourdan.ColorFlow = {
"0" = 0;
"1" = 0;
"10" = 0;
"11" = 0;
"2" = 0;
"3" = 0;
"4" = 0;
"5" = 0;
"6" = 0;
"7" = 0;
"8" = 0;
"9" = 0;
};
};
width = 678;
},
{
layerId = m004;
shapes = (
{
closed = 1;
nodes = (
(430,-10,o),
(501,45,o),
(518,138,c),
(502,138,l),
(502,0,l),
(539,0,l),
(539,346,l),
(324,346,l),
(324,306,l),
(490,306,l),
(491,192,ls),
(492,92,o),
(433,32,o),
(336,32,cs),
(200,32,o),
(123,147,o),
(123,350,cs),
(123,552,o),
(200,668,o),
(332,668,cs),
(398,668,o),
(457,639,o),
(483,602,c),
(516,637,l),
(473,684,o),
(407,710,o),
(333,710,cs),
(166,710,o),
(70,579,o),
(70,350,cs),
(70,123,o),
(165,-10,o),
(326,-10,cs)
);
}
);
userData = {
com.hugojourdan.ColorFlow = {
"0" = 0;
"1" = 0;
"10" = 0;
"11" = 0;
"2" = 0;
"3" = 0;
"4" = 0;
"5" = 0;
"6" = 0;
"7" = 0;
"8" = 0;
"9" = 0;
};
};
width = 641;
},
{
layerId = m005;
shapes = (
{
closed = 1;
nodes = (
(447,-10,o),
(527,57,o),
(542,166,c),
(519,166,l),
(519,0,l),
(587,0,l),
(587,370,l),
(338,370,l),
(338,299,l),
(493,299,l),
(493,228,ls),
(494,131,o),
(437,75,o),
(355,75,cs),
(245,75,o),
(169,171,o),
(169,352,cs),
(169,526,o),
(234,625,o),
(346,625,cs),
(408,625,o),
(460,592,o),
(485,557,c),
(568,603,l),
(525,672,o),
(447,710,o),
(350,710,cs),
(166,710,o),
(61,579,o),
(61,349,cs),
(61,125,o),
(162,-10,o),
(330,-10,cs)
);
}
);
userData = {
com.hugojourdan.ColorFlow = {
"0" = 0;
"1" = 0;
"10" = 0;
"11" = 0;
"2" = 0;
"3" = 0;
"4" = 0;
"5" = 0;
"6" = 0;
"7" = 0;
"8" = 0;
"9" = 0;
};
};
width = 675;
},
{
layerId = m006;
shapes = (
{
closed = 1;
nodes = (
(462,-10,o),
(556,75,o),
(568,210,c),
(534,210,l),
(534,0,l),
(653,0,l),
(653,409,l),
(350,409,l),
(350,289,l),
(486,289,l),
(486,284,ls),
(486,192,o),
(432,143,o),
(374,143,cs),
(306,143,o),
(232,210,o),
(232,355,cs),
(232,484,o),
(277,557,o),
(358,557,cs),
(412,557,o),
(455,517,o),
(478,485,c),
(639,549,l),
(596,653,o),
(499,710,o),
(366,710,cs),
(154,710,o),
(35,580,o),
(35,348,cs),
(35,128,o),
(147,-10,o),
(326,-10,cs)
);
}
);
userData = {
com.hugojourdan.ColorFlow = {
"0" = 0;
"1" = 0;
"10" = 0;
"11" = 0;
"2" = 0;
"3" = 0;
"4" = 0;
"5" = 0;
"6" = 0;
"7" = 0;
"8" = 0;
"9" = 0;
};
};
width = 704;
}
);
metricLeft = "=O";
metricRight = "=H";
note = G;
unicode = 71;
},
{
glyphname = H;
kernLeft = KO_H;
kernRight = KO_H;
lastChange = "2023-06-15 07:55:16 +0000";
layers = (
{
layerId = m01;
metricLeft = "=n*1.34";
shapes = (
{
closed = 1;
nodes = (
(585,0,l),
(585,700,l),
(537,700,l),
(537,0,l)
);
},
{
closed = 1;
nodes = (
(150,0,l),
(150,700,l),
(102,700,l),
(102,0,l)
);
},
{
closed = 1;
nodes = (
(545,340,l),
(545,372,l),
(142,372,l),
(142,340,l)
);
}
);
userData = {
com.hugojourdan.ColorFlow = {
"0" = 0;
"1" = 0;
"10" = 0;
"11" = 0;
"2" = 0;
"3" = 0;
"4" = 0;
"5" = 0;
"6" = 0;
"7" = 0;
"8" = 0;
"9" = 0;
};
};
width = 687;
},
{
layerId = "FF73925E-1E34-445B-881D-5A7CAAA8E8BE";
metricLeft = "=n*1.34";
shapes = (
{
closed = 1;
nodes = (
(625,0,l),
(625,700,l),
(447,700,l),
(447,0,l)
);
},
{
closed = 1;
nodes = (
(229,0,l),
(229,700,l),
(51,700,l),
(51,0,l)
);
},
{
closed = 1;
nodes = (
(463,310,l),
(463,400,l),
(213,400,l),
(213,310,l)
);
}
);
userData = {
com.hugojourdan.ColorFlow = {
"0" = 0;
"1" = 0;
"10" = 0;
"11" = 0;
"2" = 0;
"3" = 0;
"4" = 0;
"5" = 0;
"6" = 0;
"7" = 0;
"8" = 0;
"9" = 0;
};
};
width = 676;
},
{
layerId = "BF6BA5B2-0556-42F4-A103-614BEBF16A1A";
metricLeft = "=n*1.34";
shapes = (
{
closed = 1;
nodes = (
(605,0,l),
(605,700,l),
(508,700,l),
(508,0,l)
);
},
{
closed = 1;
nodes = (
(185,0,l),
(185,700,l),
(88,700,l),
(88,0,l)
);
},
{
closed = 1;
nodes = (
(521,329,l),
(521,381,l),
(172,381,l),
(172,329,l)
);
}
);
userData = {
com.hugojourdan.ColorFlow = {
"0" = 0;
"1" = 0;
"10" = 0;
"11" = 0;
"2" = 0;
"3" = 0;
"4" = 0;
"5" = 0;
"6" = 0;
"7" = 0;
"8" = 0;
"9" = 0;
};
};
width = 693;
},
{
layerId = m004;
metricLeft = "=n*1.19";
shapes = (
{
closed = 1;
nodes = (
(585,0,l),
(585,700,l),
(537,700,l),
(537,0,l)
);
},
{
closed = 1;
nodes = (
(150,0,l),
(150,700,l),
(102,700,l),
(102,0,l)
);
},
{
closed = 1;
nodes = (
(565,336,l),
(565,376,l),
(122,376,l),
(122,336,l)
);
}
);
userData = {
com.hugojourdan.ColorFlow = {
"0" = 0;
"1" = 0;
"10" = 0;
"11" = 0;
"2" = 0;
"3" = 0;
"4" = 0;
"5" = 0;
"6" = 0;
"7" = 0;
"8" = 0;
"9" = 0;
};
};
width = 687;
},
{
layerId = m005;
metricLeft = "=n*1.16";
shapes = (
{
closed = 1;
nodes = (
(606,0,l),
(606,700,l),
(508,700,l),
(508,0,l)
);
},
{
closed = 1;
nodes = (
(186,0,l),
(186,700,l),
(88,700,l),
(88,0,l)
);
},
{
closed = 1;
nodes = (
(519,319,l),
(519,392,l),
(175,392,l),
(175,319,l)
);
}
);
userData = {
com.hugojourdan.ColorFlow = {
"0" = 0;
"1" = 0;
"10" = 0;
"11" = 0;
"2" = 0;
"3" = 0;
"4" = 0;
"5" = 0;
"6" = 0;
"7" = 0;
"8" = 0;
"9" = 0;
};
};
width = 694;
},
{
layerId = m006;
metricLeft = "=n*1.07";
shapes = (
{
closed = 1;
nodes = (
(625,0,l),
(625,700,l),
(447,700,l),
(447,0,l)
);
},
{
closed = 1;
nodes = (
(229,0,l),
(229,700,l),
(51,700,l),
(51,0,l)
);
},
{
closed = 1;
nodes = (
(463,287,l),
(463,423,l),
(213,423,l),
(213,287,l)
);
}
);
userData = {
com.hugojourdan.ColorFlow = {
"0" = 0;
"1" = 0;
"10" = 0;
"11" = 0;
"2" = 0;
"3" = 0;
"4" = 0;
"5" = 0;
"6" = 0;
"7" = 0;
"8" = 0;
"9" = 0;
};
};
width = 676;
}
);
metricLeft = "=n+10*1.24";
metricRight = "=|";
note = H;
unicode = 72;
},
{
glyphname = I;
kernLeft = KO_H;
kernRight = KO_H;
lastChange = "2023-06-15 07:55:49 +0000";
layers = (
{
anchors = (
{
name = top;
pos = (126,700);
}
);
layerId = m01;
shapes = (
{
closed = 1;
nodes = (
(150,0,l),
(150,700,l),
(102,700,l),
(102,0,l)
);
}
);
userData = {
com.hugojourdan.ColorFlow = {
"0" = 0;
"1" = 0;
"10" = 0;
"11" = 0;
"2" = 0;
"3" = 0;
"4" = 0;
"5" = 0;
"6" = 0;
"7" = 0;
"8" = 0;
"9" = 0;
};
};
width = 252;
},
{
anchors = (
{
name = top;
pos = (140,700);
}
);
layerId = "FF73925E-1E34-445B-881D-5A7CAAA8E8BE";
shapes = (
{
closed = 1;
nodes = (
(228,0,l),
(228,700,l),
(51,700,l),
(51,0,l)
);
}
);
userData = {
com.hugojourdan.ColorFlow = {
"0" = 0;
"1" = 0;
"10" = 0;
"11" = 0;
"2" = 0;
"3" = 0;
"4" = 0;
"5" = 0;
"6" = 0;
"7" = 0;
"8" = 0;
"9" = 0;
};
};
width = 279;
},
{
anchors = (
{
name = top;
pos = (137,700);
}
);
layerId = "BF6BA5B2-0556-42F4-A103-614BEBF16A1A";
shapes = (
{
closed = 1;
nodes = (
(186,0,l),
(186,700,l),
(88,700,l),
(88,0,l)
);
}
);
userData = {
com.hugojourdan.ColorFlow = {
"0" = 0;
"1" = 0;
"10" = 0;
"11" = 0;
"2" = 0;
"3" = 0;
"4" = 0;
"5" = 0;
"6" = 0;
"7" = 0;
"8" = 0;
"9" = 0;
};
};
width = 274;
},
{
anchors = (
{
name = top;
pos = (126,700);
}
);
layerId = m004;
shapes = (
{
closed = 1;
nodes = (
(150,0,l),
(150,700,l),
(102,700,l),
(102,0,l)
);
}
);
userData = {
com.hugojourdan.ColorFlow = {
"0" = 0;
"1" = 0;
"10" = 0;
"11" = 0;
"2" = 0;
"3" = 0;
"4" = 0;
"5" = 0;
"6" = 0;
"7" = 0;
"8" = 0;
"9" = 0;
};
};
width = 252;
},
{
anchors = (
{
name = top;
pos = (137,700);
}
);
layerId = m005;
shapes = (
{
closed = 1;
nodes = (
(186,0,l),
(186,700,l),
(88,700,l),
(88,0,l)
);
}
);
userData = {
com.hugojourdan.ColorFlow = {
"0" = 0;
"1" = 0;
"10" = 0;
"11" = 0;
"2" = 0;
"3" = 0;
"4" = 0;
"5" = 0;
"6" = 0;
"7" = 0;
"8" = 0;
"9" = 0;
};
};
width = 274;
},
{
anchors = (
{
name = top;
pos = (140,700);
}
);
layerId = m006;
shapes = (
{
closed = 1;
nodes = (
(228,0,l),
(228,700,l),
(51,700,l),
(51,0,l)
);
}
);
userData = {
com.hugojourdan.ColorFlow = {
"0" = 0;
"1" = 0;
"10" = 0;
"11" = 0;
"2" = 0;
"3" = 0;
"4" = 0;
"5" = 0;
"6" = 0;
"7" = 0;
"8" = 0;
"9" = 0;
};
};
width = 279;
}
);
metricLeft = "=H";
metricRight = "=|";
note = I;
unicode = 73;
},
{
glyphname = J;
kernLeft = KO_J;
kernRight = KO_J;
lastChange = "2023-06-15 07:55:49 +0000";
layers = (
{
layerId = m01;
shapes = (
{
closed = 1;
nodes = (
(368,-10,o),
(456,55,o),
(456,177,cs),
(456,700,l),
(408,700,l),
(408,170,ls),
(408,78,o),
(343,24,o),
(270,24,cs),
(217,24,o),
(158,53,o),
(119,118,c),
(90,81,l),
(139,20,o),
(207,-10,o),
(272,-10,cs)
);
}
);
userData = {
com.hugojourdan.ColorFlow = {
"0" = 0;
"1" = 0;
"10" = 0;
"11" = 0;
"2" = 0;
"3" = 0;
"4" = 0;
"5" = 0;
"6" = 0;
"7" = 0;
"8" = 0;
"9" = 0;
};
};
width = 546;
},
{
layerId = "FF73925E-1E34-445B-881D-5A7CAAA8E8BE";
shapes = (
{
closed = 1;
nodes = (
(471,-10,o),
(561,79,o),
(561,239,cs),
(561,700,l),
(386,700,l),
(386,235,ls),
(386,136,o),
(358,80,o),
(308,80,cs),
(260,80,o),
(212,134,o),
(174,211,c),
(45,121,l),
(98,37,o),
(192,-10,o),
(309,-10,cs)
);
}
);
userData = {
com.hugojourdan.ColorFlow = {
"0" = 0;
"1" = 0;
"10" = 0;
"11" = 0;
"2" = 0;
"3" = 0;
"4" = 0;
"5" = 0;
"6" = 0;
"7" = 0;
"8" = 0;
"9" = 0;
};
};
width = 606;
},
{
layerId = "BF6BA5B2-0556-42F4-A103-614BEBF16A1A";
shapes = (
{
closed = 1;
nodes = (
(396,-10,o),
(462,59,o),
(462,183,cs),
(462,700,l),
(365,700,l),
(365,177,ls),
(365,90,o),
(334,41,o),
(278,41,cs),
(220,41,o),
(177,78,o),
(159,145,c),
(77,114,l),
(106,34,o),
(178,-10,o),
(278,-10,cs)
);
}
);
userData = {
com.hugojourdan.ColorFlow = {
"0" = 0;
"1" = 0;
"10" = 0;
"11" = 0;
"2" = 0;
"3" = 0;
"4" = 0;
"5" = 0;
"6" = 0;
"7" = 0;
"8" = 0;
"9" = 0;
};
};
width = 539;
},
{
layerId = m004;
shapes = (
{
closed = 1;
nodes = (
(368,-10,o),
(456,55,o),
(456,177,cs),
(456,700,l),
(408,700,l),
(408,170,ls),
(408,83,o),
(345,32,o),
(274,32,cs),
(218,32,o),
(154,59,o),
(117,121,c),
(90,81,l),
(139,20,o),
(207,-10,o),
(272,-10,cs)
);
}
);
userData = {
com.hugojourdan.ColorFlow = {
"0" = 0;
"1" = 0;
"10" = 0;
"11" = 0;
"2" = 0;
"3" = 0;
"4" = 0;
"5" = 0;
"6" = 0;
"7" = 0;
"8" = 0;
"9" = 0;
};
};
width = 546;
},
{
layerId = m005;
shapes = (
{
closed = 1;
nodes = (
(413,-10,o),
(502,64,o),
(502,201,cs),
(502,700,l),
(404,700,l),
(404,195,ls),
(404,119,o),
(355,75,o),
(292,75,cs),
(239,75,o),
(181,104,o),
(144,160,c),
(77,96,l),
(128,27,o),
(206,-10,o),
(291,-10,cs)
);
}
);
userData = {
com.hugojourdan.ColorFlow = {
"0" = 0;
"1" = 0;
"10" = 0;
"11" = 0;
"2" = 0;
"3" = 0;
"4" = 0;
"5" = 0;
"6" = 0;
"7" = 0;
"8" = 0;
"9" = 0;
};
};
width = 579;
},
{
layerId = m006;
shapes = (
{
closed = 1;
nodes = (
(471,-10,o),
(561,79,o),
(561,239,cs),
(561,700,l),
(386,700,l),
(386,235,ls),
(386,177,o),
(358,143,o),
(308,143,cs),
(260,143,o),
(212,175,o),
(174,221,c),
(45,121,l),
(98,37,o),
(192,-10,o),
(309,-10,cs)
);
}
);
userData = {
com.hugojourdan.ColorFlow = {
"0" = 0;
"1" = 0;
"10" = 0;
"11" = 0;
"2" = 0;
"3" = 0;
"4" = 0;
"5" = 0;
"6" = 0;
"7" = 0;
"8" = 0;
"9" = 0;
};
};
width = 606;
}
);
metricLeft = "=|";
metricRight = "=U";
note = J;
unicode = 74;
},
{
glyphname = K;
kernLeft = KO_K;
kernRight = KO_K;
lastChange = "2023-06-15 06:34:53 +0000";
layers = (
{
layerId = m01;
shapes = (
{
closed = 1;
nodes = (
(589,0,l),
(299,365,l),
(564,700,l),
(518,700,l),
(246,356,l),
(523,0,l)
);
},
{
closed = 1;
nodes = (
(162,0,l),
(162,700,l),
(114,700,l),
(114,0,l)
);
},
{
closed = 1;
nodes = (
(268,334,l),
(279,381,l),
(142,360,l),
(158,334,l)
);
}
);
userData = {
com.hugojourdan.ColorFlow = {
"0" = 0;
"1" = 0;
"10" = 0;
"11" = 0;
"2" = 0;
"3" = 0;
"4" = 0;
"5" = 0;
"6" = 0;
"7" = 0;
"8" = 0;
"9" = 0;
};
};
width = 597;
},
{
layerId = "FF73925E-1E34-445B-881D-5A7CAAA8E8BE";
shapes = (
{
closed = 1;
nodes = (
(678,0,l),
(447,404,l),
(658,700,l),
(548,700,l),
(298,351,l),
(481,0,l)
);
},
{
closed = 1;
nodes = (
(261,0,l),
(261,700,l),
(83,700,l),
(83,0,l)
);
},
{
closed = 1;
nodes = (
(364,322,l),
(364,420,l),
(245,404,l),
(245,322,l)
);
}
);
userData = {
com.hugojourdan.ColorFlow = {
"0" = 0;
"1" = 0;
"10" = 0;
"11" = 0;
"2" = 0;
"3" = 0;
"4" = 0;
"5" = 0;
"6" = 0;
"7" = 0;
"8" = 0;
"9" = 0;
};
};
width = 680;
},
{
layerId = "BF6BA5B2-0556-42F4-A103-614BEBF16A1A";
shapes = (
{
closed = 1;
nodes = (
(623,0,l),
(357,381,l),
(600,700,l),
(529,700,l),
(266,354,l),
(507,0,l)
);
},
{
closed = 1;
nodes = (
(200,0,l),
(200,700,l),
(103,700,l),
(103,0,l)
);
},
{
closed = 1;
nodes = (
(306,324,l),
(317,395,l),
(180,374,l),
(196,324,l)
);
}
);
userData = {
com.hugojourdan.ColorFlow = {
"0" = 0;
"1" = 0;
"10" = 0;
"11" = 0;
"2" = 0;
"3" = 0;
"4" = 0;
"5" = 0;
"6" = 0;
"7" = 0;
"8" = 0;
"9" = 0;
};
};
width = 629;
},
{
layerId = m004;
shapes = (
{
closed = 1;
nodes = (
(152,227,l),
(577,700,l),
(517,700,l),
(152,290,l),
(129,290,l),
(129,227,l)
);
},
{
closed = 1;
nodes = (
(162,0,l),
(162,700,l),
(114,700,l),
(114,0,l)
);
},
{
closed = 1;
nodes = (
(615,0,l),
(306,418,l),
(274,382,l),
(558,0,l)
);
}
);
userData = {
com.hugojourdan.ColorFlow = {
"0" = 0;
"1" = 0;
"10" = 0;
"11" = 0;
"2" = 0;
"3" = 0;
"4" = 0;
"5" = 0;
"6" = 0;
"7" = 0;
"8" = 0;
"9" = 0;
};
};
width = 597;
},
{
layerId = m005;
shapes = (
{
closed = 1;
nodes = (
(157,167,l),
(616,700,l),
(510,700,l),
(132,259,l),
(114,259,l),
(114,167,l)
);
},
{
closed = 1;
nodes = (
(200,0,l),
(200,700,l),
(102,700,l),
(102,0,l)
);
},
{
closed = 1;
nodes = (
(639,0,l),
(349,412,l),
(275,365,l),
(528,0,l)
);
}
);
userData = {
com.hugojourdan.ColorFlow = {
"0" = 0;
"1" = 0;
"10" = 0;
"11" = 0;
"2" = 0;
"3" = 0;
"4" = 0;
"5" = 0;
"6" = 0;
"7" = 0;
"8" = 0;
"9" = 0;
};
};
width = 629;
},
{
layerId = m006;
shapes = (
{
closed = 1;
nodes = (
(165,73,l),
(678,700,l),
(498,700,l),
(101,209,l),
(90,209,l),
(90,73,l)
);
},
{
closed = 1;
nodes = (
(261,0,l),
(261,700,l),
(83,700,l),
(83,0,l)
);
},
{
closed = 1;
nodes = (
(678,0,l),
(417,403,l),
(277,338,l),
(481,0,l)
);
}
);
userData = {
com.hugojourdan.ColorFlow = {
"0" = 0;
"1" = 0;
"10" = 0;
"11" = 0;
"2" = 0;
"3" = 0;
"4" = 0;
"5" = 0;
"6" = 0;
"7" = 0;
"8" = 0;
"9" = 0;
};
};
width = 680;
}
);
note = K;
unicode = 75;
},
{
glyphname = L;
kernLeft = KO_H;
kernRight = KO_L;
lastChange = "2023-06-15 07:55:49 +0000";
layers = (
{
layerId = m01;
shapes = (
{
closed = 1;
nodes = (
(474,0,l),
(474,32,l),
(150,32,l),
(150,700,l),
(102,700,l),
(102,0,l)
);
}
);
userData = {
com.hugojourdan.ColorFlow = {
"0" = 0;
"1" = 0;
"10" = 0;
"11" = 0;
"2" = 0;
"3" = 0;
"4" = 0;
"5" = 0;
"6" = 0;
"7" = 0;
"8" = 0;
"9" = 0;
};
};
width = 543;
},
{
layerId = "FF73925E-1E34-445B-881D-5A7CAAA8E8BE";
shapes = (
{
closed = 1;
nodes = (
(487,0,l),
(487,90,l),
(229,90,l),
(229,700,l),
(51,700,l),
(51,0,l)
);
}
);
userData = {
com.hugojourdan.ColorFlow = {
"0" = 0;
"1" = 0;
"10" = 0;
"11" = 0;
"2" = 0;
"3" = 0;
"4" = 0;
"5" = 0;
"6" = 0;
"7" = 0;
"8" = 0;
"9" = 0;
};
};
width = 522;
},
{
layerId = "BF6BA5B2-0556-42F4-A103-614BEBF16A1A";
shapes = (
{
closed = 1;
nodes = (
(484,0,l),
(484,52,l),
(185,52,l),
(185,700,l),
(88,700,l),
(88,0,l)
);
}
);
userData = {
com.hugojourdan.ColorFlow = {
"0" = 0;
"1" = 0;
"10" = 0;
"11" = 0;
"2" = 0;
"3" = 0;
"4" = 0;
"5" = 0;
"6" = 0;
"7" = 0;
"8" = 0;
"9" = 0;
};
};
width = 544;
},
{
layerId = m004;
shapes = (
{
closed = 1;
nodes = (
(474,0,l),
(474,40,l),
(150,40,l),
(150,700,l),
(102,700,l),
(102,0,l)
);
}
);
userData = {
com.hugojourdan.ColorFlow = {
"0" = 0;
"1" = 0;
"10" = 0;
"11" = 0;
"2" = 0;
"3" = 0;
"4" = 0;
"5" = 0;
"6" = 0;
"7" = 0;
"8" = 0;
"9" = 0;
};
};
width = 543;
},
{
layerId = m005;
shapes = (
{
closed = 1;
nodes = (
(485,0,l),
(485,77,l),
(186,77,l),
(186,700,l),
(88,700,l),
(88,0,l)
);
}
);
userData = {
com.hugojourdan.ColorFlow = {
"0" = 0;
"1" = 0;
"10" = 0;
"11" = 0;
"2" = 0;
"3" = 0;
"4" = 0;
"5" = 0;
"6" = 0;
"7" = 0;
"8" = 0;
"9" = 0;
};
};
width = 545;
},
{
layerId = m006;
shapes = (
{
closed = 1;
nodes = (
(487,0,l),
(487,136,l),
(229,136,l),
(229,700,l),
(51,700,l),
(51,0,l)
);
}
);
userData = {
com.hugojourdan.ColorFlow = {
"0" = 0;
"1" = 0;
"10" = 0;
"11" = 0;
"2" = 0;
"3" = 0;
"4" = 0;
"5" = 0;
"6" = 0;
"7" = 0;
"8" = 0;
"9" = 0;
};
};
width = 522;
}
);
metricLeft = "=H";
metricRight = "=H*0.68";
note = L;
unicode = 76;
},
{
glyphname = M;
kernLeft = KO_H;
kernRight = KO_H;
lastChange = "2023-06-15 07:55:49 +0000";
layers = (
{
layerId = m01;
shapes = (
{
closed = 1;
nodes = (
(139,0,l),
(139,673,l),
(121,669,l),
(409,0,l),
(439,0,l),
(723,671,l),
(705,675,l),
(705,0,l),
(754,0,l),
(754,700,l),
(696,700,l),
(432,77,l),
(163,700,l),
(102,700,l),
(102,0,l)
);
}
);
userData = {
com.hugojourdan.ColorFlow = {
"0" = 0;
"1" = 0;
"10" = 0;
"11" = 0;
"2" = 0;
"3" = 0;
"4" = 0;
"5" = 0;
"6" = 0;
"7" = 0;
"8" = 0;
"9" = 0;
};
};
width = 856;
},
{
layerId = "FF73925E-1E34-445B-881D-5A7CAAA8E8BE";
shapes = (
{
closed = 1;
nodes = (
(145,0,l),
(145,547,l),
(130,544,l),
(320,0,l),
(445,0,l),
(626,549,l),
(612,551,l),
(612,0,l),
(788,0,l),
(788,700,l),
(589,700,l),
(423,198,l),
(249,700,l),
(51,700,l),
(51,0,l)
);
}
);
userData = {
com.hugojourdan.ColorFlow = {
"0" = 0;
"1" = 0;
"10" = 0;
"11" = 0;
"2" = 0;
"3" = 0;
"4" = 0;
"5" = 0;
"6" = 0;
"7" = 0;
"8" = 0;
"9" = 0;
};
};
width = 839;
},
{
layerId = "BF6BA5B2-0556-42F4-A103-614BEBF16A1A";
shapes = (
{
closed = 1;
nodes = (
(148,0,l),
(148,624,l),
(131,621,l),
(381,0,l),
(447,0,l),
(691,628,l),
(675,631,l),
(675,0,l),
(773,0,l),
(773,700,l),
(655,700,l),
(434,120,l),
(203,700,l),
(88,700,l),
(88,0,l)
);
}
);
userData = {
com.hugojourdan.ColorFlow = {
"0" = 0;
"1" = 0;
"10" = 0;
"11" = 0;
"2" = 0;
"3" = 0;
"4" = 0;
"5" = 0;
"6" = 0;
"7" = 0;
"8" = 0;
"9" = 0;
};
};
width = 861;
},
{
layerId = m004;
shapes = (
{
closed = 1;
nodes = (
(150,0,l),
(150,673,l),
(132,669,l),
(407,30,l),
(449,30,l),
(724,669,l),
(706,673,l),
(706,0,l),
(754,0,l),
(754,700,l),
(689,700,l),
(428,94,l),
(167,700,l),
(102,700,l),
(102,0,l)
);
}
);
userData = {
com.hugojourdan.ColorFlow = {
"0" = 0;
"1" = 0;
"10" = 0;
"11" = 0;
"2" = 0;
"3" = 0;
"4" = 0;
"5" = 0;
"6" = 0;
"7" = 0;
"8" = 0;
"9" = 0;
};
};
width = 856;
},
{
layerId = m005;
shapes = (
{
closed = 1;
nodes = (
(185,0,l),
(185,606,l),
(164,573,l),
(392,52,l),
(469,52,l),
(697,573,l),
(676,606,l),
(676,0,l),
(773,0,l),
(773,700,l),
(653,700,l),
(431,161,l),
(208,700,l),
(88,700,l),
(88,0,l)
);
}
);
userData = {
com.hugojourdan.ColorFlow = {
"0" = 0;
"1" = 0;
"10" = 0;
"11" = 0;
"2" = 0;
"3" = 0;
"4" = 0;
"5" = 0;
"6" = 0;
"7" = 0;
"8" = 0;
"9" = 0;
};
};
width = 861;
},
{
layerId = m006;
shapes = (
{
closed = 1;
nodes = (
(227,0,l),
(227,501,l),
(212,498,l),
(354,99,l),
(487,99,l),
(629,498,l),
(614,501,l),
(614,0,l),
(790,0,l),
(790,700,l),
(581,700,l),
(421,268,l),
(260,700,l),
(51,700,l),
(51,0,l)
);
}
);
userData = {
com.hugojourdan.ColorFlow = {
"0" = 0;
"1" = 0;
"10" = 0;
"11" = 0;
"2" = 0;
"3" = 0;
"4" = 0;
"5" = 0;
"6" = 0;
"7" = 0;
"8" = 0;
"9" = 0;
};
};
width = 841;
}
);
metricLeft = "=H";
metricRight = "=|";
note = M;
unicode = 77;
},
{
glyphname = N;
kernLeft = KO_H;
kernRight = KO_H;
lastChange = "2023-06-15 07:55:49 +0000";
layers = (
{
anchors = (
{
name = top;
pos = (328,700);
}
);
layerId = m01;
shapes = (
{
closed = 1;
nodes = (
(139,0,l),
(139,650,l),
(115,643,l),
(527,0,l),
(557,0,l),
(557,700,l),
(520,700,l),
(520,55,l),
(544,62,l),
(134,700,l),
(102,700,l),
(102,0,l)
);
}
);
userData = {
com.hugojourdan.ColorFlow = {
"0" = 0;
"1" = 0;
"10" = 0;
"11" = 0;
"2" = 0;
"3" = 0;
"4" = 0;
"5" = 0;
"6" = 0;
"7" = 0;
"8" = 0;
"9" = 0;
};
};
width = 659;
},
{
anchors = (
{
name = top;
pos = (326,700);
}
);
layerId = "FF73925E-1E34-445B-881D-5A7CAAA8E8BE";
shapes = (
{
closed = 1;
nodes = (
(144,0,l),
(144,495,l),
(119,488,l),
(439,0,l),
(578,0,l),
(578,700,l),
(483,700,l),
(483,213,l),
(508,220,l),
(193,700,l),
(51,700,l),
(51,0,l)
);
}
);
userData = {
com.hugojourdan.ColorFlow = {
"0" = 0;
"1" = 0;
"10" = 0;
"11" = 0;
"2" = 0;
"3" = 0;
"4" = 0;
"5" = 0;
"6" = 0;
"7" = 0;
"8" = 0;
"9" = 0;
};
};
width = 629;
},
{
anchors = (
{
name = top;
pos = (333,700);
}
);
layerId = "BF6BA5B2-0556-42F4-A103-614BEBF16A1A";
shapes = (
{
closed = 1;
nodes = (
(147,0,l),
(147,590,l),
(123,583,l),
(499,0,l),
(571,0,l),
(571,700,l),
(512,700,l),
(512,115,l),
(536,122,l),
(162,700,l),
(88,700,l),
(88,0,l)
);
}
);
userData = {
com.hugojourdan.ColorFlow = {
"0" = 0;
"1" = 0;
"10" = 0;
"11" = 0;
"2" = 0;
"3" = 0;
"4" = 0;
"5" = 0;
"6" = 0;
"7" = 0;
"8" = 0;
"9" = 0;
};
};
width = 659;
},
{
anchors = (
{
name = top;
pos = (328,700);
}
);
layerId = m004;
shapes = (
{
closed = 1;
nodes = (
(150,0,l),
(150,650,l),
(115,643,l),
(527,0,l),
(557,0,l),
(557,700,l),
(509,700,l),
(509,55,l),
(544,62,l),
(134,700,l),
(102,700,l),
(102,0,l)
);
}
);
userData = {
com.hugojourdan.ColorFlow = {
"0" = 0;
"1" = 0;
"10" = 0;
"11" = 0;
"2" = 0;
"3" = 0;
"4" = 0;
"5" = 0;
"6" = 0;
"7" = 0;
"8" = 0;
"9" = 0;
};
};
width = 659;
},
{
anchors = (
{
name = top;
pos = (350,700);
}
);
layerId = m005;
shapes = (
{
closed = 1;
nodes = (
(186,0,l),
(186,590,l),
(151,583,l),
(496,0,l),
(595,0,l),
(595,700,l),
(497,700,l),
(497,116,l),
(533,123,l),
(191,700,l),
(88,700,l),
(88,0,l)
);
}
);
userData = {
com.hugojourdan.ColorFlow = {
"0" = 0;
"1" = 0;
"10" = 0;
"11" = 0;
"2" = 0;
"3" = 0;
"4" = 0;
"5" = 0;
"6" = 0;
"7" = 0;
"8" = 0;
"9" = 0;
};
};
width = 683;
},
{
anchors = (
{
name = top;
pos = (368,700);
}
);
layerId = m006;
shapes = (
{
closed = 1;
nodes = (
(228,0,l),
(228,530,l),
(191,522,l),
(431,0,l),
(640,0,l),
(640,700,l),
(463,700,l),
(463,178,l),
(500,186,l),
(265,700,l),
(51,700,l),
(51,0,l)
);
}
);
userData = {
com.hugojourdan.ColorFlow = {
"0" = 0;
"1" = 0;
"10" = 0;
"11" = 0;
"2" = 0;
"3" = 0;
"4" = 0;
"5" = 0;
"6" = 0;
"7" = 0;
"8" = 0;
"9" = 0;
};
};
width = 691;
}
);
metricLeft = "=H";
metricRight = "=|";
note = N;
unicode = 78;
},
{
glyphname = O;
kernLeft = KO_O;
kernRight = KO_O;
lastChange = "2023-06-15 10:22:50 +0000";
layers = (
{
anchors = (
{
name = center;
pos = (337,350);
},
{
name = top;
pos = (337,700);
}
);
layerId = m01;
metricLeft = "=H*0.69";
shapes = (
{
closed = 1;
nodes = (
(508,-10,o),
(604,119,o),
(604,350,cs),
(604,581,o),
(508,710,o),
(337,710,cs),
(166,710,o),
(70,581,o),
(70,350,cs),
(70,119,o),
(166,-10,o),
(337,-10,cs)
);
},
{
closed = 1;
nodes = (
(200,22,o),
(123,140,o),
(123,350,cs),
(123,560,o),
(200,678,o),
(337,678,cs),
(474,678,o),
(551,560,o),
(551,350,cs),
(551,140,o),
(474,22,o),
(337,22,cs)
);
}
);
userData = {
com.hugojourdan.ColorFlow = {
"0" = 0;
"1" = 0;
"10" = 0;
"11" = 0;
"2" = 0;
"3" = 0;
"4" = 0;
"5" = 0;
"6" = 0;
"7" = 0;
"8" = 0;
"9" = 0;
};
};
width = 674;
},
{
anchors = (
{
name = center;
pos = (344,350);
},
{
name = top;
pos = (344,700);
}
);
layerId = "FF73925E-1E34-445B-881D-5A7CAAA8E8BE";
metricLeft = "=H*0.69";
shapes = (
{
closed = 1;
nodes = (
(552,-10,o),
(653,109,o),
(653,350,cs),
(653,591,o),
(552,710,o),
(347,710,cs),
(138,710,o),
(35,591,o),
(35,350,cs),
(35,110,o),
(139,-10,o),
(347,-10,cs)
);
},
{
closed = 1;
nodes = (
(270,84,o),
(233,172,o),
(233,350,cs),
(233,528,o),
(270,616,o),
(345,616,cs),
(419,616,o),
(455,529,o),
(455,350,cs),
(455,172,o),
(419,84,o),
(345,84,cs)
);
}
);
userData = {
com.hugojourdan.ColorFlow = {
"0" = 0;
"1" = 0;
"10" = 0;
"11" = 0;
"2" = 0;
"3" = 0;
"4" = 0;
"5" = 0;
"6" = 0;
"7" = 0;
"8" = 0;
"9" = 0;
};
};
width = 688;
},
{
anchors = (
{
name = center;
pos = (345,350);
},
{
name = top;
pos = (345,700);
}
);
layerId = "BF6BA5B2-0556-42F4-A103-614BEBF16A1A";
metricLeft = "=H*0.69";
shapes = (
{
closed = 1;
nodes = (
(528,-10,o),
(629,118,o),
(629,350,cs),
(629,586,o),
(531,710,o),
(345,710,cs),
(162,710,o),
(61,582,o),
(61,350,cs),
(61,113,o),
(158,-10,o),
(345,-10,cs)
);
},
{
closed = 1;
nodes = (
(226,41,o),
(169,141,o),
(169,351,cs),
(169,560,o),
(226,659,o),
(345,659,cs),
(463,659,o),
(521,558,o),
(521,351,cs),
(521,143,o),
(463,41,o),
(345,41,cs)
);
}
);
userData = {
com.hugojourdan.ColorFlow = {
"0" = 0;
"1" = 0;
"10" = 0;
"11" = 0;
"2" = 0;
"3" = 0;
"4" = 0;
"5" = 0;
"6" = 0;
"7" = 0;
"8" = 0;
"9" = 0;
};
};
width = 690;
},
{
anchors = (
{
name = center;
pos = (337,350);
},
{
name = top;
pos = (337,700);
}
);
layerId = m004;
metricLeft = "=H*0.69";
shapes = (
{
closed = 1;
nodes = (
(508,-10,o),
(604,119,o),
(604,350,cs),
(604,581,o),
(508,710,o),
(337,710,cs),
(166,710,o),
(70,581,o),
(70,350,cs),
(70,119,o),
(166,-10,o),
(337,-10,cs)
);
},
{
closed = 1;
nodes = (
(200,32,o),
(123,147,o),
(123,350,cs),
(123,553,o),
(200,668,o),
(337,668,cs),
(474,668,o),
(551,553,o),
(551,350,cs),
(551,147,o),
(474,32,o),
(337,32,cs)
);
}
);
userData = {
com.hugojourdan.ColorFlow = {
"0" = 0;
"1" = 0;
"10" = 0;
"11" = 0;
"2" = 0;
"3" = 0;
"4" = 0;
"5" = 0;
"6" = 0;
"7" = 0;
"8" = 0;
"9" = 0;
};
};
width = 674;
},
{
anchors = (
{
name = center;
pos = (344,350);
},
{
name = top;
pos = (344,700);
}
);
layerId = m005;
metricLeft = "=H*0.69";
shapes = (
{
closed = 1;
nodes = (
(528,-10,o),
(627,116,o),
(627,350,cs),
(627,585,o),
(528,710,o),
(344,710,cs),
(159,710,o),
(61,585,o),
(61,350,cs),
(61,115,o),
(160,-10,o),
(344,-10,cs)
);
},
{
closed = 1;
nodes = (
(230,75,o),
(169,171,o),
(169,350,cs),
(169,529,o),
(230,625,o),
(344,625,cs),
(457,625,o),
(519,529,o),
(519,350,cs),
(519,171,o),
(457,75,o),
(344,75,cs)
);
}
);
userData = {
com.hugojourdan.ColorFlow = {
"0" = 0;
"1" = 0;
"10" = 0;
"11" = 0;
"2" = 0;
"3" = 0;
"4" = 0;
"5" = 0;
"6" = 0;
"7" = 0;
"8" = 0;
"9" = 0;
};
};
width = 688;
},
{
anchors = (
{
name = center;
pos = (345,350);
},
{
name = top;
pos = (345,700);
}
);
layerId = m006;
metricLeft = "=H*0.69";
shapes = (
{
closed = 1;
nodes = (
(552,-10,o),
(653,110,o),
(653,351,cs),
(653,591,o),
(552,710,o),
(347,710,cs),
(138,710,o),
(35,591,o),
(35,351,cs),
(35,110,o),
(138,-10,o),
(347,-10,cs)
);
},
{
closed = 1;
nodes = (
(270,143,o),
(233,212,o),
(233,351,cs),
(233,490,o),
(270,557,o),
(345,557,cs),
(419,557,o),
(455,490,o),
(455,351,cs),
(455,210,o),
(419,143,o),
(345,143,cs)
);
}
);
userData = {
com.hugojourdan.ColorFlow = {
"0" = 0;
"1" = 0;
"10" = 0;
"11" = 0;
"2" = 0;
"3" = 0;
"4" = 0;
"5" = 0;
"6" = 0;
"7" = 0;
"8" = 0;
"9" = 0;
};
};
width = 688;
}
);
metricRight = "=|";
note = O;
unicode = 79;
},
{
glyphname = OE;
kernLeft = KO_O;
kernRight = KO_E;
lastChange = "2023-06-15 07:55:49 +0000";
layers = (
{
layerId = m01;
shapes = (
{
closed = 1;
nodes = (
(503,-10,o),
(599,119,o),
(599,350,cs),
(599,581,o),
(505,710,o),
(337,710,cs),
(166,710,o),
(70,581,o),
(70,350,cs),
(70,119,o),
(165,-10,o),
(332,-10,cs)
);
},
{
closed = 1;
nodes = (
(200,22,o),
(123,140,o),
(123,350,cs),
(123,560,o),
(200,678,o),
(337,678,cs),
(474,678,o),
(551,560,o),
(551,350,cs),
(551,140,o),
(474,22,o),
(337,22,cs)
);
},
{
closed = 1;
nodes = (
(932,0,l),
(932,32,l),
(575,32,l),
(599,8,l),
(599,692,l),
(575,668,l),
(919,668,l),
(919,700,l),
(551,700,l),
(551,0,l)
);
},
{
closed = 1;
nodes = (
(899,348,l),
(899,378,l),
(575,378,l),
(575,348,l)
);
}
);
userData = {
com.hugojourdan.ColorFlow = {
"0" = 0;
"1" = 0;
"10" = 0;
"11" = 0;
"2" = 0;
"3" = 0;
"4" = 0;
"5" = 0;
"6" = 0;
"7" = 0;
"8" = 0;
"9" = 0;
};
};
width = 978;
},
{
layerId = "BF6BA5B2-0556-42F4-A103-614BEBF16A1A";
shapes = (
{
closed = 1;
nodes = (
(511,-10,o),
(604,116,o),
(604,350,cs),
(604,587,o),
(513,710,o),
(339,710,cs),
(161,710,o),
(61,581,o),
(61,350,cs),
(61,114,o),
(157,-10,o),
(339,-10,cs)
);
},
{
closed = 1;
nodes = (
(226,41,o),
(169,141,o),
(169,351,cs),
(169,560,o),
(226,659,o),
(345,659,cs),
(463,659,o),
(521,558,o),
(521,351,cs),
(521,143,o),
(463,41,o),
(345,41,cs)
);
},
{
closed = 1;
nodes = (
(924,0,l),
(924,52,l),
(579,52,l),
(618,13,l),
(618,687,l),
(579,648,l),
(912,648,l),
(912,700,l),
(521,700,l),
(521,0,l)
);
},
{
closed = 1;
nodes = (
(891,339,l),
(891,387,l),
(569,387,l),
(569,339,l)
);
}
);
userData = {
com.hugojourdan.ColorFlow = {
"0" = 0;
"1" = 0;
"10" = 0;
"11" = 0;
"2" = 0;
"3" = 0;
"4" = 0;
"5" = 0;
"6" = 0;
"7" = 0;
"8" = 0;
"9" = 0;
};
};
width = 964;
},
{
layerId = "FF73925E-1E34-445B-881D-5A7CAAA8E8BE";
shapes = (
{
closed = 1;
nodes = (
(464,-10,o),
(553,125,o),
(553,350,cs),
(553,576,o),
(464,710,o),
(315,710,cs),
(132,710,o),
(35,585,o),
(35,350,cs),
(35,116,o),
(133,-10,o),
(315,-10,cs)
);
},
{
closed = 1;
nodes = (
(270,84,o),
(233,172,o),
(233,350,cs),
(233,528,o),
(270,616,o),
(345,616,cs),
(419,616,o),
(455,529,o),
(455,350,cs),
(455,172,o),
(419,84,o),
(345,84,cs)
);
},
{
closed = 1;
nodes = (
(896,0,l),
(896,90,l),
(588,90,l),
(633,45,l),
(633,655,l),
(588,610,l),
(886,610,l),
(886,700,l),
(455,700,l),
(455,0,l)
);
},
{
closed = 1;
nodes = (
(863,323,l),
(863,403,l),
(544,403,l),
(544,323,l)
);
}
);
userData = {
com.hugojourdan.ColorFlow = {
"0" = 0;
"1" = 0;
"10" = 0;
"11" = 0;
"2" = 0;
"3" = 0;
"4" = 0;
"5" = 0;
"6" = 0;
"7" = 0;
"8" = 0;
"9" = 0;
};
};
width = 919;
},
{
layerId = m004;
shapes = (
{
closed = 1;
nodes = (
(505,-10,o),
(599,119,o),
(599,350,cs),
(599,581,o),
(505,710,o),
(337,710,cs),
(166,710,o),
(70,581,o),
(70,350,cs),
(70,119,o),
(166,-10,o),
(337,-10,cs)
);
},
{
closed = 1;
nodes = (
(200,32,o),
(123,147,o),
(123,350,cs),
(123,553,o),
(200,668,o),
(337,668,cs),
(474,668,o),
(551,553,o),
(551,350,cs),
(551,147,o),
(474,32,o),
(337,32,cs)
);
},
{
closed = 1;
nodes = (
(932,0,l),
(932,40,l),
(575,40,l),
(599,16,l),
(599,684,l),
(575,660,l),
(919,660,l),
(919,700,l),
(551,700,l),
(551,0,l)
);
},
{
closed = 1;
nodes = (
(899,343,l),
(899,383,l),
(575,383,l),
(575,343,l)
);
}
);
userData = {
com.hugojourdan.ColorFlow = {
"0" = 0;
"1" = 0;
"10" = 0;
"11" = 0;
"2" = 0;
"3" = 0;
"4" = 0;
"5" = 0;
"6" = 0;
"7" = 0;
"8" = 0;
"9" = 0;
};
};
width = 978;
},
{
layerId = m005;
shapes = (
{
closed = 1;
nodes = (
(514,-10,o),
(605,114,o),
(605,350,cs),
(605,586,o),
(514,710,o),
(340,710,cs),
(159,710,o),
(61,584,o),
(61,350,cs),
(61,117,o),
(159,-10,o),
(340,-10,cs)
);
},
{
closed = 1;
nodes = (
(232,75,o),
(170,172,o),
(170,350,cs),
(170,528,o),
(232,625,o),
(345,625,cs),
(458,625,o),
(519,529,o),
(519,350,cs),
(519,171,o),
(458,75,o),
(345,75,cs)
);
},
{
closed = 1;
nodes = (
(927,0,l),
(927,77,l),
(577,77,l),
(617,38,l),
(617,662,l),
(577,623,l),
(915,623,l),
(915,700,l),
(519,700,l),
(519,0,l)
);
},
{
closed = 1;
nodes = (
(892,326,l),
(892,400,l),
(567,400,l),
(567,326,l)
);
}
);
userData = {
com.hugojourdan.ColorFlow = {
"0" = 0;
"1" = 0;
"10" = 0;
"11" = 0;
"2" = 0;
"3" = 0;
"4" = 0;
"5" = 0;
"6" = 0;
"7" = 0;
"8" = 0;
"9" = 0;
};
};
width = 967;
},
{
layerId = m006;
shapes = (
{
closed = 1;
nodes = (
(480,-10,o),
(553,104,o),
(553,351,cs),
(553,597,o),
(480,710,o),
(321,710,cs),
(134,710,o),
(35,586,o),
(35,351,cs),
(35,115,o),
(134,-10,o),
(321,-10,cs)
);
},
{
closed = 1;
nodes = (
(270,143,o),
(233,212,o),
(233,351,cs),
(233,489,o),
(270,557,o),
(345,557,cs),
(419,557,o),
(455,490,o),
(455,351,cs),
(455,211,o),
(419,143,o),
(345,143,cs)
);
},
{
closed = 1;
nodes = (
(906,0,l),
(906,136,l),
(588,136,l),
(633,91,l),
(633,609,l),
(588,564,l),
(896,564,l),
(896,700,l),
(455,700,l),
(455,0,l)
);
},
{
closed = 1;
nodes = (
(873,298,l),
(873,428,l),
(544,428,l),
(544,298,l)
);
}
);
userData = {
com.hugojourdan.ColorFlow = {
"0" = 0;
"1" = 0;
"10" = 0;
"11" = 0;
"2" = 0;
"3" = 0;
"4" = 0;
"5" = 0;
"6" = 0;
"7" = 0;
"8" = 0;
"9" = 0;
};
};
width = 929;
}
);
metricLeft = "=O";
metricRight = "=E";
unicode = 338;
},
{
glyphname = P;
kernLeft = KO_H;
kernRight = KO_P;
lastChange = "2023-06-15 07:55:49 +0000";
layers = (
{
layerId = m01;
shapes = (
{
closed = 1;
nodes = (
(150,0,l),
(150,692,l),
(126,668,l),
(254,668,ls),
(396,668,o),
(476,607,o),
(476,497,cs),
(476,387,o),
(396,325,o),
(254,325,cs),
(126,325,l),
(126,293,l),
(256,293,ls),
(430,293,o),
(528,366,o),
(528,497,cs),
(528,627,o),
(430,700,o),
(256,700,cs),
(102,700,l),
(102,0,l)
);
}
);
userData = {
com.hugojourdan.ColorFlow = {
"0" = 0;
"1" = 0;
"10" = 0;
"11" = 0;
"2" = 0;
"3" = 0;
"4" = 0;
"5" = 0;
"6" = 0;
"7" = 0;
"8" = 0;
"9" = 0;
};
};
width = 598;
},
{
layerId = "FF73925E-1E34-445B-881D-5A7CAAA8E8BE";
shapes = (
{
closed = 1;
nodes = (
(228,0,l),
(228,655,l),
(183,610,l),
(270,610,ls),
(359,610,o),
(408,564,o),
(408,481,cs),
(408,398,o),
(359,352,o),
(270,352,cs),
(140,352,l),
(140,263,l),
(280,263,ls),
(477,263,o),
(587,342,o),
(587,482,cs),
(587,622,o),
(477,700,o),
(280,700,cs),
(51,700,l),
(51,0,l)
);
}
);
userData = {
com.hugojourdan.ColorFlow = {
"0" = 0;
"1" = 0;
"10" = 0;
"11" = 0;
"2" = 0;
"3" = 0;
"4" = 0;
"5" = 0;
"6" = 0;
"7" = 0;
"8" = 0;
"9" = 0;
};
};
width = 622;
},
{
layerId = "BF6BA5B2-0556-42F4-A103-614BEBF16A1A";
shapes = (
{
closed = 1;
nodes = (
(186,0,l),
(186,688,l),
(150,652,l),
(276,652,ls),
(393,652,o),
(462,593,o),
(462,491,cs),
(462,388,o),
(394,329,o),
(276,329,cs),
(137,329,l),
(137,281,l),
(281,281,ls),
(460,281,o),
(562,357,o),
(562,491,cs),
(562,624,o),
(460,700,o),
(281,700,cs),
(88,700,l),
(88,0,l)
);
}
);
userData = {
com.hugojourdan.ColorFlow = {
"0" = 0;
"1" = 0;
"10" = 0;
"11" = 0;
"2" = 0;
"3" = 0;
"4" = 0;
"5" = 0;
"6" = 0;
"7" = 0;
"8" = 0;
"9" = 0;
};
};
width = 623;
},
{
layerId = m004;
shapes = (
{
closed = 1;
nodes = (
(150,0,l),
(150,682,l),
(126,658,l),
(254,658,ls),
(396,658,o),
(476,600,o),
(476,497,cs),
(476,393,o),
(396,335,o),
(254,335,cs),
(126,335,l),
(126,293,l),
(256,293,ls),
(430,293,o),
(528,366,o),
(528,497,cs),
(528,627,o),
(430,700,o),
(256,700,cs),
(102,700,l),
(102,0,l)
);
}
);
userData = {
com.hugojourdan.ColorFlow = {
"0" = 0;
"1" = 0;
"10" = 0;
"11" = 0;
"2" = 0;
"3" = 0;
"4" = 0;
"5" = 0;
"6" = 0;
"7" = 0;
"8" = 0;
"9" = 0;
};
};
width = 598;
},
{
layerId = m005;
shapes = (
{
closed = 1;
nodes = (
(186,0,l),
(186,658,l),
(150,622,l),
(282,622,ls),
(396,622,o),
(456,574,o),
(456,491,cs),
(456,407,o),
(396,359,o),
(282,359,cs),
(137,359,l),
(137,281,l),
(279,281,ls),
(462,281,o),
(557,357,o),
(557,491,cs),
(557,625,o),
(462,700,o),
(279,700,cs),
(88,700,l),
(88,0,l)
);
}
);
userData = {
com.hugojourdan.ColorFlow = {
"0" = 0;
"1" = 0;
"10" = 0;
"11" = 0;
"2" = 0;
"3" = 0;
"4" = 0;
"5" = 0;
"6" = 0;
"7" = 0;
"8" = 0;
"9" = 0;
};
};
width = 618;
},
{
layerId = m006;
shapes = (
{
closed = 1;
nodes = (
(228,0,l),
(228,609,l),
(183,564,l),
(310,564,ls),
(379,564,o),
(408,534,o),
(408,481,cs),
(408,428,o),
(379,398,o),
(310,398,cs),
(212,398,l),
(212,263,l),
(300,263,ls),
(497,263,o),
(587,342,o),
(587,482,cs),
(587,622,o),
(497,700,o),
(300,700,cs),
(51,700,l),
(51,0,l)
);
}
);
userData = {
com.hugojourdan.ColorFlow = {
"0" = 0;
"1" = 0;
"10" = 0;
"11" = 0;
"2" = 0;
"3" = 0;
"4" = 0;
"5" = 0;
"6" = 0;
"7" = 0;
"8" = 0;
"9" = 0;
};
};
width = 622;
}
);
metricLeft = "=H";
metricRight = "=O";
note = P;
unicode = 80;
},
{
glyphname = Thorn;
kernLeft = KO_H;
lastChange = "2023-06-15 07:55:49 +0000";
layers = (
{
layerId = m01;
shapes = (
{
closed = 1;
nodes = (
(256,147,ls),
(430,147,o),
(528,220,o),
(528,351,cs),
(528,481,o),
(430,554,o),
(256,554,cs),
(126,554,l),
(126,522,l),
(254,522,ls),
(396,522,o),
(476,461,o),
(476,351,cs),
(476,241,o),
(396,179,o),
(254,179,cs),
(126,179,l),
(126,147,l)
);
},
{
closed = 1;
nodes = (
(150,0,l),
(150,700,l),
(102,700,l),
(102,0,l)
);
}
);
userData = {
com.hugojourdan.ColorFlow = {
"0" = 0;
"1" = 0;
"10" = 0;
"11" = 0;
"2" = 0;
"3" = 0;
"4" = 0;
"5" = 0;
"6" = 0;
"7" = 0;
"8" = 0;
"9" = 0;
};
};
width = 598;
},
{
layerId = "BF6BA5B2-0556-42F4-A103-614BEBF16A1A";
shapes = (
{
closed = 1;
nodes = (
(281,141,ls),
(460,141,o),
(562,217,o),
(562,351,cs),
(562,484,o),
(460,560,o),
(281,560,cs),
(140,560,l),
(140,512,l),
(276,512,ls),
(393,512,o),
(462,453,o),
(462,351,cs),
(462,248,o),
(394,189,o),
(276,189,cs),
(140,189,l),
(140,141,l)
);
},
{
closed = 1;
nodes = (
(186,0,l),
(186,700,l),
(88,700,l),
(88,0,l)
);
}
);
userData = {
com.hugojourdan.ColorFlow = {
"0" = 0;
"1" = 0;
"10" = 0;
"11" = 0;
"2" = 0;
"3" = 0;
"4" = 0;
"5" = 0;
"6" = 0;
"7" = 0;
"8" = 0;
"9" = 0;
};
};
width = 623;
},
{
layerId = "FF73925E-1E34-445B-881D-5A7CAAA8E8BE";
shapes = (
{
closed = 1;
nodes = (
(280,132,ls),
(477,132,o),
(587,211,o),
(587,351,cs),
(587,491,o),
(477,569,o),
(280,569,cs),
(140,569,l),
(140,479,l),
(270,479,ls),
(359,479,o),
(408,433,o),
(408,350,cs),
(408,267,o),
(359,221,o),
(270,221,cs),
(140,221,l),
(140,132,l)
);
},
{
closed = 1;
nodes = (
(228,0,l),
(228,700,l),
(51,700,l),
(51,0,l)
);
}
);
userData = {
com.hugojourdan.ColorFlow = {
"0" = 0;
"1" = 0;
"10" = 0;
"11" = 0;
"2" = 0;
"3" = 0;
"4" = 0;
"5" = 0;
"6" = 0;
"7" = 0;
"8" = 0;
"9" = 0;
};
};
width = 622;
},
{
layerId = m004;
shapes = (
{
closed = 1;
nodes = (
(256,147,ls),
(430,147,o),
(528,220,o),
(528,351,cs),
(528,481,o),
(430,554,o),
(256,554,cs),
(126,554,l),
(126,512,l),
(254,512,ls),
(397,512,o),
(476,454,o),
(476,351,cs),
(476,247,o),
(396,189,o),
(254,189,cs),
(126,189,l),
(126,147,l)
);
},
{
closed = 1;
nodes = (
(150,0,l),
(150,700,l),
(102,700,l),
(102,0,l)
);
}
);
userData = {
com.hugojourdan.ColorFlow = {
"0" = 0;
"1" = 0;
"10" = 0;
"11" = 0;
"2" = 0;
"3" = 0;
"4" = 0;
"5" = 0;
"6" = 0;
"7" = 0;
"8" = 0;
"9" = 0;
};
};
width = 598;
},
{
layerId = m005;
shapes = (
{
closed = 1;
nodes = (
(281,141,ls),
(460,141,o),
(562,217,o),
(562,351,cs),
(562,484,o),
(460,560,o),
(281,560,cs),
(140,560,l),
(140,482,l),
(276,482,ls),
(393,482,o),
(462,434,o),
(462,351,cs),
(462,267,o),
(394,219,o),
(276,219,cs),
(140,219,l),
(140,141,l)
);
},
{
closed = 1;
nodes = (
(186,0,l),
(186,700,l),
(88,700,l),
(88,0,l)
);
}
);
userData = {
com.hugojourdan.ColorFlow = {
"0" = 0;
"1" = 0;
"10" = 0;
"11" = 0;
"2" = 0;
"3" = 0;
"4" = 0;
"5" = 0;
"6" = 0;
"7" = 0;
"8" = 0;
"9" = 0;
};
};
width = 623;
},
{
layerId = m006;
shapes = (
{
closed = 1;
nodes = (
(280,132,ls),
(477,132,o),
(587,211,o),
(587,351,cs),
(587,491,o),
(477,569,o),
(280,569,cs),
(140,569,l),
(140,433,l),
(270,433,ls),
(359,433,o),
(408,403,o),
(408,350,cs),
(408,297,o),
(359,267,o),
(270,267,cs),
(140,267,l),
(140,132,l)
);
},
{
closed = 1;
nodes = (
(228,0,l),
(228,700,l),
(51,700,l),
(51,0,l)
);
}
);
userData = {
com.hugojourdan.ColorFlow = {
"0" = 0;
"1" = 0;
"10" = 0;
"11" = 0;
"2" = 0;
"3" = 0;
"4" = 0;
"5" = 0;
"6" = 0;
"7" = 0;
"8" = 0;
"9" = 0;
};
};
width = 622;
}
);
metricLeft = "=H";
metricRight = "=O";
unicode = 222;
},
{
glyphname = Q;
kernLeft = KO_O;
kernRight = KO_Q;
lastChange = "2023-06-15 06:34:53 +0000";
layers = (
{
layerId = m01;
shapes = (
{
closed = 1;
nodes = (
(594,-120,l),
(325,197,l),
(302,174,l),
(552,-148,l)
);
},
{
ref = O;
}
);
userData = {
com.hugojourdan.ColorFlow = {
"0" = 0;
"1" = 0;
"10" = 0;
"11" = 0;
"2" = 0;
"3" = 0;
"4" = 0;
"5" = 0;
"6" = 0;
"7" = 0;
"8" = 0;
"9" = 0;
};
};
width = 684;
},
{
layerId = "FF73925E-1E34-445B-881D-5A7CAAA8E8BE";
shapes = (
{
closed = 1;
nodes = (
(672,-114,l),
(351,208,l),
(313,177,l),
(585,-188,l)
);
},
{
ref = O;
}
);
userData = {
com.hugojourdan.ColorFlow = {
"0" = 0;
"1" = 0;
"10" = 0;
"11" = 0;
"2" = 0;
"3" = 0;
"4" = 0;
"5" = 0;
"6" = 0;
"7" = 0;
"8" = 0;
"9" = 0;
};
};
width = 714;
},
{
layerId = "BF6BA5B2-0556-42F4-A103-614BEBF16A1A";
shapes = (
{
closed = 1;
nodes = (
(611,-103,l),
(337,202,l),
(301,178,l),
(547,-145,l)
);
},
{
ref = O;
}
);
userData = {
com.hugojourdan.ColorFlow = {
"0" = 0;
"1" = 0;
"10" = 0;
"11" = 0;
"2" = 0;
"3" = 0;
"4" = 0;
"5" = 0;
"6" = 0;
"7" = 0;
"8" = 0;
"9" = 0;
};
};
width = 696;
},
{
layerId = m004;
shapes = (
{
closed = 1;
nodes = (
(594,-120,l),
(325,197,l),
(302,174,l),
(552,-148,l)
);
},
{
ref = O;
}
);
userData = {
com.hugojourdan.ColorFlow = {
"0" = 0;
"1" = 0;
"10" = 0;
"11" = 0;
"2" = 0;
"3" = 0;
"4" = 0;
"5" = 0;
"6" = 0;
"7" = 0;
"8" = 0;
"9" = 0;
};
};
width = 684;
},
{
layerId = m005;
shapes = (
{
closed = 1;
nodes = (
(623,-98,l),
(352,228,l),
(305,188,l),
(551,-149,l)
);
},
{
alignment = -1;
ref = O;
}
);
userData = {
com.hugojourdan.ColorFlow = {
"0" = 0;
"1" = 0;
"10" = 0;
"11" = 0;
"2" = 0;
"3" = 0;
"4" = 0;
"5" = 0;
"6" = 0;
"7" = 0;
"8" = 0;
"9" = 0;
};
};
width = 696;
},
{
layerId = m006;
shapes = (
{
closed = 1;
nodes = (
(668,-62,l),
(396,277,l),
(309,211,l),
(549,-150,l)
);
},
{
ref = O;
}
);
userData = {
com.hugojourdan.ColorFlow = {
"0" = 0;
"1" = 0;
"10" = 0;
"11" = 0;
"2" = 0;
"3" = 0;
"4" = 0;
"5" = 0;
"6" = 0;
"7" = 0;
"8" = 0;
"9" = 0;
};
};
width = 714;
}
);
note = Q;
unicode = 81;
},
{
glyphname = R;
kernLeft = KO_H;
kernRight = KO_R;
lastChange = "2023-06-15 07:55:49 +0000";
layers = (
{
layerId = m01;
shapes = (
{
closed = 1;
nodes = (
(150,0,l),
(150,668,l),
(254,668,ls),
(396,668,o),
(476,612,o),
(476,512,cs),
(476,415,o),
(396,360,o),
(254,360,cs),
(142,360,l),
(142,328,l),
(256,328,ls),
(430,328,o),
(528,394,o),
(528,512,cs),
(528,633,o),
(431,700,o),
(256,700,cs),
(102,700,l),
(102,0,l)
);
},
{
closed = 1;
nodes = (
(561,0,l),
(294,347,l),
(238,347,l),
(501,0,l)
);
}
);
userData = {
com.hugojourdan.ColorFlow = {
"0" = 0;
"1" = 0;
"10" = 0;
"11" = 0;
"2" = 0;
"3" = 0;
"4" = 0;
"5" = 0;
"6" = 0;
"7" = 0;
"8" = 0;
"9" = 0;
};
};
width = 585;
},
{
layerId = "FF73925E-1E34-445B-881D-5A7CAAA8E8BE";
shapes = (
{
closed = 1;
nodes = (
(228,0,l),
(228,610,l),
(270,610,ls),
(359,610,o),
(408,569,o),
(408,496,cs),
(408,424,o),
(358,383,o),
(270,383,cs),
(212,383,l),
(212,293,l),
(280,293,ls),
(477,293,o),
(587,366,o),
(587,497,cs),
(587,627,o),
(477,700,o),
(280,700,cs),
(51,700,l),
(51,0,l)
);
},
{
closed = 1;
nodes = (
(630,0,l),
(423,342,l),
(257,345,l),
(436,0,l)
);
}
);
userData = {
com.hugojourdan.ColorFlow = {
"0" = 0;
"1" = 0;
"10" = 0;
"11" = 0;
"2" = 0;
"3" = 0;
"4" = 0;
"5" = 0;
"6" = 0;
"7" = 0;
"8" = 0;
"9" = 0;
};
};
width = 636;
},
{
layerId = "BF6BA5B2-0556-42F4-A103-614BEBF16A1A";
shapes = (
{
closed = 1;
nodes = (
(186,0,l),
(186,652,l),
(286,652,ls),
(396,652,o),
(455,604,o),
(455,508,cs),
(455,411,o),
(396,363,o),
(286,363,cs),
(174,363,l),
(174,315,l),
(291,315,ls),
(464,315,o),
(555,379,o),
(555,508,cs),
(555,636,o),
(464,700,o),
(291,700,cs),
(88,700,l),
(88,0,l)
);
},
{
closed = 1;
nodes = (
(593,0,l),
(360,332,l),
(260,332,l),
(483,0,l)
);
}
);
userData = {
com.hugojourdan.ColorFlow = {
"0" = 0;
"1" = 0;
"10" = 0;
"11" = 0;
"2" = 0;
"3" = 0;
"4" = 0;
"5" = 0;
"6" = 0;
"7" = 0;
"8" = 0;
"9" = 0;
};
};
width = 611;
},
{
layerId = m004;
shapes = (
{
closed = 1;
nodes = (
(150,0,l),
(150,668,l),
(254,668,ls),
(396,668,o),
(476,612,o),
(476,512,cs),
(476,415,o),
(396,360,o),
(254,360,cs),
(142,360,l),
(142,328,l),
(256,328,ls),
(430,328,o),
(528,394,o),
(528,512,cs),
(528,633,o),
(430,700,o),
(256,700,cs),
(102,700,l),
(102,0,l)
);
},
{
closed = 1;
nodes = (
(561,0,l),
(294,347,l),
(231,347,l),
(500,0,l)
);
}
);
userData = {
com.hugojourdan.ColorFlow = {
"0" = 0;
"1" = 0;
"10" = 0;
"11" = 0;
"2" = 0;
"3" = 0;
"4" = 0;
"5" = 0;
"6" = 0;
"7" = 0;
"8" = 0;
"9" = 0;
};
};
width = 585;
},
{
layerId = m005;
shapes = (
{
closed = 1;
nodes = (
(186,0,l),
(186,628,l),
(276,628,ls),
(397,628,o),
(456,581,o),
(456,497,cs),
(456,414,o),
(397,368,o),
(276,368,cs),
(175,368,l),
(175,296,l),
(277,296,ls),
(460,296,o),
(557,368,o),
(557,497,cs),
(557,627,o),
(460,700,o),
(277,700,cs),
(88,700,l),
(88,0,l)
);
},
{
closed = 1;
nodes = (
(594,0,l),
(353,345,l),
(249,346,l),
(483,0,l)
);
}
);
userData = {
com.hugojourdan.ColorFlow = {
"0" = 0;
"1" = 0;
"10" = 0;
"11" = 0;
"2" = 0;
"3" = 0;
"4" = 0;
"5" = 0;
"6" = 0;
"7" = 0;
"8" = 0;
"9" = 0;
};
};
width = 611;
},
{
layerId = m006;
shapes = (
{
closed = 1;
nodes = (
(229,0,l),
(229,564,l),
(295,564,ls),
(384,564,o),
(409,531,o),
(409,472,cs),
(409,413,o),
(384,380,o),
(295,380,cs),
(213,380,l),
(213,245,l),
(296,245,ls),
(493,245,o),
(588,327,o),
(588,473,cs),
(588,618,o),
(493,700,o),
(296,700,cs),
(51,700,l),
(51,0,l)
);
},
{
closed = 1;
nodes = (
(631,0,l),
(432,342,l),
(262,345,l),
(441,0,l)
);
}
);
userData = {
com.hugojourdan.ColorFlow = {
"0" = 0;
"1" = 0;
"10" = 0;
"11" = 0;
"2" = 0;
"3" = 0;
"4" = 0;
"5" = 0;
"6" = 0;
"7" = 0;
"8" = 0;
"9" = 0;
};
};
width = 637;
}
);
metricLeft = "=H";
note = R;
unicode = 82;
},
{
glyphname = S;
kernLeft = KO_S;
kernRight = KO_S;
lastChange = "2023-06-15 11:15:41 +0000";
layers = (
{
anchors = (
{
name = top;
pos = (265,700);
}
);
guides = (
{
angle = 236.31;
pos = (70,103);
}
);
layerId = m01;
shapes = (
{
closed = 1;
nodes = (
(384,-10,o),
(469,65,o),
(469,176,cs),
(469,303,o),
(366,334,o),
(259,388,cs),
(149,443,o),
(113,481,o),
(113,543,cs),
(113,623,o),
(174,678,o),
(262,678,cs),
(327,678,o),
(387,648,o),
(413,602,c),
(446,637,l),
(404,683,o),
(338,710,o),
(267,710,cs),
(149,710,o),
(64,638,o),
(64,537,cs),
(64,460,o),
(109,409,o),
(231,349,cs),
(318,306,o),
(421,272,o),
(421,169,cs),
(421,86,o),
(351,24,o),
(256,24,cs),
(186,24,o),
(125,65,o),
(90,133,c),
(55,81,l),
(100,24,o),
(177,-10,o),
(260,-10,cs)
);
}
);
userData = {
com.hugojourdan.ColorFlow = {
"0" = 0;
"1" = 0;
"10" = 0;
"11" = 0;
"2" = 0;
"3" = 0;
"4" = 0;
"5" = 0;
"6" = 0;
"7" = 0;
"8" = 0;
"9" = 0;
};
};
width = 539;
},
{
anchors = (
{
name = top;
pos = (277,700);
}
);
guides = (
{
angle = 233.3544;
pos = (57,121);
},
{
angle = 90;
pos = (49,95);
},
{
angle = 90;
pos = (492,601);
},
{
angle = 44.158;
pos = (454,573);
}
);
layerId = "BF6BA5B2-0556-42F4-A103-614BEBF16A1A";
shapes = (
{
closed = 1;
nodes = (
(420,-10,o),
(512,63,o),
(512,172,cs),
(512,299,o),
(385,355,o),
(294,407,cs),
(194,463,o),
(158,503,o),
(158,558,cs),
(158,618,o),
(204,659,o),
(275,659,cs),
(340,659,o),
(389,625,o),
(431,549,c),
(488,604,l),
(438,675,o),
(369,710,o),
(278,710,cs),
(153,710,o),
(65,634,o),
(65,528,cs),
(65,404,o),
(185,355,o),
(279,304,cs),
(381,248,o),
(419,209,o),
(419,153,cs),
(419,87,o),
(367,44,o),
(287,44,cs),
(198,44,o),
(133,95,o),
(105,187,c),
(48,110,l),
(96,36,o),
(186,-10,o),
(284,-10,cs)
);
}
);
userData = {
com.hugojourdan.ColorFlow = {
"0" = 0;
"1" = 0;
"10" = 0;
"11" = 0;
"2" = 0;
"3" = 0;
"4" = 0;
"5" = 0;
"6" = 0;
"7" = 0;
"8" = 0;
"9" = 0;
};
};
width = 573;
},
{
associatedMasterId = "FF73925E-1E34-445B-881D-5A7CAAA8E8BE";
layerId = "01D1DCD4-D6A4-4EDB-B9BC-2A98E82E96A8";
name = "10 Jun 23 12.27 PM";
shapes = (
{
closed = 1;
nodes = (
(416,-10,o),
(510,70,o),
(510,191,cs),
(510,272,o),
(466,326,o),
(339,399,cs),
(241,456,o),
(209,491,o),
(209,542,cs),
(209,587,o),
(232,616,o),
(266,616,cs),
(306,616,o),
(340,574,o),
(367,491,c),
(512,542,l),
(473,647,o),
(383,710,o),
(270,710,cs),
(137,710,o),
(50,626,o),
(50,498,cs),
(50,411,o),
(90,359,o),
(201,303,cs),
(302,252,o),
(334,218,o),
(334,162,cs),
(334,113,o),
(308,80,o),
(269,80,cs),
(224,80,o),
(179,128,o),
(145,211,c),
(16,121,l),
(68,39,o),
(164,-10,o),
(274,-10,cs)
);
}
);
userData = {
com.hugojourdan.ColorFlow = {
"0" = 0;
"1" = 0;
"10" = 0;
"11" = 0;
"2" = 0;
"3" = 0;
"4" = 0;
"5" = 0;
"6" = 0;
"7" = 0;
"8" = 0;
"9" = 0;
};
};
width = 546;
},
{
anchors = (
{
name = top;
pos = (293,700);
}
);
guides = (
{
angle = 90;
pos = (536,599);
},
{
angle = 44.158;
pos = (488,553);
}
);
layerId = "FF73925E-1E34-445B-881D-5A7CAAA8E8BE";
name = Bold;
shapes = (
{
closed = 1;
nodes = (
(450,-10,o),
(549,70,o),
(549,191,cs),
(549,286,o),
(496,350,o),
(369,419,cs),
(261,479,o),
(228,505,o),
(228,548,cs),
(227,595,o),
(255,622,o),
(306,622,cs),
(357,622,o),
(407,580,o),
(448,506,c),
(544,599,l),
(480,675,o),
(403,710,o),
(300,710,cs),
(150,710,o),
(55,629,o),
(55,503,cs),
(55,408,o),
(108,344,o),
(232,275,cs),
(339,215,o),
(372,189,o),
(373,146,cs),
(373,104,o),
(346,80,o),
(298,80,cs),
(239,80,o),
(174,135,o),
(115,234,c),
(27,115,l),
(84,38,o),
(188,-10,o),
(299,-10,cs)
);
}
);
userData = {
com.hugojourdan.ColorFlow = {
"0" = 0;
"1" = 0;
"10" = 0;
"11" = 0;
"2" = 0;
"3" = 0;
"4" = 0;
"5" = 0;
"6" = 0;
"7" = 0;
"8" = 0;
"9" = 0;
};
};
width = 584;
},
{
anchors = (
{
name = top;
pos = (268,700);
}
);
associatedMasterId = "FF73925E-1E34-445B-881D-5A7CAAA8E8BE";
guides = (
{
angle = 151.2602;
pos = (207,285);
}
);
layerId = "D8E4FFE5-BED4-4E71-8FF9-723148DABEAF";
name = "10 Jun 23 10.21 PM";
shapes = (
{
closed = 1;
nodes = (
(416,-10,o),
(510,70,o),
(510,191,cs),
(510,282,o),
(462,344,o),
(344,409,cs),
(223,475,o),
(175,493,o),
(174,562,cs),
(174,614,o),
(211,660,o),
(256,660,cs),
(306,660,o),
(340,603,o),
(367,491,c),
(512,542,l),
(473,647,o),
(383,710,o),
(270,710,cs),
(133,710,o),
(44,628,o),
(44,503,cs),
(44,412,o),
(91,349,o),
(207,285,cs),
(326,220,o),
(373,201,o),
(374,132,cs),
(374,88,o),
(349,40,o),
(279,40,cs),
(224,40,o),
(179,103,o),
(145,211,c),
(16,121,l),
(68,39,o),
(164,-10,o),
(274,-10,cs)
);
}
);
userData = {
com.hugojourdan.ColorFlow = {
"0" = 0;
"1" = 0;
"10" = 0;
"11" = 0;
"2" = 0;
"3" = 0;
"4" = 0;
"5" = 0;
"6" = 0;
"7" = 0;
"8" = 0;
"9" = 0;
};
};
width = 546;
},
{
anchors = (
{
name = top;
pos = (265,700);
}
);
layerId = m004;
shapes = (
{
closed = 1;
nodes = (
(367,-10,o),
(469,50,o),
(469,176,cs),
(469,292,o),
(367,340,o),
(273,384,cs),
(190,423,o),
(113,459,o),
(113,536,cs),
(113,613,o),
(173,668,o),
(262,668,cs),
(327,668,o),
(387,639,o),
(413,602,c),
(446,637,l),
(401,686,o),
(333,710,o),
(267,710,cs),
(164,710,o),
(64,651,o),
(64,537,cs),
(64,430,o),
(160,385,o),
(252,341,cs),
(338,300,o),
(421,261,o),
(421,175,cs),
(421,92,o),
(350,32,o),
(256,32,cs),
(186,32,o),
(121,66,o),
(84,118,c),
(55,81,l),
(103,21,o),
(183,-10,o),
(260,-10,cs)
);
}
);
userData = {
com.hugojourdan.ColorFlow = {
"0" = 0;
"1" = 0;
"10" = 0;
"11" = 0;
"2" = 0;
"3" = 0;
"4" = 0;
"5" = 0;
"6" = 0;
"7" = 0;
"8" = 0;
"9" = 0;
};
};
width = 539;
},
{
anchors = (
{
name = top;
pos = (284,700);
}
);
layerId = m005;
shapes = (
{
closed = 1;
nodes = (
(402,-10,o),
(512,56,o),
(512,190,cs),
(512,319,o),
(402,363,o),
(306,403,cs),
(229,434,o),
(160,462,o),
(160,526,cs),
(160,583,o),
(202,628,o),
(282,628,cs),
(348,628,o),
(406,598,o),
(435,559,c),
(498,622,l),
(447,681,o),
(367,710,o),
(288,710,cs),
(159,710,o),
(63,633,o),
(63,517,cs),
(63,395,o),
(169,352,o),
(264,313,cs),
(344,280,o),
(416,250,o),
(416,181,cs),
(416,117,o),
(359,72,o),
(280,72,cs),
(205,72,o),
(140,111,o),
(109,156,c),
(48,86,l),
(95,28,o),
(180,-10,o),
(281,-10,cs)
);
}
);
userData = {
com.hugojourdan.ColorFlow = {
"0" = 0;
"1" = 0;
"10" = 0;
"11" = 0;
"2" = 0;
"3" = 0;
"4" = 0;
"5" = 0;
"6" = 0;
"7" = 0;
"8" = 0;
"9" = 0;
};
};
width = 573;
},
{
anchors = (
{
name = top;
pos = (283,700);
}
);
layerId = m006;
name = Bold;
shapes = (
{
closed = 1;
nodes = (
(426,-10,o),
(550,66,o),
(550,212,cs),
(550,367,o),
(416,409,o),
(315,441,cs),
(253,460,o),
(203,476,o),
(203,511,cs),
(203,547,o),
(233,565,o),
(273,565,cs),
(319,565,o),
(379,540,o),
(419,490,c),
(530,599,l),
(469,674,o),
(371,710,o),
(291,710,cs),
(119,710,o),
(30,604,o),
(30,486,cs),
(30,331,o),
(164,290,o),
(266,260,cs),
(328,241,o),
(378,226,o),
(378,191,cs),
(378,154,o),
(342,136,o),
(297,136,cs),
(242,136,o),
(173,163,o),
(138,215,c),
(27,95,l),
(71,39,o),
(164,-10,o),
(283,-10,cs)
);
}
);
userData = {
com.hugojourdan.ColorFlow = {
"0" = 0;
"1" = 0;
"10" = 0;
"11" = 0;
"2" = 0;
"3" = 0;
"4" = 0;
"5" = 0;
"6" = 0;
"7" = 0;
"8" = 0;
"9" = 0;
};
};
width = 585;
}
);
metricLeft = "=O*0.78";
metricRight = "=O";
note = S;
unicode = 83;
},
{
glyphname = T;
kernLeft = KO_T;
kernRight = KO_T;
lastChange = "2023-06-15 07:55:49 +0000";
layers = (
{
layerId = m01;
shapes = (
{
closed = 1;
nodes = (
(302,0,l),
(302,668,l),
(522,668,l),
(522,700,l),
(34,700,l),
(34,668,l),
(254,668,l),
(254,0,l)
);
}
);
userData = {
com.hugojourdan.ColorFlow = {
"0" = 0;
"1" = 0;
"10" = 0;
"11" = 0;
"2" = 0;
"3" = 0;
"4" = 0;
"5" = 0;
"6" = 0;
"7" = 0;
"8" = 0;
"9" = 0;
};
};
width = 556;
},
{
layerId = "FF73925E-1E34-445B-881D-5A7CAAA8E8BE";
shapes = (
{
closed = 1;
nodes = (
(377,0,l),
(377,610,l),
(562,610,l),
(562,700,l),
(17,700,l),
(17,610,l),
(202,610,l),
(202,0,l)
);
}
);
userData = {
com.hugojourdan.ColorFlow = {
"0" = 0;
"1" = 0;
"10" = 0;
"11" = 0;
"2" = 0;
"3" = 0;
"4" = 0;
"5" = 0;
"6" = 0;
"7" = 0;
"8" = 0;
"9" = 0;
};
};
width = 579;
},
{
layerId = "BF6BA5B2-0556-42F4-A103-614BEBF16A1A";
shapes = (
{
closed = 1;
nodes = (
(332,0,l),
(332,648,l),
(539,648,l),
(539,700,l),
(29,700,l),
(29,648,l),
(236,648,l),
(236,0,l)
);
}
);
userData = {
com.hugojourdan.ColorFlow = {
"0" = 0;
"1" = 0;
"10" = 0;
"11" = 0;
"2" = 0;
"3" = 0;
"4" = 0;
"5" = 0;
"6" = 0;
"7" = 0;
"8" = 0;
"9" = 0;
};
};
width = 568;
},
{
layerId = m004;
shapes = (
{
closed = 1;
nodes = (
(302,0,l),
(302,660,l),
(522,660,l),
(522,700,l),
(34,700,l),
(34,660,l),
(254,660,l),
(254,0,l)
);
}
);
userData = {
com.hugojourdan.ColorFlow = {
"0" = 0;
"1" = 0;
"10" = 0;
"11" = 0;
"2" = 0;
"3" = 0;
"4" = 0;
"5" = 0;
"6" = 0;
"7" = 0;
"8" = 0;
"9" = 0;
};
};
width = 556;
},
{
layerId = m005;
shapes = (
{
closed = 1;
nodes = (
(333,0,l),
(333,623,l),
(539,623,l),
(539,700,l),
(29,700,l),
(29,623,l),
(236,623,l),
(236,0,l)
);
}
);
userData = {
com.hugojourdan.ColorFlow = {
"0" = 0;
"1" = 0;
"10" = 0;
"11" = 0;
"2" = 0;
"3" = 0;
"4" = 0;
"5" = 0;
"6" = 0;
"7" = 0;
"8" = 0;
"9" = 0;
};
};
width = 568;
},
{
layerId = m006;
shapes = (
{
closed = 1;
nodes = (
(377,0,l),
(377,564,l),
(562,564,l),
(562,700,l),
(17,700,l),
(17,564,l),
(202,564,l),
(202,0,l)
);
}
);
userData = {
com.hugojourdan.ColorFlow = {
"0" = 0;
"1" = 0;
"10" = 0;
"11" = 0;
"2" = 0;
"3" = 0;
"4" = 0;
"5" = 0;
"6" = 0;
"7" = 0;
"8" = 0;
"9" = 0;
};
};
width = 579;
}
);
metricLeft = "=H*0.333";
metricRight = "=|";
note = T;
unicode = 84;
},
{
glyphname = U;
kernLeft = KO_U;
kernRight = KO_U;
lastChange = "2023-06-15 07:55:49 +0000";
layers = (
{
anchors = (
{
name = top;
pos = (322,700);
}
);
layerId = m01;
shapes = (
{
closed = 1;
nodes = (
(468,-10,o),
(541,81,o),
(541,280,cs),
(541,700,l),
(503,700,l),
(503,261,ls),
(503,97,o),
(444,22,o),
(315,22,cs),
(196,22,o),
(141,86,o),
(141,226,cs),
(141,700,l),
(90,700,l),
(90,250,ls),
(90,71,o),
(160,-10,o),
(309,-10,cs)
);
}
);
userData = {
com.hugojourdan.ColorFlow = {
"0" = 0;
"1" = 0;
"10" = 0;
"11" = 0;
"2" = 0;
"3" = 0;
"4" = 0;
"5" = 0;
"6" = 0;
"7" = 0;
"8" = 0;
"9" = 0;
};
};
width = 631;
},
{
anchors = (
{
name = top;
pos = (344,700);
}
);
layerId = "FF73925E-1E34-445B-881D-5A7CAAA8E8BE";
shapes = (
{
closed = 1;
nodes = (
(478,-10,o),
(564,89,o),
(564,288,cs),
(564,700,l),
(443,700,l),
(443,244,ls),
(443,138,o),
(409,84,o),
(340,84,cs),
(276,84,o),
(244,126,o),
(244,208,cs),
(244,700,l),
(45,700,l),
(45,226,ls),
(45,69,o),
(132,-10,o),
(307,-10,cs)
);
}
);
userData = {
com.hugojourdan.ColorFlow = {
"0" = 0;
"1" = 0;
"10" = 0;
"11" = 0;
"2" = 0;
"3" = 0;
"4" = 0;
"5" = 0;
"6" = 0;
"7" = 0;
"8" = 0;
"9" = 0;
};
};
width = 609;
},
{
anchors = (
{
name = top;
pos = (335,700);
}
);
layerId = "BF6BA5B2-0556-42F4-A103-614BEBF16A1A";
shapes = (
{
closed = 1;
nodes = (
(477,-10,o),
(555,84,o),
(555,283,cs),
(555,700,l),
(485,700,l),
(485,249,ls),
(485,105,o),
(436,38,o),
(329,38,cs),
(232,38,o),
(185,94,o),
(185,213,cs),
(185,700,l),
(77,700,l),
(77,241,ls),
(77,72,o),
(154,-10,o),
(313,-10,cs)
);
}
);
userData = {
com.hugojourdan.ColorFlow = {
"0" = 0;
"1" = 0;
"10" = 0;
"11" = 0;
"2" = 0;
"3" = 0;
"4" = 0;
"5" = 0;
"6" = 0;
"7" = 0;
"8" = 0;
"9" = 0;
};
};
width = 632;
},
{
anchors = (
{
name = top;
pos = (322,700);
}
);
layerId = m004;
shapes = (
{
closed = 1;
nodes = (
(468,-10,o),
(541,81,o),
(541,280,cs),
(541,700,l),
(493,700,l),
(493,271,ls),
(493,107,o),
(444,32,o),
(315,32,cs),
(196,32,o),
(138,96,o),
(138,236,cs),
(138,700,l),
(90,700,l),
(90,250,ls),
(90,71,o),
(160,-10,o),
(309,-10,cs)
);
}
);
userData = {
com.hugojourdan.ColorFlow = {
"0" = 0;
"1" = 0;
"10" = 0;
"11" = 0;
"2" = 0;
"3" = 0;
"4" = 0;
"5" = 0;
"6" = 0;
"7" = 0;
"8" = 0;
"9" = 0;
};
};
width = 631;
},
{
anchors = (
{
name = top;
pos = (335,700);
}
);
layerId = m005;
shapes = (
{
closed = 1;
nodes = (
(504,-10,o),
(582,92,o),
(582,282,cs),
(582,700,l),
(476,700,l),
(476,269,ls),
(476,137,o),
(433,75,o),
(329,75,cs),
(232,75,o),
(184,130,o),
(184,248,cs),
(184,700,l),
(77,700,l),
(77,264,ls),
(77,86,o),
(154,-10,o),
(326,-10,cs)
);
}
);
userData = {
com.hugojourdan.ColorFlow = {
"0" = 0;
"1" = 0;
"10" = 0;
"11" = 0;
"2" = 0;
"3" = 0;
"4" = 0;
"5" = 0;
"6" = 0;
"7" = 0;
"8" = 0;
"9" = 0;
};
};
width = 659;
},
{
anchors = (
{
name = top;
pos = (344,700);
}
);
layerId = m006;
shapes = (
{
closed = 1;
nodes = (
(548,-10,o),
(635,109,o),
(635,286,cs),
(635,700,l),
(436,700,l),
(436,267,ls),
(436,185,o),
(404,143,o),
(340,143,cs),
(276,143,o),
(244,185,o),
(244,267,cs),
(244,700,l),
(45,700,l),
(45,286,ls),
(45,109,o),
(132,-10,o),
(340,-10,cs)
);
}
);
userData = {
com.hugojourdan.ColorFlow = {
"0" = 0;
"1" = 0;
"10" = 0;
"11" = 0;
"2" = 0;
"3" = 0;
"4" = 0;
"5" = 0;
"6" = 0;
"7" = 0;
"8" = 0;
"9" = 0;
};
};
width = 680;
}
);
metricLeft = "=H*0.88";
metricRight = "=|";
note = U;
unicode = 85;
},
{
glyphname = V;
kernLeft = KO_V;
kernRight = KO_V;
lastChange = "2023-06-15 12:30:17 +0000";
layers = (
{
layerId = m01;
shapes = (
{
closed = 1;
nodes = (
(296,0,l),
(533,700,l),
(495,700,l),
(272,39,l),
(300,39,l),
(86,700,l),
(32,700,l),
(268,0,l)
);
}
);
userData = {
com.hugojourdan.ColorFlow = {
"0" = 0;
"1" = 0;
"10" = 0;
"11" = 0;
"2" = 0;
"3" = 0;
"4" = 0;
"5" = 0;
"6" = 0;
"7" = 0;
"8" = 0;
"9" = 0;
};
};
width = 565;
},
{
layerId = "FF73925E-1E34-445B-881D-5A7CAAA8E8BE";
shapes = (
{
closed = 1;
nodes = (
(404,0,l),
(600,700,l),
(484,700,l),
(334,136,l),
(357,135,l),
(211,700,l),
(16,700,l),
(213,0,l)
);
}
);
userData = {
com.hugojourdan.ColorFlow = {
"0" = 0;
"1" = 0;
"10" = 0;
"11" = 0;
"2" = 0;
"3" = 0;
"4" = 0;
"5" = 0;
"6" = 0;
"7" = 0;
"8" = 0;
"9" = 0;
};
};
width = 616;
},
{
layerId = "BF6BA5B2-0556-42F4-A103-614BEBF16A1A";
shapes = (
{
closed = 1;
nodes = (
(339,0,l),
(561,700,l),
(493,700,l),
(298,73,l),
(324,73,l),
(136,700,l),
(28,700,l),
(249,0,l)
);
}
);
userData = {
com.hugojourdan.ColorFlow = {
"0" = 0;
"1" = 0;
"10" = 0;
"11" = 0;
"2" = 0;
"3" = 0;
"4" = 0;
"5" = 0;
"6" = 0;
"7" = 0;
"8" = 0;
"9" = 0;
};
};
width = 589;
},
{
layerId = m004;
shapes = (
{
closed = 1;
nodes = (
(307,0,l),
(543,700,l),
(489,700,l),
(274,35,l),
(302,35,l),
(86,700,l),
(32,700,l),
(268,0,l)
);
}
);
userData = {
com.hugojourdan.ColorFlow = {
"0" = 0;
"1" = 0;
"10" = 0;
"11" = 0;
"2" = 0;
"3" = 0;
"4" = 0;
"5" = 0;
"6" = 0;
"7" = 0;
"8" = 0;
"9" = 0;
};
};
width = 575;
},
{
layerId = m005;
shapes = (
{
closed = 1;
nodes = (
(361,0,l),
(593,700,l),
(484,700,l),
(298,80,l),
(324,80,l),
(136,700,l),
(28,700,l),
(260,0,l)
);
}
);
userData = {
com.hugojourdan.ColorFlow = {
"0" = 0;
"1" = 0;
"10" = 0;
"11" = 0;
"2" = 0;
"3" = 0;
"4" = 0;
"5" = 0;
"6" = 0;
"7" = 0;
"8" = 0;
"9" = 0;
};
};
width = 621;
},
{
layerId = m006;
shapes = (
{
closed = 1;
nodes = (
(440,0,l),
(667,700,l),
(472,700,l),
(331,151,l),
(353,151,l),
(211,700,l),
(16,700,l),
(243,0,l)
);
}
);
userData = {
com.hugojourdan.ColorFlow = {
"0" = 0;
"1" = 0;
"10" = 0;
"11" = 0;
"2" = 0;
"3" = 0;
"4" = 0;
"5" = 0;
"6" = 0;
"7" = 0;
"8" = 0;
"9" = 0;
};
};
width = 683;
}
);
metricLeft = "=W*0.88";
metricRight = "=|";
note = V;
unicode = 86;
},
{
glyphname = W;
kernLeft = KO_W;
kernRight = KO_W;
lastChange = "2023-06-15 13:43:14 +0000";
layers = (
{
layerId = m01;
shapes = (
{
closed = 1;
nodes = (
(251,0,l),
(470,658,l),
(431,658,l),
(244,95,l),
(88,700,l),
(36,700,l),
(220,0,l)
);
},
{
closed = 1;
nodes = (
(668,0,l),
(831,700,l),
(794,700,l),
(655,95,l),
(459,700,l),
(408,700,l),
(636,0,l)
);
}
);
userData = {
com.hugojourdan.ColorFlow = {
"0" = 0;
"1" = 0;
"10" = 0;
"11" = 0;
"2" = 0;
"3" = 0;
"4" = 0;
"5" = 0;
"6" = 0;
"7" = 0;
"8" = 0;
"9" = 0;
};
};
width = 867;
},
{
layerId = "FF73925E-1E34-445B-881D-5A7CAAA8E8BE";
shapes = (
{
closed = 1;
nodes = (
(333,1,l),
(532,649,l),
(435,649,l),
(295,189,l),
(204,701,l),
(18,701,l),
(155,1,l)
);
},
{
closed = 1;
nodes = (
(759,1,l),
(895,701,l),
(804,701,l),
(704,189,l),
(562,701,l),
(392,701,l),
(589,1,l)
);
}
);
userData = {
com.hugojourdan.ColorFlow = {
"0" = 0;
"1" = 0;
"10" = 0;
"11" = 0;
"2" = 0;
"3" = 0;
"4" = 0;
"5" = 0;
"6" = 0;
"7" = 0;
"8" = 0;
"9" = 0;
};
};
width = 913;
},
{
layerId = "BF6BA5B2-0556-42F4-A103-614BEBF16A1A";
shapes = (
{
closed = 1;
nodes = (
(285,0,l),
(500,613,l),
(437,613,l),
(266,127,l),
(135,700,l),
(32,700,l),
(198,0,l)
);
},
{
closed = 1;
nodes = (
(706,0,l),
(859,700,l),
(801,700,l),
(676,129,l),
(491,700,l),
(389,700,l),
(617,0,l)
);
}
);
userData = {
com.hugojourdan.ColorFlow = {
"0" = 0;
"1" = 0;
"10" = 0;
"11" = 0;
"2" = 0;
"3" = 0;
"4" = 0;
"5" = 0;
"6" = 0;
"7" = 0;
"8" = 0;
"9" = 0;
};
};
width = 891;
},
{
layerId = m004;
shapes = (
{
closed = 1;
nodes = (
(719,0,l),
(903,700,l),
(851,700,l),
(695,95,l),
(494,700,l),
(445,700,l),
(678,0,l)
);
},
{
closed = 1;
nodes = (
(261,0,l),
(494,700,l),
(445,700,l),
(244,95,l),
(88,700,l),
(36,700,l),
(220,0,l)
);
}
);
userData = {
com.hugojourdan.ColorFlow = {
"0" = 0;
"1" = 0;
"10" = 0;
"11" = 0;
"2" = 0;
"3" = 0;
"4" = 0;
"5" = 0;
"6" = 0;
"7" = 0;
"8" = 0;
"9" = 0;
};
};
width = 939;
},
{
layerId = m005;
shapes = (
{
closed = 1;
nodes = (
(746,0,l),
(937,700,l),
(832,700,l),
(697,155,l),
(530,700,l),
(439,700,l),
(649,0,l)
);
},
{
closed = 1;
nodes = (
(320,0,l),
(530,700,l),
(439,700,l),
(273,155,l),
(138,700,l),
(32,700,l),
(223,0,l)
);
}
);
userData = {
com.hugojourdan.ColorFlow = {
"0" = 0;
"1" = 0;
"10" = 0;
"11" = 0;
"2" = 0;
"3" = 0;
"4" = 0;
"5" = 0;
"6" = 0;
"7" = 0;
"8" = 0;
"9" = 0;
};
};
width = 969;
},
{
layerId = m006;
shapes = (
{
closed = 1;
nodes = (
(795,0,l),
(983,700,l),
(793,700,l),
(676,229,l),
(580,700,l),
(421,700,l),
(596,0,l)
);
},
{
closed = 1;
nodes = (
(405,0,l),
(580,700,l),
(421,700,l),
(325,229,l),
(208,700,l),
(18,700,l),
(206,0,l)
);
}
);
userData = {
com.hugojourdan.ColorFlow = {
"0" = 0;
"1" = 0;
"10" = 0;
"11" = 0;
"2" = 0;
"3" = 0;
"4" = 0;
"5" = 0;
"6" = 0;
"7" = 0;
"8" = 0;
"9" = 0;
};
};
width = 1001;
}
);
metricLeft = "=O*0.517";
metricRight = "=|";
note = W;
unicode = 87;
},
{
glyphname = X;
kernLeft = KO_X;
kernRight = KO_X;
lastChange = "2023-06-15 12:31:01 +0000";
layers = (
{
layerId = m01;
shapes = (
{
closed = 1;
nodes = (
(534,0,l),
(324,351,l),
(525,700,l),
(484,700,l),
(278,341,l),
(478,0,l)
);
},
{
closed = 1;
nodes = (
(91,0,l),
(315,361,l),
(115,700,l),
(59,700,l),
(268,351,l),
(50,0,l)
);
}
);
userData = {
com.hugojourdan.ColorFlow = {
"0" = 0;
"1" = 0;
"10" = 0;
"11" = 0;
"2" = 0;
"3" = 0;
"4" = 0;
"5" = 0;
"6" = 0;
"7" = 0;
"8" = 0;
"9" = 0;
};
};
width = 584;
},
{
layerId = "FF73925E-1E34-445B-881D-5A7CAAA8E8BE";
shapes = (
{
closed = 1;
nodes = (
(588,-1,l),
(378,349,l),
(593,701,l),
(486,701,l),
(240,295,l),
(388,-1,l)
);
},
{
closed = 1;
nodes = (
(132,-1,l),
(378,405,l),
(230,701,l),
(30,701,l),
(240,351,l),
(25,-1,l)
);
}
);
userData = {
com.hugojourdan.ColorFlow = {
"0" = 0;
"1" = 0;
"10" = 0;
"11" = 0;
"2" = 0;
"3" = 0;
"4" = 0;
"5" = 0;
"6" = 0;
"7" = 0;
"8" = 0;
"9" = 0;
};
};
width = 618;
},
{
layerId = "BF6BA5B2-0556-42F4-A103-614BEBF16A1A";
shapes = (
{
closed = 1;
nodes = (
(566,0,l),
(360,364,l),
(574,700,l),
(507,700,l),
(272,332,l),
(455,0,l)
);
},
{
closed = 1;
nodes = (
(112,0,l),
(347,368,l),
(164,700,l),
(53,700,l),
(259,336,l),
(45,0,l)
);
}
);
userData = {
com.hugojourdan.ColorFlow = {
"0" = 0;
"1" = 0;
"10" = 0;
"11" = 0;
"2" = 0;
"3" = 0;
"4" = 0;
"5" = 0;
"6" = 0;
"7" = 0;
"8" = 0;
"9" = 0;
};
};
width = 619;
},
{
layerId = m004;
shapes = (
{
closed = 1;
nodes = (
(553,0,l),
(335,351,l),
(544,700,l),
(488,700,l),
(281,350,l),
(499,0,l)
);
},
{
closed = 1;
nodes = (
(104,0,l),
(322,350,l),
(115,700,l),
(59,700,l),
(268,351,l),
(50,0,l)
);
}
);
userData = {
com.hugojourdan.ColorFlow = {
"0" = 0;
"1" = 0;
"10" = 0;
"11" = 0;
"2" = 0;
"3" = 0;
"4" = 0;
"5" = 0;
"6" = 0;
"7" = 0;
"8" = 0;
"9" = 0;
};
};
width = 603;
},
{
layerId = m005;
shapes = (
{
closed = 1;
nodes = (
(638,1,l),
(411,358,l),
(622,702,l),
(509,702,l),
(306,359,l),
(521,1,l)
);
},
{
closed = 1;
nodes = (
(161,1,l),
(377,359,l),
(173,702,l),
(60,702,l),
(271,358,l),
(45,1,l)
);
}
);
userData = {
com.hugojourdan.ColorFlow = {
"0" = 0;
"1" = 0;
"10" = 0;
"11" = 0;
"2" = 0;
"3" = 0;
"4" = 0;
"5" = 0;
"6" = 0;
"7" = 0;
"8" = 0;
"9" = 0;
};
};
width = 683;
},
{
layerId = m006;
shapes = (
{
closed = 1;
nodes = (
(741,2,l),
(501,370,l),
(715,704,l),
(512,704,l),
(314,373,l),
(524,2,l)
);
},
{
closed = 1;
nodes = (
(241,2,l),
(453,373,l),
(254,704,l),
(50,704,l),
(264,370,l),
(25,2,l)
);
}
);
userData = {
com.hugojourdan.ColorFlow = {
"0" = 0;
"1" = 0;
"10" = 0;
"11" = 0;
"2" = 0;
"3" = 0;
"4" = 0;
"5" = 0;
"6" = 0;
"7" = 0;
"8" = 0;
"9" = 0;
};
};
width = 766;
}
);
metricLeft = "=W*1.4";
metricRight = "=|";
note = X;
unicode = 88;
},
{
glyphname = Y;
kernLeft = KO_Y;
kernRight = KO_Y;
lastChange = "2023-06-15 13:44:03 +0000";
layers = (
{
anchors = (
{
name = top;
pos = (282,700);
}
);
layerId = m01;
shapes = (
{
closed = 1;
nodes = (
(292,0,l),
(292,294,l),
(517,701,l),
(478,701,l),
(275,335,l),
(86,701,l),
(31,701,l),
(244,295,l),
(244,0,l)
);
}
);
userData = {
com.hugojourdan.ColorFlow = {
"0" = 0;
"1" = 0;
"10" = 0;
"11" = 0;
"2" = 0;
"3" = 0;
"4" = 0;
"5" = 0;
"6" = 0;
"7" = 0;
"8" = 0;
"9" = 0;
};
};
width = 537;
},
{
anchors = (
{
name = top;
pos = (343,700);
}
);
layerId = "FF73925E-1E34-445B-881D-5A7CAAA8E8BE";
shapes = (
{
closed = 1;
nodes = (
(383,0,l),
(383,268,l),
(585,701,l),
(470,701,l),
(336,388,l),
(215,701,l),
(15,701,l),
(205,269,l),
(205,0,l)
);
}
);
userData = {
com.hugojourdan.ColorFlow = {
"0" = 0;
"1" = 0;
"10" = 0;
"11" = 0;
"2" = 0;
"3" = 0;
"4" = 0;
"5" = 0;
"6" = 0;
"7" = 0;
"8" = 0;
"9" = 0;
};
};
width = 595;
},
{
anchors = (
{
name = top;
pos = (305,700);
}
);
layerId = "BF6BA5B2-0556-42F4-A103-614BEBF16A1A";
shapes = (
{
closed = 1;
nodes = (
(327,0,l),
(327,285,l),
(543,701,l),
(475,701,l),
(298,352,l),
(135,701,l),
(25,701,l),
(229,285,l),
(229,0,l)
);
}
);
userData = {
com.hugojourdan.ColorFlow = {
"0" = 0;
"1" = 0;
"10" = 0;
"11" = 0;
"2" = 0;
"3" = 0;
"4" = 0;
"5" = 0;
"6" = 0;
"7" = 0;
"8" = 0;
"9" = 0;
};
};
width = 559;
},
{
anchors = (
{
name = top;
pos = (268,700);
}
);
layerId = m004;
shapes = (
{
closed = 1;
nodes = (
(292,0,l),
(292,295,l),
(505,701,l),
(450,701,l),
(268,348,l),
(86,701,l),
(31,701,l),
(244,295,l),
(244,0,l)
);
}
);
userData = {
com.hugojourdan.ColorFlow = {
"0" = 0;
"1" = 0;
"10" = 0;
"11" = 0;
"2" = 0;
"3" = 0;
"4" = 0;
"5" = 0;
"6" = 0;
"7" = 0;
"8" = 0;
"9" = 0;
};
};
width = 537;
},
{
anchors = (
{
name = top;
pos = (286,700);
}
);
layerId = m005;
shapes = (
{
closed = 1;
nodes = (
(335,0,l),
(335,273,l),
(547,701,l),
(436,701,l),
(286,365,l),
(136,701,l),
(25,701,l),
(237,273,l),
(237,0,l)
);
}
);
userData = {
com.hugojourdan.ColorFlow = {
"0" = 0;
"1" = 0;
"10" = 0;
"11" = 0;
"2" = 0;
"3" = 0;
"4" = 0;
"5" = 0;
"6" = 0;
"7" = 0;
"8" = 0;
"9" = 0;
};
};
width = 572;
},
{
anchors = (
{
name = top;
pos = (314,700);
}
);
layerId = m006;
shapes = (
{
closed = 1;
nodes = (
(403,0,l),
(403,239,l),
(613,701,l),
(413,701,l),
(314,393,l),
(215,701,l),
(15,701,l),
(225,239,l),
(225,0,l)
);
}
);
userData = {
com.hugojourdan.ColorFlow = {
"0" = 0;
"1" = 0;
"10" = 0;
"11" = 0;
"2" = 0;
"3" = 0;
"4" = 0;
"5" = 0;
"6" = 0;
"7" = 0;
"8" = 0;
"9" = 0;
};
};
width = 628;
}
);
note = Y;
unicode = 89;
},
{
glyphname = Z;
kernLeft = KO_Z;
kernRight = KO_Z;
lastChange = "2023-06-15 06:34:53 +0000";
layers = (
{
anchors = (
{
name = top;
pos = (281,700);
}
);
layerId = m01;
shapes = (
{
closed = 1;
nodes = (
(489,0,l),
(489,32,l),
(108,32,l),
(108,24,l),
(486,673,l),
(486,700,l),
(75,700,l),
(75,668,l),
(431,668,l),
(431,676,l),
(52,25,l),
(52,0,l)
);
}
);
userData = {
com.hugojourdan.ColorFlow = {
"0" = 0;
"1" = 0;
"10" = 0;
"11" = 0;
"2" = 0;
"3" = 0;
"4" = 0;
"5" = 0;
"6" = 0;
"7" = 0;
"8" = 0;
"9" = 0;
};
};
width = 544;
},
{
anchors = (
{
name = top;
pos = (293,700);
}
);
layerId = "FF73925E-1E34-445B-881D-5A7CAAA8E8BE";
shapes = (
{
closed = 1;
nodes = (
(527,0,l),
(527,88,l),
(194,88,l),
(218,44,l),
(529,627,l),
(529,700,l),
(56,700,l),
(56,612,l),
(370,612,l),
(346,656,l),
(30,70,l),
(30,0,l)
);
}
);
userData = {
com.hugojourdan.ColorFlow = {
"0" = 0;
"1" = 0;
"10" = 0;
"11" = 0;
"2" = 0;
"3" = 0;
"4" = 0;
"5" = 0;
"6" = 0;
"7" = 0;
"8" = 0;
"9" = 0;
};
};
width = 563;
},
{
anchors = (
{
name = top;
pos = (283,700);
}
);
layerId = "BF6BA5B2-0556-42F4-A103-614BEBF16A1A";
shapes = (
{
closed = 1;
nodes = (
(503,0,l),
(503,52,l),
(116,52,l),
(139,13,l),
(502,655,l),
(498,700,l),
(68,700,l),
(68,648,l),
(432,648,l),
(409,687,l),
(44,42,l),
(48,0,l)
);
}
);
userData = {
com.hugojourdan.ColorFlow = {
"0" = 0;
"1" = 0;
"10" = 0;
"11" = 0;
"2" = 0;
"3" = 0;
"4" = 0;
"5" = 0;
"6" = 0;
"7" = 0;
"8" = 0;
"9" = 0;
};
};
width = 551;
},
{
anchors = (
{
name = top;
pos = (281,700);
}
);
layerId = m004;
shapes = (
{
closed = 1;
nodes = (
(489,0,l),
(489,40,l),
(108,40,l),
(108,24,l),
(486,673,l),
(486,700,l),
(75,700,l),
(75,660,l),
(431,660,l),
(431,676,l),
(52,25,l),
(52,0,l)
);
}
);
userData = {
com.hugojourdan.ColorFlow = {
"0" = 0;
"1" = 0;
"10" = 0;
"11" = 0;
"2" = 0;
"3" = 0;
"4" = 0;
"5" = 0;
"6" = 0;
"7" = 0;
"8" = 0;
"9" = 0;
};
};
width = 544;
},
{
anchors = (
{
name = top;
pos = (286,700);
}
);
layerId = m005;
shapes = (
{
closed = 1;
nodes = (
(504,0,l),
(504,77,l),
(141,77,l),
(151,32,l),
(503,655,l),
(503,700,l),
(68,700,l),
(68,623,l),
(407,623,l),
(398,668,l),
(43,42,l),
(43,0,l)
);
}
);
userData = {
com.hugojourdan.ColorFlow = {
"0" = 0;
"1" = 0;
"10" = 0;
"11" = 0;
"2" = 0;
"3" = 0;
"4" = 0;
"5" = 0;
"6" = 0;
"7" = 0;
"8" = 0;
"9" = 0;
};
};
width = 551;
},
{
anchors = (
{
name = top;
pos = (293,700);
}
);
layerId = m006;
shapes = (
{
closed = 1;
nodes = (
(527,0,l),
(527,136,l),
(194,136,l),
(218,44,l),
(529,627,l),
(529,700,l),
(56,700,l),
(56,564,l),
(370,564,l),
(346,656,l),
(30,70,l),
(30,0,l)
);
}
);
userData = {
com.hugojourdan.ColorFlow = {
"0" = 0;
"1" = 0;
"10" = 0;
"11" = 0;
"2" = 0;
"3" = 0;
"4" = 0;
"5" = 0;
"6" = 0;
"7" = 0;
"8" = 0;
"9" = 0;
};
};
width = 563;
}
);
note = Z;
unicode = 90;
},
{
export = 0;
glyphname = S.001;
lastChange = "2023-06-15 09:47:17 +0000";
layers = (
{
anchors = (
{
name = top;
pos = (265,700);
}
);
guides = (
{
angle = 236.31;
pos = (70,104);
},
{
angle = 90;
pos = (55,81);
},
{
angle = 236.31;
pos = (91,104);
},
{
angle = 90;
pos = (446,637);
}
);
layerId = m01;
shapes = (
{
closed = 1;
nodes = (
(384,-10,o),
(469,65,o),
(469,176,cs),
(469,303,o),
(366,334,o),
(259,388,cs),
(149,443,o),
(113,481,o),
(113,543,cs),
(113,623,o),
(174,678,o),
(262,678,cs),
(328,678,o),
(389,643,o),
(415,590,c),
(446,637,l),
(404,683,o),
(338,710,o),
(267,710,cs),
(149,710,o),
(64,638,o),
(64,537,cs),
(64,460,o),
(109,409,o),
(231,349,cs),
(318,306,o),
(421,272,o),
(421,169,cs),
(421,86,o),
(351,24,o),
(256,24,cs),
(186,24,o),
(123,65,o),
(88,131,c),
(55,81,l),
(100,24,o),
(177,-10,o),
(260,-10,cs)
);
}
);
userData = {
com.hugojourdan.ColorFlow = {
"0" = 0;
"1" = 0;
"10" = 0;
"11" = 0;
"2" = 0;
"3" = 0;
"4" = 0;
"5" = 0;
"6" = 0;
"7" = 0;
"8" = 0;
"9" = 0;
};
};
width = 539;
},
{
anchors = (
{
name = top;
pos = (276,700);
}
);
background = {
guides = (
{
angle = 90;
pos = (491,591);
}
);
shapes = (
{
closed = 0;
nodes = (
(416,153,l),
(416,209,o),
(379,249,o),
(278,304,cs),
(187,356,o),
(60,412,o),
(60,540,cs)
);
},
{
closed = 0;
nodes = (
(509,172,l),
(509,300,o),
(382,356,o),
(291,408,cs),
(190,463,o),
(153,503,o),
(153,559,cs)
);
}
);
};
layerId = "BF6BA5B2-0556-42F4-A103-614BEBF16A1A";
shapes = (
{
closed = 1;
nodes = (
(418,-10,o),
(509,63,o),
(509,172,cs),
(509,299,o),
(384,355,o),
(293,407,cs),
(195,462,o),
(159,503,o),
(159,558,cs),
(159,618,o),
(205,659,o),
(274,659,cs),
(344,659,o),
(400,617,o),
(414,555,c),
(491,591,l),
(455,665,o),
(374,710,o),
(277,710,cs),
(153,710,o),
(65,634,o),
(65,528,cs),
(65,404,o),
(185,355,o),
(278,304,cs),
(379,249,o),
(416,209,o),
(416,153,cs),
(416,87,o),
(365,44,o),
(286,44,cs),
(209,44,o),
(145,84,o),
(116,151,c),
(48,95,l),
(96,30,o),
(185,-10,o),
(283,-10,cs)
);
}
);
userData = {
com.hugojourdan.ColorFlow = {
"0" = 0;
"1" = 0;
"10" = 0;
"11" = 0;
"2" = 0;
"3" = 0;
"4" = 0;
"5" = 0;
"6" = 0;
"7" = 0;
"8" = 0;
"9" = 0;
};
};
width = 570;
},
{
associatedMasterId = "FF73925E-1E34-445B-881D-5A7CAAA8E8BE";
layerId = "01D1DCD4-D6A4-4EDB-B9BC-2A98E82E96A8";
name = "10 Jun 23 12.27 PM";
shapes = (
{
closed = 1;
nodes = (
(416,-10,o),
(510,70,o),
(510,191,cs),
(510,272,o),
(466,326,o),
(339,399,cs),
(241,456,o),
(209,491,o),
(209,542,cs),
(209,587,o),
(232,616,o),
(266,616,cs),
(306,616,o),
(340,574,o),
(367,491,c),
(512,542,l),
(473,647,o),
(383,710,o),
(270,710,cs),
(137,710,o),
(50,626,o),
(50,498,cs),
(50,411,o),
(90,359,o),
(201,303,cs),
(302,252,o),
(334,218,o),
(334,162,cs),
(334,113,o),
(308,80,o),
(269,80,cs),
(224,80,o),
(179,128,o),
(145,211,c),
(16,121,l),
(68,39,o),
(164,-10,o),
(274,-10,cs)
);
}
);
userData = {
com.hugojourdan.ColorFlow = {
"0" = 0;
"1" = 0;
"10" = 0;
"11" = 0;
"2" = 0;
"3" = 0;
"4" = 0;
"5" = 0;
"6" = 0;
"7" = 0;
"8" = 0;
"9" = 0;
};
};
width = 546;
},
{
anchors = (
{
name = top;
pos = (285,700);
}
);
background = {
shapes = (
{
pos = (-60,0);
ref = O;
}
);
};
guides = (
{
angle = 44.157;
pos = (488,560);
}
);
layerId = "FF73925E-1E34-445B-881D-5A7CAAA8E8BE";
name = Bold;
shapes = (
{
closed = 1;
nodes = (
(437,-10,o),
(533,70,o),
(533,191,cs),
(533,286,o),
(484,352,o),
(361,419,cs),
(258,476,o),
(228,505,o),
(228,548,cs),
(227,595,o),
(252,622,o),
(298,622,cs),
(346,622,o),
(393,580,o),
(432,506,c),
(528,599,l),
(466,675,o),
(392,710,o),
(292,710,cs),
(147,710,o),
(55,629,o),
(55,503,cs),
(55,408,o),
(104,342,o),
(224,275,cs),
(326,218,o),
(356,189,o),
(357,146,cs),
(357,104,o),
(333,80,o),
(290,80,cs),
(234,80,o),
(171,135,o),
(115,234,c),
(27,115,l),
(82,38,o),
(183,-10,o),
(291,-10,cs)
);
}
);
userData = {
com.hugojourdan.ColorFlow = {
"0" = 0;
"1" = 0;
"10" = 0;
"11" = 0;
"2" = 0;
"3" = 0;
"4" = 0;
"5" = 0;
"6" = 0;
"7" = 0;
"8" = 0;
"9" = 0;
};
};
width = 568;
},
{
anchors = (
{
name = top;
pos = (268,700);
}
);
associatedMasterId = "FF73925E-1E34-445B-881D-5A7CAAA8E8BE";
guides = (
{
angle = 151.2602;
pos = (207,285);
}
);
layerId = "D8E4FFE5-BED4-4E71-8FF9-723148DABEAF";
name = "10 Jun 23 10.21 PM";
shapes = (
{
closed = 1;
nodes = (
(416,-10,o),
(510,70,o),
(510,191,cs),
(510,282,o),
(462,344,o),
(344,409,cs),
(223,475,o),
(175,493,o),
(174,562,cs),
(174,614,o),
(211,660,o),
(256,660,cs),
(306,660,o),
(340,603,o),
(367,491,c),
(512,542,l),
(473,647,o),
(383,710,o),
(270,710,cs),
(133,710,o),
(44,628,o),
(44,503,cs),
(44,412,o),
(91,349,o),
(207,285,cs),
(326,220,o),
(373,201,o),
(374,132,cs),
(374,88,o),
(349,40,o),
(279,40,cs),
(224,40,o),
(179,103,o),
(145,211,c),
(16,121,l),
(68,39,o),
(164,-10,o),
(274,-10,cs)
);
}
);
userData = {
com.hugojourdan.ColorFlow = {
"0" = 0;
"1" = 0;
"10" = 0;
"11" = 0;
"2" = 0;
"3" = 0;
"4" = 0;
"5" = 0;
"6" = 0;
"7" = 0;
"8" = 0;
"9" = 0;
};
};
width = 546;
},
{
anchors = (
{
name = top;
pos = (265,700);
}
);
layerId = m004;
shapes = (
{
closed = 1;
nodes = (
(367,-10,o),
(469,50,o),
(469,176,cs),
(469,292,o),
(367,340,o),
(273,384,cs),
(190,423,o),
(113,459,o),
(113,536,cs),
(113,613,o),
(173,668,o),
(262,668,cs),
(327,668,o),
(387,639,o),
(413,602,c),
(446,637,l),
(401,686,o),
(333,710,o),
(267,710,cs),
(164,710,o),
(64,651,o),
(64,537,cs),
(64,430,o),
(160,385,o),
(252,341,cs),
(338,300,o),
(421,261,o),
(421,175,cs),
(421,92,o),
(350,32,o),
(256,32,cs),
(186,32,o),
(121,66,o),
(84,118,c),
(55,81,l),
(103,21,o),
(183,-10,o),
(260,-10,cs)
);
}
);
userData = {
com.hugojourdan.ColorFlow = {
"0" = 0;
"1" = 0;
"10" = 0;
"11" = 0;
"2" = 0;
"3" = 0;
"4" = 0;
"5" = 0;
"6" = 0;
"7" = 0;
"8" = 0;
"9" = 0;
};
};
width = 539;
},
{
anchors = (
{
name = top;
pos = (284,700);
}
);
layerId = m005;
shapes = (
{
closed = 1;
nodes = (
(402,-10,o),
(512,56,o),
(512,190,cs),
(512,319,o),
(402,363,o),
(306,403,cs),
(229,434,o),
(160,462,o),
(160,526,cs),
(160,583,o),
(202,628,o),
(282,628,cs),
(348,628,o),
(406,598,o),
(435,559,c),
(498,622,l),
(447,681,o),
(367,710,o),
(288,710,cs),
(159,710,o),
(63,633,o),
(63,517,cs),
(63,395,o),
(169,352,o),
(264,313,cs),
(344,280,o),
(416,250,o),
(416,181,cs),
(416,117,o),
(359,72,o),
(280,72,cs),
(205,72,o),
(140,111,o),
(109,156,c),
(48,86,l),
(95,28,o),
(180,-10,o),
(281,-10,cs)
);
}
);
userData = {
com.hugojourdan.ColorFlow = {
"0" = 0;
"1" = 0;
"10" = 0;
"11" = 0;
"2" = 0;
"3" = 0;
"4" = 0;
"5" = 0;
"6" = 0;
"7" = 0;
"8" = 0;
"9" = 0;
};
};
width = 573;
},
{
anchors = (
{
name = top;
pos = (283,700);
}
);
layerId = m006;
shapes = (
{
closed = 1;
nodes = (
(426,-10,o),
(550,66,o),
(550,212,cs),
(550,367,o),
(416,409,o),
(315,441,cs),
(253,460,o),
(203,476,o),
(203,511,cs),
(203,547,o),
(233,565,o),
(273,565,cs),
(319,565,o),
(379,540,o),
(419,490,c),
(530,599,l),
(469,674,o),
(371,710,o),
(291,710,cs),
(119,710,o),
(30,604,o),
(30,486,cs),
(30,331,o),
(164,290,o),
(266,260,cs),
(328,241,o),
(378,226,o),
(378,191,cs),
(378,154,o),
(342,136,o),
(297,136,cs),
(242,136,o),
(173,163,o),
(138,215,c),
(27,95,l),
(71,39,o),
(164,-10,o),
(283,-10,cs)
);
}
);
userData = {
com.hugojourdan.ColorFlow = {
"0" = 0;
"1" = 0;
"10" = 0;
"11" = 0;
"2" = 0;
"3" = 0;
"4" = 0;
"5" = 0;
"6" = 0;
"7" = 0;
"8" = 0;
"9" = 0;
};
};
width = 585;
}
);
metricLeft = "=O*0.78";
metricRight = "=O";
note = S;
},
{
glyphname = a;
kernLeft = KO_a;
kernRight = KO_a;
lastChange = "2023-06-15 09:44:05 +0000";
layers = (
{
anchors = (
{
name = top;
pos = (235,480);
}
);
background = {
shapes = (
{
pos = (-35,0);
ref = n;
}
);
};
layerId = m01;
shapes = (
{
closed = 1;
nodes = (
(279,-10,o),
(340,36,o),
(364,119,c),
(352,117,l),
(351,78,o),
(354,39,o),
(361,0,c),
(399,0,l),
(392,36,o),
(389,73,o),
(389,111,cs),
(389,316,ls),
(389,433,o),
(339,490,o),
(235,490,cs),
(169,490,o),
(115,465,o),
(71,414,c),
(110,377,l),
(137,433,o),
(178,462,o),
(234,462,cs),
(303,462,o),
(344,410,o),
(344,322,cs),
(344,147,ls),
(344,81,o),
(278,18,o),
(204,18,cs),
(144,18,o),
(103,59,o),
(103,125,cs),
(103,197,o),
(153,230,o),
(357,260,c),
(357,287,l),
(142,270,o),
(57,222,o),
(57,118,cs),
(57,37,o),
(108,-10,o),
(194,-10,cs)
);
}
);
userData = {
com.hugojourdan.ColorFlow = {
"0" = 0;
"1" = 0;
"10" = 0;
"11" = 0;
"2" = 0;
"3" = 0;
"4" = 0;
"5" = 0;
"6" = 0;
"7" = 0;
"8" = 0;
"9" = 0;
};
};
width = 470;
},
{
anchors = (
{
name = top;
pos = (262,500);
}
);
background = {
shapes = (
{
pos = (-25,0);
ref = n;
}
);
};
layerId = "FF73925E-1E34-445B-881D-5A7CAAA8E8BE";
shapes = (
{
closed = 1;
nodes = (
(271,-10,o),
(327,30,o),
(355,112,c),
(332,112,l),
(332,57,o),
(335,23,o),
(342,0,c),
(491,0,l),
(484,23,o),
(481,57,o),
(481,112,cs),
(481,288,ls),
(481,439,o),
(415,510,o),
(272,510,cs),
(174,510,o),
(104,482,o),
(45,420,c),
(118,351,l),
(145,406,o),
(190,436,o),
(243,436,cs),
(285,436,o),
(312,406,o),
(312,359,cs),
(312,155,ls),
(312,103,o),
(290,75,o),
(249,75,cs),
(212,75,o),
(189,97,o),
(189,136,cs),
(189,181,o),
(221,207,o),
(326,247,c),
(326,301,l),
(121,274,o),
(32,220,o),
(32,122,cs),
(32,41,o),
(92,-10,o),
(187,-10,cs)
);
}
);
userData = {
com.hugojourdan.ColorFlow = {
"0" = 0;
"1" = 0;
"10" = 0;
"11" = 0;
"2" = 0;
"3" = 0;
"4" = 0;
"5" = 0;
"6" = 0;
"7" = 0;
"8" = 0;
"9" = 0;
};
};
width = 524;
},
{
anchors = (
{
name = top;
pos = (242,490);
}
);
background = {
shapes = (
{
pos = (-40,0);
ref = n;
}
);
};
layerId = "BF6BA5B2-0556-42F4-A103-614BEBF16A1A";
shapes = (
{
closed = 1;
nodes = (
(272,-10,o),
(345,44,o),
(358,123,c),
(350,123,l),
(350,52,o),
(352,27,o),
(360,0,c),
(438,0,l),
(430,29,o),
(428,57,o),
(428,127,cs),
(428,301,ls),
(428,434,o),
(370,500,o),
(254,500,cs),
(171,500,o),
(112,472,o),
(62,410,c),
(119,360,l),
(138,422,o),
(180,456,o),
(237,456,cs),
(297,456,o),
(335,408,o),
(335,331,cs),
(335,169,ls),
(335,102,o),
(272,35,o),
(209,35,cs),
(166,35,o),
(141,66,o),
(141,117,cs),
(141,189,o),
(188,221,o),
(351,259,c),
(351,296,l),
(137,265,o),
(50,210,o),
(50,106,cs),
(50,41,o),
(107,-10,o),
(179,-10,cs)
);
}
);
userData = {
com.hugojourdan.ColorFlow = {
"0" = 0;
"1" = 0;
"10" = 0;
"11" = 0;
"2" = 0;
"3" = 0;
"4" = 0;
"5" = 0;
"6" = 0;
"7" = 0;
"8" = 0;
"9" = 0;
};
};
width = 499;
},
{
anchors = (
{
name = top;
pos = (235,480);
}
);
layerId = m004;
shapes = (
{
closed = 1;
nodes = (
(264,-10,o),
(339,32,o),
(364,119,c),
(348,117,l),
(348,78,o),
(348,39,o),
(348,0,c),
(389,0,l),
(389,40,o),
(389,77,o),
(389,111,cs),
(389,316,ls),
(389,433,o),
(339,490,o),
(235,490,cs),
(169,490,o),
(115,465,o),
(71,414,c),
(105,382,l),
(140,422,o),
(180,445,o),
(234,445,cs),
(303,445,o),
(344,400,o),
(344,322,cs),
(344,187,ls),
(344,82,o),
(271,35,o),
(206,35,cs),
(153,35,o),
(105,66,o),
(105,123,cs),
(105,188,o),
(152,231,o),
(358,260,c),
(356,303,l),
(142,277,o),
(57,225,o),
(57,121,cs),
(57,33,o),
(123,-10,o),
(194,-10,cs)
);
}
);
userData = {
com.hugojourdan.ColorFlow = {
"0" = 0;
"1" = 0;
"10" = 0;
"11" = 0;
"2" = 0;
"3" = 0;
"4" = 0;
"5" = 0;
"6" = 0;
"7" = 0;
"8" = 0;
"9" = 0;
};
};
width = 470;
},
{
anchors = (
{
name = top;
pos = (248,488);
}
);
layerId = m005;
shapes = (
{
closed = 1;
nodes = (
(269,-10,o),
(337,31,o),
(363,116,c),
(344,115,l),
(344,74,o),
(344,36,o),
(344,0,c),
(428,0,l),
(428,37,o),
(428,73,o),
(428,111,cs),
(428,305,ls),
(428,437,o),
(369,500,o),
(250,500,cs),
(171,500,o),
(112,474,o),
(64,418,c),
(118,367,l),
(151,403,o),
(189,423,o),
(238,423,cs),
(296,423,o),
(335,387,o),
(335,324,cs),
(335,190,ls),
(335,99,o),
(274,59,o),
(220,59,cs),
(178,59,o),
(140,83,o),
(140,129,cs),
(140,182,o),
(181,222,o),
(348,247,c),
(347,308,l),
(136,281,o),
(50,227,o),
(50,124,cs),
(50,37,o),
(114,-10,o),
(194,-10,cs)
);
}
);
userData = {
com.hugojourdan.ColorFlow = {
"0" = 0;
"1" = 0;
"10" = 0;
"11" = 0;
"2" = 0;
"3" = 0;
"4" = 0;
"5" = 0;
"6" = 0;
"7" = 0;
"8" = 0;
"9" = 0;
};
};
width = 499;
},
{
anchors = (
{
name = top;
pos = (262,500);
}
);
layerId = m006;
shapes = (
{
closed = 1;
nodes = (
(271,-10,o),
(327,30,o),
(355,112,c),
(332,112,l),
(332,75,o),
(332,37,o),
(332,0,c),
(481,0,l),
(481,37,o),
(481,75,o),
(481,112,cs),
(481,288,ls),
(481,433,o),
(407,510,o),
(266,510,cs),
(168,510,o),
(102,482,o),
(45,416,c),
(133,333,l),
(165,367,o),
(200,384,o),
(238,384,cs),
(283,384,o),
(312,358,o),
(312,318,cs),
(312,195,ls),
(312,137,o),
(280,97,o),
(235,97,cs),
(207,97,o),
(189,113,o),
(189,138,cs),
(189,181,o),
(237,212,o),
(326,226,c),
(326,316,l),
(121,288,o),
(32,231,o),
(32,129,cs),
(32,44,o),
(92,-10,o),
(187,-10,cs)
);
}
);
userData = {
com.hugojourdan.ColorFlow = {
"0" = 0;
"1" = 0;
"10" = 0;
"11" = 0;
"2" = 0;
"3" = 0;
"4" = 0;
"5" = 0;
"6" = 0;
"7" = 0;
"8" = 0;
"9" = 0;
};
};
width = 524;
}
);
metricLeft = "=o";
metricRight = "=n-10";
note = a;
unicode = 97;
},
{
glyphname = ae;
kernLeft = KO_a;
kernRight = KO_e;
lastChange = "2023-06-15 09:30:27 +0000";
layers = (
{
background = {
shapes = (
{
closed = 1;
nodes = (
(263,-10,o),
(324,36,o),
(348,119,c),
(336,117,l),
(335,78,o),
(338,39,o),
(345,0,c),
(383,0,l),
(376,36,o),
(373,73,o),
(373,111,cs),
(373,316,ls),
(373,433,o),
(323,490,o),
(219,490,c),
(218,462,l),
(287,462,o),
(328,410,o),
(328,322,cs),
(328,147,ls),
(328,81,o),
(261,18,o),
(190,18,cs),
(128,18,o),
(87,59,o),
(87,123,cs),
(87,203,o),
(137,230,o),
(341,260,c),
(341,287,l),
(126,270,o),
(41,222,o),
(41,118,cs),
(41,37,o),
(92,-10,o),
(178,-10,cs)
);
},
{
closed = 1;
nodes = (
(121,433,o),
(162,462,o),
(218,462,c),
(219,490,l),
(153,490,o),
(99,465,o),
(55,414,c),
(94,377,l)
);
}
);
};
layerId = m01;
shapes = (
{
closed = 1;
nodes = (
(592,-10,o),
(648,18,o),
(693,75,c),
(649,108,l),
(621,48,o),
(580,18,o),
(527,18,cs),
(441,18,o),
(387,105,o),
(389,243,cs),
(389,249,ls),
(389,383,o),
(444,462,o),
(535,462,cs),
(612,462,o),
(660,409,o),
(660,326,cs),
(660,306,o),
(657,285,o),
(649,256,c),
(692,291,l),
(367,270,l),
(367,245,l),
(696,252,l),
(702,284,o),
(704,303,o),
(704,321,cs),
(704,425,o),
(641,490,o),
(534,490,cs),
(412,490,o),
(344,400,o),
(344,241,cs),
(344,84,o),
(411,-10,o),
(527,-10,cs)
);
},
{
closed = 1;
nodes = (
(286,-10,o),
(350,39,o),
(374,131,c),
(381,131,l),
(381,316,ls),
(381,433,o),
(334,490,o),
(235,490,cs),
(169,490,o),
(115,465,o),
(71,414,c),
(110,377,l),
(137,433,o),
(178,462,o),
(234,462,cs),
(303,462,o),
(344,410,o),
(344,322,cs),
(344,147,ls),
(344,81,o),
(278,18,o),
(204,18,cs),
(145,18,o),
(103,59,o),
(103,116,cs),
(103,187,o),
(169,219,o),
(357,244,c),
(357,271,l),
(146,254,o),
(57,206,o),
(57,109,cs),
(57,36,o),
(108,-10,o),
(196,-10,cs)
);
}
);
userData = {
com.hugojourdan.ColorFlow = {
"0" = 0;
"1" = 0;
"10" = 0;
"11" = 0;
"2" = 0;
"3" = 0;
"4" = 0;
"5" = 0;
"6" = 0;
"7" = 0;
"8" = 0;
"9" = 0;
};
};
width = 761;
},
{
layerId = "BF6BA5B2-0556-42F4-A103-614BEBF16A1A";
shapes = (
{
closed = 1;
nodes = (
(642,-10,o),
(701,22,o),
(734,88,c),
(673,130,l),
(655,69,o),
(613,34,o),
(560,34,cs),
(481,34,o),
(428,121,o),
(428,247,cs),
(428,252,ls),
(428,381,o),
(478,458,o),
(560,458,cs),
(627,458,o),
(665,408,o),
(665,319,cs),
(665,292,o),
(663,280,o),
(656,253,c),
(705,297,l),
(382,275,l),
(382,243,l),
(735,250,l),
(742,267,o),
(744,283,o),
(744,310,cs),
(744,431,o),
(676,500,o),
(558,500,cs),
(426,500,o),
(345,400,o),
(345,240,cs),
(345,78,o),
(419,-10,o),
(554,-10,cs)
);
},
{
closed = 1;
nodes = (
(281,-10,o),
(355,52,o),
(369,146,c),
(418,147,l),
(418,301,ls),
(418,434,o),
(363,500,o),
(254,500,cs),
(171,500,o),
(112,472,o),
(62,410,c),
(119,360,l),
(138,422,o),
(180,456,o),
(237,456,cs),
(297,456,o),
(335,408,o),
(335,331,cs),
(335,169,ls),
(335,102,o),
(272,35,o),
(209,35,cs),
(167,35,o),
(141,64,o),
(141,111,cs),
(141,180,o),
(187,209,o),
(347,243,c),
(347,275,l),
(134,247,o),
(50,198,o),
(50,100,cs),
(50,40,o),
(108,-10,o),
(179,-10,cs)
);
}
);
userData = {
com.hugojourdan.ColorFlow = {
"0" = 0;
"1" = 0;
"10" = 0;
"11" = 0;
"2" = 0;
"3" = 0;
"4" = 0;
"5" = 0;
"6" = 0;
"7" = 0;
"8" = 0;
"9" = 0;
};
};
width = 794;
},
{
layerId = "FF73925E-1E34-445B-881D-5A7CAAA8E8BE";
shapes = (
{
closed = 1;
nodes = (
(642,-10,o),
(706,22,o),
(760,93,c),
(670,152,l),
(651,97,o),
(614,64,o),
(572,64,cs),
(512,64,o),
(481,123,o),
(481,238,cs),
(481,246,ls),
(481,359,o),
(511,436,o),
(555,436,cs),
(589,436,o),
(602,406,o),
(602,331,cs),
(602,302,o),
(599,279,o),
(591,248,c),
(638,297,l),
(429,269,l),
(429,228,l),
(749,235,l),
(756,269,o),
(760,295,o),
(760,316,cs),
(760,437,o),
(687,510,o),
(566,510,cs),
(431,510,o),
(352,414,o),
(352,250,cs),
(352,87,o),
(428,-10,o),
(555,-10,cs)
);
},
{
closed = 1;
nodes = (
(298,-10,o),
(365,45,o),
(377,142,c),
(441,142,l),
(441,288,ls),
(441,441,o),
(387,510,o),
(267,510,cs),
(174,510,o),
(104,482,o),
(45,420,c),
(118,351,l),
(145,406,o),
(190,436,o),
(243,436,cs),
(285,436,o),
(312,406,o),
(312,359,cs),
(312,154,ls),
(312,105,o),
(286,75,o),
(245,75,cs),
(211,75,o),
(189,98,o),
(189,136,cs),
(189,187,o),
(227,219,o),
(320,246,c),
(320,291,l),
(120,266,o),
(32,214,o),
(32,122,cs),
(32,41,o),
(92,-10,o),
(187,-10,cs)
);
}
);
userData = {
com.hugojourdan.ColorFlow = {
"0" = 0;
"1" = 0;
"10" = 0;
"11" = 0;
"2" = 0;
"3" = 0;
"4" = 0;
"5" = 0;
"6" = 0;
"7" = 0;
"8" = 0;
"9" = 0;
};
};
width = 792;
},
{
guides = (
{
angle = 186.6632;
pos = (342,239);
}
);
layerId = m004;
shapes = (
{
closed = 1;
nodes = (
(596,-10,o),
(646,17,o),
(689,75,c),
(651,104,l),
(619,59,o),
(576,34,o),
(530,34,cs),
(446,34,o),
(389,110,o),
(389,223,cs),
(389,249,ls),
(389,378,o),
(437,446,o),
(527,446,cs),
(608,446,o),
(656,390,o),
(656,296,cs),
(656,284,o),
(656,258,o),
(656,247,c),
(681,281,l),
(377,281,l),
(377,238,l),
(704,238,l),
(704,249,o),
(704,261,o),
(704,283,cs),
(704,415,o),
(642,490,o),
(531,490,cs),
(411,490,o),
(344,401,o),
(344,240,cs),
(344,80,o),
(410,-10,o),
(527,-10,cs)
);
},
{
closed = 1;
nodes = (
(274,-10,o),
(342,42,o),
(364,119,c),
(386,126,l),
(386,306,ls),
(386,426,o),
(333,490,o),
(235,490,cs),
(169,490,o),
(115,465,o),
(71,414,c),
(105,382,l),
(143,425,o),
(184,445,o),
(234,445,cs),
(303,445,o),
(344,400,o),
(344,322,cs),
(344,187,ls),
(344,99,o),
(286,35,o),
(206,35,cs),
(147,35,o),
(105,66,o),
(105,110,cs),
(105,183,o),
(173,218,o),
(358,239,c),
(356,282,l),
(142,257,o),
(57,208,o),
(57,108,cs),
(57,38,o),
(112,-10,o),
(194,-10,cs)
);
}
);
userData = {
com.hugojourdan.ColorFlow = {
"0" = 0;
"1" = 0;
"10" = 0;
"11" = 0;
"2" = 0;
"3" = 0;
"4" = 0;
"5" = 0;
"6" = 0;
"7" = 0;
"8" = 0;
"9" = 0;
};
};
width = 761;
},
{
layerId = m005;
shapes = (
{
closed = 1;
nodes = (
(627,-10,o),
(684,19,o),
(731,82,c),
(668,128,l),
(642,90,o),
(595,65,o),
(550,65,cs),
(474,65,o),
(428,126,o),
(428,229,cs),
(428,248,ls),
(428,363,o),
(469,425,o),
(545,425,cs),
(612,425,o),
(654,376,o),
(654,298,cs),
(654,284,o),
(654,266,o),
(654,256,c),
(687,281,l),
(397,281,l),
(397,217,l),
(742,217,l),
(743,234,o),
(744,250,o),
(744,269,cs),
(744,416,o),
(673,498,o),
(548,498,cs),
(419,498,o),
(345,405,o),
(345,242,cs),
(345,83,o),
(420,-10,o),
(549,-10,cs)
);
},
{
closed = 1;
nodes = (
(281,-10,o),
(348,37,o),
(373,116,c),
(418,117,l),
(418,305,ls),
(418,436,o),
(363,500,o),
(250,500,cs),
(171,500,o),
(112,474,o),
(64,418,c),
(118,367,l),
(152,404,o),
(192,423,o),
(236,423,cs),
(298,423,o),
(335,386,o),
(335,324,cs),
(335,190,ls),
(335,114,o),
(287,59,o),
(220,59,cs),
(172,59,o),
(140,88,o),
(140,130,cs),
(140,190,o),
(202,225,o),
(348,247,c),
(347,308,l),
(137,281,o),
(50,227,o),
(50,124,cs),
(50,43,o),
(107,-10,o),
(194,-10,cs)
);
}
);
userData = {
com.hugojourdan.ColorFlow = {
"0" = 0;
"1" = 0;
"10" = 0;
"11" = 0;
"2" = 0;
"3" = 0;
"4" = 0;
"5" = 0;
"6" = 0;
"7" = 0;
"8" = 0;
"9" = 0;
};
};
width = 794;
},
{
layerId = m006;
shapes = (
{
closed = 1;
nodes = (
(637,-10,o),
(698,22,o),
(750,93,c),
(647,166,l),
(627,136,o),
(589,113,o),
(559,113,cs),
(505,113,o),
(477,156,o),
(477,238,cs),
(477,247,ls),
(477,339,o),
(504,392,o),
(551,392,cs),
(582,392,o),
(603,357,o),
(603,305,cs),
(603,283,o),
(603,271,o),
(603,259,c),
(648,289,l),
(408,289,l),
(408,196,l),
(754,196,l),
(758,208,o),
(760,229,o),
(760,258,cs),
(760,415,o),
(686,510,o),
(564,510,cs),
(427,510,o),
(352,416,o),
(352,244,cs),
(352,86,o),
(427,-10,o),
(552,-10,cs)
);
},
{
closed = 1;
nodes = (
(280,-10,o),
(356,36,o),
(385,112,c),
(441,112,l),
(441,308,ls),
(441,444,o),
(384,510,o),
(266,510,cs),
(169,510,o),
(102,483,o),
(45,420,c),
(131,339,l),
(163,369,o),
(199,384,o),
(238,384,cs),
(280,384,o),
(312,360,o),
(312,328,cs),
(312,195,ls),
(312,137,o),
(280,97,o),
(235,97,cs),
(207,97,o),
(189,113,o),
(189,138,cs),
(189,181,o),
(237,212,o),
(326,226,c),
(326,316,l),
(121,288,o),
(32,231,o),
(32,129,cs),
(32,44,o),
(92,-10,o),
(187,-10,cs)
);
}
);
userData = {
com.hugojourdan.ColorFlow = {
"0" = 0;
"1" = 0;
"10" = 0;
"11" = 0;
"2" = 0;
"3" = 0;
"4" = 0;
"5" = 0;
"6" = 0;
"7" = 0;
"8" = 0;
"9" = 0;
};
};
width = 792;
}
);
metricLeft = "=a";
metricRight = "=e";
unicode = 230;
},
{
glyphname = b;
kernLeft = KO_l;
kernRight = KO_p;
lastChange = "2023-06-15 07:46:57 +0000";
layers = (
{
background = {
shapes = (
{
closed = 0;
nodes = (
(344,-10,ls),
(261,-10,o),
(200,34,o),
(177,111,cs),
(174,122,l)
);
},
{
pos = (24,0);
ref = o;
}
);
};
layerId = m01;
shapes = (
{
closed = 1;
nodes = (
(412,-10,o),
(485,83,o),
(485,240,cs),
(485,397,o),
(412,490,o),
(288,490,cs),
(206,490,o),
(148,447,o),
(124,369,c),
(133,367,l),
(133,700,l),
(88,700,l),
(88,122,ls),
(88,83,o),
(86,64,o),
(78,0,c),
(116,0,l),
(124,64,o),
(126,83,o),
(126,122,c),
(119,119,l),
(144,36,o),
(203,-10,o),
(288,-10,cs)
);
},
{
closed = 1;
nodes = (
(195,18,o),
(133,90,o),
(133,197,cs),
(133,283,ls),
(133,390,o),
(195,462,o),
(285,462,cs),
(381,462,o),
(437,381,o),
(437,240,cs),
(437,99,o),
(381,18,o),
(285,18,cs)
);
}
);
userData = {
com.hugojourdan.ColorFlow = {
"0" = 0;
"1" = 0;
"10" = 0;
"11" = 0;
"2" = 0;
"3" = 0;
"4" = 0;
"5" = 0;
"6" = 0;
"7" = 0;
"8" = 0;
"9" = 0;
};
};
width = 542;
},
{
background = {
shapes = (
{
pos = (4,0);
ref = o;
}
);
};
layerId = "FF73925E-1E34-445B-881D-5A7CAAA8E8BE";
shapes = (
{
closed = 1;
nodes = (
(459,-10,o),
(536,88,o),
(536,252,cs),
(536,414,o),
(460,510,o),
(333,510,cs),
(271,510,o),
(226,489,o),
(199,447,c),
(218,425,l),
(218,700,l),
(49,700,l),
(49,112,ls),
(49,67,o),
(46,31,o),
(39,0,c),
(188,0,l),
(195,31,o),
(198,67,o),
(198,112,c),
(180,85,l),
(203,22,o),
(254,-10,o),
(331,-10,cs)
);
},
{
closed = 1;
nodes = (
(246,64,o),
(218,103,o),
(218,158,cs),
(218,342,ls),
(218,398,o),
(245,436,o),
(286,436,cs),
(336,436,o),
(362,374,o),
(362,251,cs),
(362,128,o),
(336,64,o),
(287,64,cs)
);
}
);
userData = {
com.hugojourdan.ColorFlow = {
"0" = 0;
"1" = 0;
"10" = 0;
"11" = 0;
"2" = 0;
"3" = 0;
"4" = 0;
"5" = 0;
"6" = 0;
"7" = 0;
"8" = 0;
"9" = 0;
};
};
width = 568;
},
{
background = {
shapes = (
{
pos = (20,0);
ref = o;
}
);
};
layerId = "BF6BA5B2-0556-42F4-A103-614BEBF16A1A";
shapes = (
{
closed = 1;
nodes = (
(442,-10,o),
(518,85,o),
(518,246,cs),
(518,405,o),
(442,500,o),
(313,500,cs),
(237,500,o),
(182,465,o),
(157,400,c),
(170,390,l),
(170,700,l),
(77,700,l),
(77,114,ls),
(77,66,o),
(75,41,o),
(67,0,c),
(148,0,l),
(156,41,o),
(158,66,o),
(158,114,c),
(146,107,l),
(171,31,o),
(229,-10,o),
(313,-10,cs)
);
},
{
closed = 1;
nodes = (
(220,34,o),
(170,95,o),
(170,185,cs),
(170,305,ls),
(170,395,o),
(220,456,o),
(293,456,cs),
(376,456,o),
(422,381,o),
(422,245,cs),
(422,109,o),
(377,34,o),
(294,34,cs)
);
}
);
userData = {
com.hugojourdan.ColorFlow = {
"0" = 0;
"1" = 0;
"10" = 0;
"11" = 0;
"2" = 0;
"3" = 0;
"4" = 0;
"5" = 0;
"6" = 0;
"7" = 0;
"8" = 0;
"9" = 0;
};
};
width = 568;
},
{
associatedMasterId = "BF6BA5B2-0556-42F4-A103-614BEBF16A1A";
layerId = "1541BBAC-7119-4381-9C00-EC84D554BAFD";
name = "13 Jun 23 10.49 AM";
shapes = (
{
closed = 1;
nodes = (
(430,-10,o),
(495,80,o),
(495,246,cs),
(495,410,o),
(430,500,o),
(312,500,cs),
(235,500,o),
(189,461,o),
(167,415,c),
(180,392,l),
(180,740,l),
(87,740,l),
(87,127,ls),
(87,85,o),
(87,42,o),
(77,0,c),
(155,0,l),
(162,36,o),
(166,71,o),
(164,107,c),
(159,107,l),
(159,47,o),
(227,-10,o),
(312,-10,cs)
);
},
{
closed = 1;
nodes = (
(228,34,o),
(180,86,o),
(180,140,cs),
(180,350,ls),
(180,404,o),
(228,456,o),
(281,456,cs),
(360,456,o),
(400,388,o),
(400,246,cs),
(400,102,o),
(360,34,o),
(281,34,cs)
);
}
);
userData = {
com.hugojourdan.ColorFlow = {
"0" = 0;
"1" = 0;
"10" = 0;
"11" = 0;
"2" = 0;
"3" = 0;
"4" = 0;
"5" = 0;
"6" = 0;
"7" = 0;
"8" = 0;
"9" = 0;
};
};
width = 545;
},
{
associatedMasterId = "FF73925E-1E34-445B-881D-5A7CAAA8E8BE";
background = {
shapes = (
{
pos = (54,0);
ref = o;
}
);
};
layerId = "5F2194A1-B64B-4A0A-BF1B-5989FBE92720";
name = "13 Jun 23 10.54 AM";
shapes = (
{
closed = 1;
nodes = (
(472,-10,o),
(540,83,o),
(540,250,cs),
(540,417,o),
(472,510,o),
(351,510,cs),
(306,510,o),
(268,496,o),
(240,468,c),
(240,740,l),
(71,740,l),
(71,112,ls),
(71,76,o),
(68,39,o),
(61,0,c),
(210,0,l),
(216,30,o),
(218,60,o),
(221,87,c),
(204,87,l),
(228,24,o),
(282,-10,o),
(351,-10,cs)
);
},
{
closed = 1;
nodes = (
(264,64,o),
(240,92,o),
(240,144,cs),
(240,356,ls),
(240,408,o),
(264,436,o),
(296,436,cs),
(346,436,o),
(369,369,o),
(369,250,cs),
(369,131,o),
(346,64,o),
(296,64,cs)
);
}
);
userData = {
com.hugojourdan.ColorFlow = {
"0" = 0;
"1" = 0;
"10" = 0;
"11" = 0;
"2" = 0;
"3" = 0;
"4" = 0;
"5" = 0;
"6" = 0;
"7" = 0;
"8" = 0;
"9" = 0;
};
};
width = 574;
},
{
layerId = m004;
shapes = (
{
closed = 1;
nodes = (
(424,-10,o),
(485,78,o),
(485,240,cs),
(485,402,o),
(424,490,o),
(288,490,cs),
(200,490,o),
(144,453,o),
(121,381,c),
(133,365,l),
(133,700,l),
(88,700,l),
(88,111,ls),
(88,74,o),
(88,37,o),
(88,0,c),
(129,0,l),
(129,40,o),
(129,78,o),
(128,120,c),
(115,120,l),
(134,39,o),
(189,-10,o),
(290,-10,cs)
);
},
{
closed = 1;
nodes = (
(199,35,o),
(133,88,o),
(133,240,cs),
(133,240,ls),
(133,392,o),
(199,445,o),
(284,445,cs),
(386,445,o),
(437,369,o),
(437,240,cs),
(437,111,o),
(386,35,o),
(284,35,cs)
);
}
);
userData = {
com.hugojourdan.ColorFlow = {
"0" = 0;
"1" = 0;
"10" = 0;
"11" = 0;
"2" = 0;
"3" = 0;
"4" = 0;
"5" = 0;
"6" = 0;
"7" = 0;
"8" = 0;
"9" = 0;
};
};
width = 542;
},
{
layerId = m005;
shapes = (
{
closed = 1;
nodes = (
(450,-10,o),
(518,76,o),
(518,244,cs),
(518,412,o),
(450,498,o),
(316,498,cs),
(235,498,o),
(183,467,o),
(158,405,c),
(171,387,l),
(171,700,l),
(78,700,l),
(78,111,ls),
(78,75,o),
(78,38,o),
(78,0,c),
(161,0,l),
(161,36,o),
(161,71,o),
(161,107,c),
(146,107,l),
(169,29,o),
(227,-10,o),
(318,-10,cs)
);
},
{
closed = 1;
nodes = (
(158,66,o),
(171,244,o),
(171,244,cs),
(171,244,ls),
(171,244,o),
(158,422,o),
(297,422,cs),
(379,422,o),
(423,360,o),
(423,244,cs),
(423,128,o),
(379,66,o),
(297,66,cs)
);
}
);
userData = {
com.hugojourdan.ColorFlow = {
"0" = 0;
"1" = 0;
"10" = 0;
"11" = 0;
"2" = 0;
"3" = 0;
"4" = 0;
"5" = 0;
"6" = 0;
"7" = 0;
"8" = 0;
"9" = 0;
};
};
width = 568;
},
{
layerId = m006;
shapes = (
{
closed = 1;
nodes = (
(466,-10,o),
(536,81,o),
(536,250,cs),
(536,420,o),
(466,510,o),
(334,510,cs),
(268,510,o),
(229,486,o),
(201,429,c),
(218,413,l),
(218,700,l),
(49,700,l),
(49,112,ls),
(49,76,o),
(49,39,o),
(49,0,c),
(199,0,l),
(199,30,o),
(199,60,o),
(199,97,c),
(182,97,l),
(205,26,o),
(257,-10,o),
(337,-10,cs)
);
},
{
closed = 1;
nodes = (
(240,119,o),
(218,159,o),
(218,248,cs),
(218,248,ls),
(218,337,o),
(240,376,o),
(290,376,cs),
(340,376,o),
(362,337,o),
(362,248,cs),
(362,158,o),
(340,119,o),
(290,119,cs)
);
}
);
userData = {
com.hugojourdan.ColorFlow = {
"0" = 0;
"1" = 0;
"10" = 0;
"11" = 0;
"2" = 0;
"3" = 0;
"4" = 0;
"5" = 0;
"6" = 0;
"7" = 0;
"8" = 0;
"9" = 0;
};
};
width = 568;
}
);
metricLeft = "=n*1.02";
metricRight = "=o";
note = b;
unicode = 98;
},
{
glyphname = c;
kernLeft = KO_e;
kernRight = KO_c;
lastChange = "2023-06-15 09:43:34 +0000";
layers = (
{
anchors = (
{
name = bottom;
pos = (254,0);
}
);
background = {
shapes = (
{
pos = (-2,0);
ref = o;
}
);
};
layerId = m01;
shapes = (
{
closed = 1;
nodes = (
(317,-10,o),
(374,19,o),
(419,75,c),
(375,108,l),
(347,49,o),
(305,18,o),
(254,18,cs),
(160,18,o),
(105,100,o),
(105,240,cs),
(105,380,o),
(160,462,o),
(254,462,cs),
(304,462,o),
(345,433,o),
(373,377,c),
(412,414,l),
(368,464,o),
(314,490,o),
(253,490,cs),
(129,490,o),
(57,398,o),
(57,240,cs),
(57,82,o),
(129,-10,o),
(253,-10,cs)
);
}
);
userData = {
com.hugojourdan.ColorFlow = {
"0" = 0;
"1" = 0;
"10" = 0;
"11" = 0;
"2" = 0;
"3" = 0;
"4" = 0;
"5" = 0;
"6" = 0;
"7" = 0;
"8" = 0;
"9" = 0;
};
};
width = 469;
},
{
anchors = (
{
name = bottom;
pos = (283,0);
}
);
layerId = "FF73925E-1E34-445B-881D-5A7CAAA8E8BE";
shapes = (
{
closed = 1;
nodes = (
(366,-10,o),
(424,18,o),
(485,93,c),
(393,154,l),
(371,96,o),
(339,64,o),
(303,64,cs),
(242,64,o),
(206,135,o),
(206,254,cs),
(206,366,o),
(242,436,o),
(299,436,cs),
(335,436,o),
(365,408,o),
(386,354,c),
(474,420,l),
(420,481,o),
(353,510,o),
(265,510,cs),
(122,510,o),
(32,410,o),
(32,250,cs),
(32,92,o),
(125,-10,o),
(271,-10,cs)
);
}
);
userData = {
com.hugojourdan.ColorFlow = {
"0" = 0;
"1" = 0;
"10" = 0;
"11" = 0;
"2" = 0;
"3" = 0;
"4" = 0;
"5" = 0;
"6" = 0;
"7" = 0;
"8" = 0;
"9" = 0;
};
};
width = 513;
},
{
anchors = (
{
name = bottom;
pos = (273,0);
}
);
background = {
shapes = (
{
ref = o;
}
);
};
layerId = "BF6BA5B2-0556-42F4-A103-614BEBF16A1A";
shapes = (
{
closed = 1;
nodes = (
(348,-10,o),
(418,28,o),
(449,88,c),
(388,130,l),
(370,71,o),
(328,34,o),
(278,34,cs),
(197,34,o),
(146,116,o),
(146,246,cs),
(146,375,o),
(197,456,o),
(278,456,cs),
(328,456,o),
(370,419,o),
(388,360,c),
(445,410,l),
(413,465,o),
(344,500,o),
(268,500,cs),
(134,500,o),
(50,402,o),
(50,246,cs),
(50,89,o),
(134,-10,o),
(268,-10,cs)
);
}
);
userData = {
com.hugojourdan.ColorFlow = {
"0" = 0;
"1" = 0;
"10" = 0;
"11" = 0;
"2" = 0;
"3" = 0;
"4" = 0;
"5" = 0;
"6" = 0;
"7" = 0;
"8" = 0;
"9" = 0;
};
};
width = 493;
},
{
anchors = (
{
name = bottom;
pos = (285,0);
}
);
associatedMasterId = "FF73925E-1E34-445B-881D-5A7CAAA8E8BE";
background = {
shapes = (
{
ref = e;
}
);
};
guides = (
{
angle = 146.8024;
pos = (447,120);
}
);
layerId = "C737E8C0-69C2-47E5-B794-154320ECB742";
name = "12 Jun 23 1.22 PM";
shapes = (
{
closed = 1;
nodes = (
(369,-10,o),
(428,19,o),
(487,94,c),
(401,150,l),
(374,94,o),
(345,64,o),
(307,64,cs),
(245,64,o),
(208,135,o),
(208,254,cs),
(208,366,o),
(244,436,o),
(301,436,cs),
(349,436,o),
(390,404,o),
(406,354,c),
(476,420,l),
(426,475,o),
(345,510,o),
(267,510,cs),
(124,510,o),
(34,410,o),
(34,250,cs),
(34,88,o),
(126,-10,o),
(276,-10,cs)
);
}
);
userData = {
com.hugojourdan.ColorFlow = {
"0" = 0;
"1" = 0;
"10" = 0;
"11" = 0;
"2" = 0;
"3" = 0;
"4" = 0;
"5" = 0;
"6" = 0;
"7" = 0;
"8" = 0;
"9" = 0;
};
};
visible = 1;
width = 506;
},
{
anchors = (
{
name = bottom;
pos = (252,0);
}
);
associatedMasterId = m01;
layerId = "707BF090-8F86-4750-80EF-9DF17BCC4308";
name = "14 Jun 23 1.50 PM";
shapes = (
{
closed = 1;
nodes = (
(313,-10,o),
(369,19,o),
(413,75,c),
(369,108,l),
(342,49,o),
(301,18,o),
(252,18,cs),
(161,18,o),
(107,100,o),
(107,240,cs),
(107,380,o),
(161,462,o),
(252,462,cs),
(300,462,o),
(340,432,o),
(367,377,c),
(406,414,l),
(363,464,o),
(310,490,o),
(251,490,cs),
(130,490,o),
(59,398,o),
(59,240,cs),
(59,82,o),
(130,-10,o),
(251,-10,cs)
);
}
);
userData = {
com.hugojourdan.ColorFlow = {
"0" = 0;
"1" = 0;
"10" = 0;
"11" = 0;
"2" = 0;
"3" = 0;
"4" = 0;
"5" = 0;
"6" = 0;
"7" = 0;
"8" = 0;
"9" = 0;
};
};
width = 441;
},
{
anchors = (
{
name = bottom;
pos = (265,0);
}
);
associatedMasterId = "BF6BA5B2-0556-42F4-A103-614BEBF16A1A";
layerId = "CB13906D-9790-4CB6-860E-371883AE97F9";
name = "14 Jun 23 1.50 PM";
shapes = (
{
closed = 1;
nodes = (
(337,-10,o),
(403,28,o),
(433,88,c),
(372,130,l),
(355,71,o),
(316,34,o),
(270,34,cs),
(194,34,o),
(146,116,o),
(146,246,cs),
(146,375,o),
(194,456,o),
(270,456,cs),
(316,456,o),
(355,419,o),
(372,360,c),
(429,410,l),
(398,465,o),
(332,500,o),
(260,500,cs),
(131,500,o),
(50,402,o),
(50,246,cs),
(50,89,o),
(131,-10,o),
(260,-10,cs)
);
}
);
userData = {
com.hugojourdan.ColorFlow = {
"0" = 0;
"1" = 0;
"10" = 0;
"11" = 0;
"2" = 0;
"3" = 0;
"4" = 0;
"5" = 0;
"6" = 0;
"7" = 0;
"8" = 0;
"9" = 0;
};
};
width = 448;
},
{
anchors = (
{
name = bottom;
pos = (285,0);
}
);
associatedMasterId = "FF73925E-1E34-445B-881D-5A7CAAA8E8BE";
layerId = "15E4DCAD-7ECB-4811-9CB4-597CA402E569";
name = "14 Jun 23 1.50 PM";
shapes = (
{
closed = 1;
nodes = (
(351,-10,o),
(436,30,o),
(487,93,c),
(396,153,l),
(385,97,o),
(352,64,o),
(306,64,cs),
(245,64,o),
(208,135,o),
(208,254,cs),
(208,366,o),
(244,436,o),
(301,436,cs),
(349,436,o),
(390,404,o),
(406,354,c),
(476,420,l),
(426,475,o),
(345,510,o),
(267,510,cs),
(124,510,o),
(34,410,o),
(34,250,cs),
(34,90,o),
(124,-10,o),
(268,-10,cs)
);
}
);
userData = {
com.hugojourdan.ColorFlow = {
"0" = 0;
"1" = 0;
"10" = 0;
"11" = 0;
"2" = 0;
"3" = 0;
"4" = 0;
"5" = 0;
"6" = 0;
"7" = 0;
"8" = 0;
"9" = 0;
};
};
width = 506;
},
{
anchors = (
{
name = bottom;
pos = (254,0);
}
);
layerId = m004;
shapes = (
{
closed = 1;
nodes = (
(317,-10,o),
(373,18,o),
(419,75,c),
(380,105,l),
(350,62,o),
(303,35,o),
(254,35,cs),
(165,35,o),
(105,117,o),
(105,240,cs),
(105,363,o),
(165,445,o),
(254,445,cs),
(302,445,o),
(346,421,o),
(377,381,c),
(412,414,l),
(366,465,o),
(312,490,o),
(250,490,cs),
(129,490,o),
(57,397,o),
(57,240,cs),
(57,83,o),
(129,-10,o),
(250,-10,cs)
);
}
);
userData = {
com.hugojourdan.ColorFlow = {
"0" = 0;
"1" = 0;
"10" = 0;
"11" = 0;
"2" = 0;
"3" = 0;
"4" = 0;
"5" = 0;
"6" = 0;
"7" = 0;
"8" = 0;
"9" = 0;
};
};
width = 469;
},
{
anchors = (
{
name = bottom;
pos = (274,0);
}
);
layerId = m005;
shapes = (
{
closed = 1;
nodes = (
(336,-10,o),
(401,18,o),
(449,70,c),
(398,130,l),
(370,94,o),
(326,73,o),
(280,73,cs),
(198,73,o),
(146,139,o),
(146,244,cs),
(146,348,o),
(199,415,o),
(281,415,cs),
(324,415,o),
(367,396,o),
(397,363,c),
(445,426,l),
(398,472,o),
(334,498,o),
(265,498,cs),
(132,498,o),
(50,401,o),
(50,244,cs),
(50,87,o),
(132,-10,o),
(265,-10,cs)
);
}
);
userData = {
com.hugojourdan.ColorFlow = {
"0" = 0;
"1" = 0;
"10" = 0;
"11" = 0;
"2" = 0;
"3" = 0;
"4" = 0;
"5" = 0;
"6" = 0;
"7" = 0;
"8" = 0;
"9" = 0;
};
};
width = 493;
},
{
anchors = (
{
name = bottom;
pos = (293,0);
}
);
layerId = m006;
shapes = (
{
closed = 1;
nodes = (
(362,-10,o),
(434,15,o),
(485,59,c),
(413,169,l),
(387,147,o),
(347,133,o),
(310,133,cs),
(244,133,o),
(206,176,o),
(206,250,cs),
(206,324,o),
(242,367,o),
(305,367,cs),
(340,367,o),
(378,353,o),
(402,331,c),
(474,441,l),
(425,485,o),
(354,510,o),
(279,510,cs),
(130,510,o),
(32,408,o),
(32,251,cs),
(32,93,o),
(131,-10,o),
(284,-10,cs)
);
}
);
userData = {
com.hugojourdan.ColorFlow = {
"0" = 0;
"1" = 0;
"10" = 0;
"11" = 0;
"2" = 0;
"3" = 0;
"4" = 0;
"5" = 0;
"6" = 0;
"7" = 0;
"8" = 0;
"9" = 0;
};
};
width = 513;
}
);
metricLeft = "=o";
metricRight = "=|*0.88";
note = c;
unicode = 99;
},
{
glyphname = d;
kernLeft = KO_d;
kernRight = KO_d;
lastChange = "2023-06-15 07:45:38 +0000";
layers = (
{
layerId = m01;
shapes = (
{
closed = 1;
nodes = (
(339,-10,o),
(398,36,o),
(423,119,c),
(416,122,l),
(416,83,o),
(418,64,o),
(426,0,c),
(464,0,l),
(456,64,o),
(454,83,o),
(454,122,cs),
(454,700,l),
(409,700,l),
(409,367,l),
(418,369,l),
(394,447,o),
(336,490,o),
(254,490,cs),
(130,490,o),
(57,397,o),
(57,240,cs),
(57,83,o),
(130,-10,o),
(254,-10,cs)
);
},
{
closed = 1;
nodes = (
(161,18,o),
(105,99,o),
(105,240,cs),
(105,381,o),
(161,462,o),
(257,462,cs),
(347,462,o),
(409,390,o),
(409,283,cs),
(409,197,ls),
(409,90,o),
(347,18,o),
(257,18,cs)
);
}
);
userData = {
com.hugojourdan.ColorFlow = {
"0" = 0;
"1" = 0;
"10" = 0;
"11" = 0;
"2" = 0;
"3" = 0;
"4" = 0;
"5" = 0;
"6" = 0;
"7" = 0;
"8" = 0;
"9" = 0;
};
};
width = 542;
},
{
layerId = "FF73925E-1E34-445B-881D-5A7CAAA8E8BE";
shapes = (
{
closed = 1;
nodes = (
(314,-10,o),
(365,22,o),
(388,85,c),
(370,112,l),
(370,67,o),
(373,31,o),
(380,0,c),
(529,0,l),
(522,31,o),
(519,67,o),
(519,112,cs),
(519,700,l),
(350,700,l),
(350,425,l),
(369,447,l),
(342,489,o),
(297,510,o),
(235,510,cs),
(108,510,o),
(32,414,o),
(32,252,cs),
(32,88,o),
(109,-10,o),
(237,-10,cs)
);
},
{
closed = 1;
nodes = (
(232,64,o),
(206,128,o),
(206,251,cs),
(206,374,o),
(232,436,o),
(282,436,cs),
(323,436,o),
(350,398,o),
(350,342,cs),
(350,158,ls),
(350,103,o),
(322,64,o),
(281,64,cs)
);
}
);
userData = {
com.hugojourdan.ColorFlow = {
"0" = 0;
"1" = 0;
"10" = 0;
"11" = 0;
"2" = 0;
"3" = 0;
"4" = 0;
"5" = 0;
"6" = 0;
"7" = 0;
"8" = 0;
"9" = 0;
};
};
width = 568;
},
{
layerId = "BF6BA5B2-0556-42F4-A103-614BEBF16A1A";
shapes = (
{
closed = 1;
nodes = (
(339,-10,o),
(397,31,o),
(422,107,c),
(410,114,l),
(410,66,o),
(412,41,o),
(420,0,c),
(501,0,l),
(493,41,o),
(491,66,o),
(491,114,cs),
(491,700,l),
(398,700,l),
(398,390,l),
(411,400,l),
(386,465,o),
(331,500,o),
(255,500,cs),
(126,500,o),
(50,405,o),
(50,246,cs),
(50,85,o),
(126,-10,o),
(255,-10,cs)
);
},
{
closed = 1;
nodes = (
(191,34,o),
(146,109,o),
(146,245,cs),
(146,381,o),
(192,456,o),
(275,456,cs),
(348,456,o),
(398,395,o),
(398,305,cs),
(398,185,ls),
(398,95,o),
(348,34,o),
(274,34,cs)
);
}
);
userData = {
com.hugojourdan.ColorFlow = {
"0" = 0;
"1" = 0;
"10" = 0;
"11" = 0;
"2" = 0;
"3" = 0;
"4" = 0;
"5" = 0;
"6" = 0;
"7" = 0;
"8" = 0;
"9" = 0;
};
};
width = 568;
},
{
associatedMasterId = "FF73925E-1E34-445B-881D-5A7CAAA8E8BE";
layerId = "37B75A61-6AC9-4492-B793-26D46BEBBD36";
name = "13 Jun 23 12.08 PM";
shapes = (
{
closed = 1;
nodes = (
(292,-10,o),
(346,24,o),
(370,87,c),
(353,87,l),
(356,60,o),
(358,30,o),
(364,0,c),
(513,0,l),
(506,39,o),
(503,76,o),
(503,112,cs),
(503,740,l),
(334,740,l),
(334,468,l),
(306,496,o),
(268,510,o),
(223,510,cs),
(102,510,o),
(34,417,o),
(34,250,cs),
(34,83,o),
(102,-10,o),
(223,-10,cs)
);
},
{
closed = 1;
nodes = (
(228,64,o),
(205,131,o),
(205,250,cs),
(205,369,o),
(228,436,o),
(278,436,cs),
(310,436,o),
(334,408,o),
(334,356,cs),
(334,144,ls),
(334,92,o),
(310,64,o),
(278,64,cs)
);
}
);
userData = {
com.hugojourdan.ColorFlow = {
"0" = 0;
"1" = 0;
"10" = 0;
"11" = 0;
"2" = 0;
"3" = 0;
"4" = 0;
"5" = 0;
"6" = 0;
"7" = 0;
"8" = 0;
"9" = 0;
};
};
width = 574;
},
{
associatedMasterId = "BF6BA5B2-0556-42F4-A103-614BEBF16A1A";
layerId = "09E2CD4A-1A0D-4F92-B478-829F2C89EA22";
name = "13 Jun 23 12.09 PM";
shapes = (
{
closed = 1;
nodes = (
(318,-10,o),
(386,47,o),
(386,107,c),
(381,107,l),
(379,71,o),
(381,36,o),
(385,0,c),
(463,0,l),
(458,42,o),
(458,85,o),
(458,127,cs),
(458,740,l),
(365,740,l),
(365,438,l),
(340,474,o),
(297,500,o),
(233,500,cs),
(115,500,o),
(50,411,o),
(50,246,cs),
(50,80,o),
(115,-10,o),
(233,-10,cs)
);
},
{
closed = 1;
nodes = (
(185,34,o),
(145,102,o),
(145,246,cs),
(145,389,o),
(185,456,o),
(264,456,cs),
(317,456,o),
(365,405,o),
(365,351,cs),
(365,140,ls),
(365,86,o),
(317,34,o),
(264,34,cs)
);
}
);
userData = {
com.hugojourdan.ColorFlow = {
"0" = 0;
"1" = 0;
"10" = 0;
"11" = 0;
"2" = 0;
"3" = 0;
"4" = 0;
"5" = 0;
"6" = 0;
"7" = 0;
"8" = 0;
"9" = 0;
};
};
width = 540;
},
{
layerId = m004;
shapes = (
{
closed = 1;
nodes = (
(353,-10,o),
(408,39,o),
(427,120,c),
(414,120,l),
(413,78,o),
(413,40,o),
(413,0,c),
(454,0,l),
(454,37,o),
(454,74,o),
(454,111,cs),
(454,700,l),
(409,700,l),
(409,365,l),
(421,381,l),
(398,453,o),
(342,490,o),
(254,490,cs),
(118,490,o),
(57,402,o),
(57,240,cs),
(57,78,o),
(118,-10,o),
(252,-10,cs)
);
},
{
closed = 1;
nodes = (
(156,35,o),
(105,111,o),
(105,240,cs),
(105,369,o),
(156,445,o),
(258,445,cs),
(343,445,o),
(409,392,o),
(409,240,cs),
(409,240,ls),
(409,88,o),
(343,35,o),
(258,35,cs)
);
}
);
userData = {
com.hugojourdan.ColorFlow = {
"0" = 0;
"1" = 0;
"10" = 0;
"11" = 0;
"2" = 0;
"3" = 0;
"4" = 0;
"5" = 0;
"6" = 0;
"7" = 0;
"8" = 0;
"9" = 0;
};
};
width = 542;
},
{
layerId = m005;
shapes = (
{
closed = 1;
nodes = (
(341,-10,o),
(399,29,o),
(422,107,c),
(407,107,l),
(407,71,o),
(407,36,o),
(407,0,c),
(490,0,l),
(490,38,o),
(490,75,o),
(490,111,cs),
(490,700,l),
(397,700,l),
(397,387,l),
(410,405,l),
(385,467,o),
(333,498,o),
(252,498,cs),
(118,498,o),
(50,412,o),
(50,244,cs),
(50,76,o),
(118,-10,o),
(250,-10,cs)
);
},
{
closed = 1;
nodes = (
(189,66,o),
(145,128,o),
(145,244,cs),
(145,360,o),
(189,422,o),
(271,422,cs),
(410,422,o),
(397,244,o),
(397,244,cs),
(397,244,ls),
(397,244,o),
(410,66,o),
(271,66,cs)
);
}
);
userData = {
com.hugojourdan.ColorFlow = {
"0" = 0;
"1" = 0;
"10" = 0;
"11" = 0;
"2" = 0;
"3" = 0;
"4" = 0;
"5" = 0;
"6" = 0;
"7" = 0;
"8" = 0;
"9" = 0;
};
};
width = 568;
},
{
layerId = m006;
shapes = (
{
closed = 1;
nodes = (
(311,-10,o),
(363,26,o),
(386,97,c),
(369,97,l),
(369,60,o),
(369,30,o),
(369,0,c),
(519,0,l),
(519,39,o),
(519,76,o),
(519,112,cs),
(519,700,l),
(350,700,l),
(350,413,l),
(367,429,l),
(339,486,o),
(300,510,o),
(234,510,cs),
(102,510,o),
(32,420,o),
(32,250,cs),
(32,81,o),
(102,-10,o),
(231,-10,cs)
);
},
{
closed = 1;
nodes = (
(228,119,o),
(206,158,o),
(206,248,cs),
(206,337,o),
(228,376,o),
(278,376,cs),
(328,376,o),
(350,337,o),
(350,248,cs),
(350,248,ls),
(350,159,o),
(328,119,o),
(278,119,cs)
);
}
);
userData = {
com.hugojourdan.ColorFlow = {
"0" = 0;
"1" = 0;
"10" = 0;
"11" = 0;
"2" = 0;
"3" = 0;
"4" = 0;
"5" = 0;
"6" = 0;
"7" = 0;
"8" = 0;
"9" = 0;
};
};
width = 568;
}
);
metricLeft = "=o";
metricRight = "=|n*1.02";
note = d;
unicode = 100;
},
{
glyphname = e;
kernLeft = KO_e;
kernRight = KO_e;
lastChange = "2023-06-15 09:19:08 +0000";
layers = (
{
anchors = (
{
name = top;
pos = (270,480);
}
);
background = {
shapes = (
{
ref = o;
}
);
};
layerId = m01;
shapes = (
{
closed = 1;
nodes = (
(328,-10,o),
(387,18,o),
(435,75,c),
(391,108,l),
(361,48,o),
(316,18,o),
(259,18,cs),
(163,18,o),
(103,105,o),
(105,243,cs),
(105,249,ls),
(105,383,o),
(166,462,o),
(268,462,cs),
(349,462,o),
(402,409,o),
(402,327,cs),
(402,305,o),
(399,280,o),
(391,249,c),
(434,279,l),
(89,258,l),
(89,233,l),
(438,240,l),
(443,267,o),
(446,294,o),
(446,318,cs),
(446,425,o),
(379,490,o),
(268,490,cs),
(132,490,o),
(57,401,o),
(57,240,cs),
(57,83,o),
(132,-10,o),
(258,-10,cs)
);
}
);
userData = {
com.hugojourdan.ColorFlow = {
"0" = 0;
"1" = 0;
"10" = 0;
"11" = 0;
"2" = 0;
"3" = 0;
"4" = 0;
"5" = 0;
"6" = 0;
"7" = 0;
"8" = 0;
"9" = 0;
};
};
width = 503;
},
{
anchors = (
{
name = top;
pos = (279,490);
}
);
background = {
shapes = (
{
ref = o;
}
);
};
layerId = "BF6BA5B2-0556-42F4-A103-614BEBF16A1A";
shapes = (
{
closed = 1;
nodes = (
(364,-10,o),
(424,22,o),
(458,88,c),
(397,130,l),
(378,69,o),
(335,34,o),
(280,34,cs),
(199,34,o),
(144,121,o),
(144,247,cs),
(144,252,ls),
(144,381,o),
(195,458,o),
(280,458,cs),
(350,458,o),
(389,408,o),
(389,319,cs),
(389,282,o),
(388,269,o),
(380,243,c),
(425,281,l),
(102,259,l),
(102,227,l),
(459,234,l),
(466,257,o),
(468,278,o),
(468,302,cs),
(468,430,o),
(400,500,o),
(278,500,cs),
(137,500,o),
(50,400,o),
(50,240,cs),
(50,77,o),
(129,-10,o),
(274,-10,cs)
);
}
);
userData = {
com.hugojourdan.ColorFlow = {
"0" = 0;
"1" = 0;
"10" = 0;
"11" = 0;
"2" = 0;
"3" = 0;
"4" = 0;
"5" = 0;
"6" = 0;
"7" = 0;
"8" = 0;
"9" = 0;
};
};
width = 518;
},
{
anchors = (
{
name = top;
pos = (272,500);
}
);
associatedMasterId = "FF73925E-1E34-445B-881D-5A7CAAA8E8BE";
layerId = "7BB96231-CDA0-4CDC-B115-3163B4645357";
name = "12 Jun 23 1.21 PM";
shapes = (
{
closed = 1;
nodes = (
(184,219,l),
(466,225,l),
(472,252,o),
(477,283,o),
(477,316,cs),
(477,410,o),
(437,510,o),
(271,510,cs),
(125,510,o),
(34,410,o),
(34,250,cs),
(34,81,o),
(116,-10,o),
(268,-10,cs),
(359,-10,o),
(431,24,o),
(487,93,c),
(406,146,l),
(390,97,o),
(346,64,o),
(298,64,cs),
(237,64,o),
(203,118,o),
(200,224,cs),
(200,259,ls),
(196,362,o),
(224,436,o),
(273,436,cs),
(311,436,o),
(330,401,o),
(330,331,cs),
(330,309,o),
(328,292,o),
(325,281,c),
(184,263,l)
);
}
);
userData = {
com.hugojourdan.ColorFlow = {
"0" = 0;
"1" = 0;
"10" = 0;
"11" = 0;
"2" = 0;
"3" = 0;
"4" = 0;
"5" = 0;
"6" = 0;
"7" = 0;
"8" = 0;
"9" = 0;
};
};
width = 517;
},
{
anchors = (
{
name = top;
pos = (275,500);
}
);
background = {
shapes = (
{
ref = o;
}
);
};
guides = (
{
angle = 146.8024;
pos = (450,120);
}
);
layerId = "FF73925E-1E34-445B-881D-5A7CAAA8E8BE";
name = Bold;
shapes = (
{
closed = 1;
nodes = (
(374,-10,o),
(439,22,o),
(495,93,c),
(405,152,l),
(386,100,o),
(348,64,o),
(301,64,cs),
(237,64,o),
(204,123,o),
(204,238,cs),
(204,246,ls),
(204,360,o),
(236,436,o),
(284,436,cs),
(322,436,o),
(337,406,o),
(337,331,cs),
(337,302,o),
(334,279,o),
(326,248,c),
(373,287,l),
(158,259,l),
(158,218,l),
(484,225,l),
(492,265,o),
(495,294,o),
(495,316,cs),
(495,440,o),
(417,510,o),
(280,510,cs),
(126,510,o),
(32,411,o),
(32,250,cs),
(32,86,o),
(125,-10,o),
(284,-10,cs)
);
}
);
userData = {
com.hugojourdan.ColorFlow = {
"0" = 0;
"1" = 0;
"10" = 0;
"11" = 0;
"2" = 0;
"3" = 0;
"4" = 0;
"5" = 0;
"6" = 0;
"7" = 0;
"8" = 0;
"9" = 0;
};
};
width = 527;
},
{
anchors = (
{
name = top;
pos = (258,480);
}
);
layerId = m004;
shapes = (
{
closed = 1;
nodes = (
(331,-10,o),
(386,18,o),
(431,75,c),
(393,104,l),
(357,58,o),
(308,34,o),
(259,34,cs),
(182,34,o),
(105,92,o),
(105,223,cs),
(105,249,ls),
(105,380,o),
(159,446,o),
(256,446,cs),
(353,446,o),
(398,381,o),
(398,296,cs),
(398,286,o),
(398,263,o),
(398,254,c),
(423,276,l),
(93,276,l),
(93,231,l),
(446,231,l),
(446,244,o),
(446,259,o),
(446,276,cs),
(446,408,o),
(385,490,o),
(260,490,cs),
(129,490,o),
(57,400,o),
(57,240,cs),
(57,76,o),
(132,-10,o),
(256,-10,cs)
);
}
);
userData = {
com.hugojourdan.ColorFlow = {
"0" = 0;
"1" = 0;
"10" = 0;
"11" = 0;
"2" = 0;
"3" = 0;
"4" = 0;
"5" = 0;
"6" = 0;
"7" = 0;
"8" = 0;
"9" = 0;
};
};
width = 503;
},
{
anchors = (
{
name = top;
pos = (266,488);
}
);
layerId = m005;
shapes = (
{
closed = 1;
nodes = (
(349,-10,o),
(407,19,o),
(455,82,c),
(392,128,l),
(364,89,o),
(316,65,o),
(270,65,cs),
(191,65,o),
(144,126,o),
(144,229,cs),
(144,248,ls),
(144,364,o),
(186,425,o),
(265,425,cs),
(334,425,o),
(378,376,o),
(378,298,cs),
(378,284,o),
(378,266,o),
(378,256,c),
(411,281,l),
(113,281,l),
(113,217,l),
(466,217,l),
(467,234,o),
(468,250,o),
(468,269,cs),
(468,416,o),
(396,498,o),
(268,498,cs),
(130,498,o),
(50,405,o),
(50,242,cs),
(50,83,o),
(131,-10,o),
(269,-10,cs)
);
}
);
userData = {
com.hugojourdan.ColorFlow = {
"0" = 0;
"1" = 0;
"10" = 0;
"11" = 0;
"2" = 0;
"3" = 0;
"4" = 0;
"5" = 0;
"6" = 0;
"7" = 0;
"8" = 0;
"9" = 0;
};
};
width = 518;
},
{
anchors = (
{
name = top;
pos = (270,500);
}
);
layerId = m006;
shapes = (
{
closed = 1;
nodes = (
(368,-10,o),
(431,22,o),
(485,93,c),
(382,166,l),
(360,136,o),
(319,113,o),
(287,113,cs),
(228,113,o),
(197,156,o),
(197,238,cs),
(197,247,ls),
(197,340,o),
(224,392,o),
(271,392,cs),
(310,392,o),
(338,355,o),
(338,302,cs),
(338,281,o),
(338,270,o),
(338,259,c),
(383,289,l),
(136,289,l),
(136,196,l),
(489,196,l),
(493,211,o),
(495,234,o),
(495,258,cs),
(495,419,o),
(415,510,o),
(272,510,cs),
(121,510,o),
(32,411,o),
(32,244,cs),
(32,86,o),
(125,-10,o),
(280,-10,cs)
);
}
);
userData = {
com.hugojourdan.ColorFlow = {
"0" = 0;
"1" = 0;
"10" = 0;
"11" = 0;
"2" = 0;
"3" = 0;
"4" = 0;
"5" = 0;
"6" = 0;
"7" = 0;
"8" = 0;
"9" = 0;
};
};
width = 527;
}
);
metricLeft = "=o";
metricRight = "=|";
note = e;
unicode = 101;
},
{
glyphname = f;
kernLeft = KO_f;
kernRight = KO_f;
lastChange = "2023-06-15 07:41:17 +0000";
layers = (
{
layerId = m01;
shapes = (
{
closed = 1;
nodes = (
(146,0,l),
(146,452,l),
(289,452,l),
(289,480,l),
(16,472,l),
(16,452,l),
(101,452,l),
(101,0,l)
);
},
{
closed = 1;
nodes = (
(143,469,l),
(137,523,o),
(136,539,o),
(136,557,cs),
(136,638,o),
(168,682,o),
(228,682,cs),
(277,682,o),
(317,653,o),
(344,597,c),
(383,634,l),
(340,684,o),
(287,710,o),
(228,710,cs),
(149,710,o),
(101,652,o),
(101,558,cs),
(101,469,l)
);
}
);
userData = {
com.hugojourdan.ColorFlow = {
"0" = 0;
"1" = 0;
"10" = 0;
"11" = 0;
"2" = 0;
"3" = 0;
"4" = 0;
"5" = 0;
"6" = 0;
"7" = 0;
"8" = 0;
"9" = 0;
};
};
width = 294;
},
{
layerId = "FF73925E-1E34-445B-881D-5A7CAAA8E8BE";
shapes = (
{
closed = 1;
nodes = (
(245,0,l),
(245,437,l),
(346,437,l),
(346,500,l),
(3,486,l),
(3,437,l),
(76,437,l),
(76,0,l)
);
},
{
closed = 1;
nodes = (
(245,464,l),
(205,504,o),
(187,541,o),
(187,590,cs),
(187,642,o),
(206,664,o),
(251,664,cs),
(284,664,o),
(317,639,o),
(350,590,c),
(412,650,l),
(366,701,o),
(306,730,o),
(246,730,cs),
(143,730,o),
(76,661,o),
(76,554,cs),
(76,464,l)
);
}
);
userData = {
com.hugojourdan.ColorFlow = {
"0" = 0;
"1" = 0;
"10" = 0;
"11" = 0;
"2" = 0;
"3" = 0;
"4" = 0;
"5" = 0;
"6" = 0;
"7" = 0;
"8" = 0;
"9" = 0;
};
};
width = 354;
},
{
background = {
shapes = (
{
closed = 0;
nodes = (
(174,576,ls),
(174,634,o),
(202,677,o),
(240,677,cs),
(276,677,o),
(310,652,o),
(336,607,c),
(386,666,l),
(346,701,o),
(297,720,o),
(244,720,cs),
(153,720,o),
(93,653,o),
(93,553,cs)
);
}
);
};
layerId = "BF6BA5B2-0556-42F4-A103-614BEBF16A1A";
shapes = (
{
closed = 1;
nodes = (
(184,0,l),
(184,445,l),
(311,445,l),
(311,490,l),
(11,480,l),
(11,445,l),
(91,445,l),
(91,0,l)
);
},
{
closed = 1;
nodes = (
(184,477,l),
(165,506,o),
(156,536,o),
(156,567,cs),
(156,631,o),
(191,677,o),
(240,677,cs),
(276,677,o),
(309,653,o),
(336,607,c),
(386,666,l),
(342,704,o),
(300,720,o),
(245,720,cs),
(151,720,o),
(92,653,o),
(92,545,cs),
(92,475,l)
);
}
);
userData = {
com.hugojourdan.ColorFlow = {
"0" = 0;
"1" = 0;
"10" = 0;
"11" = 0;
"2" = 0;
"3" = 0;
"4" = 0;
"5" = 0;
"6" = 0;
"7" = 0;
"8" = 0;
"9" = 0;
};
};
width = 317;
},
{
associatedMasterId = "FF73925E-1E34-445B-881D-5A7CAAA8E8BE";
layerId = "97D26A38-0955-4BE2-A563-75E9F64BB563";
name = "13 Jun 23 5.05 PM";
shapes = (
{
closed = 1;
nodes = (
(245,0,l),
(245,437,l),
(346,437,l),
(346,500,l),
(3,486,l),
(3,437,l),
(76,437,l),
(76,0,l)
);
},
{
closed = 1;
nodes = (
(245,464,l),
(183,505,o),
(158,541,o),
(158,588,cs),
(158,641,o),
(190,674,o),
(243,674,cs),
(284,674,o),
(330,649,o),
(360,610,c),
(412,680,l),
(374,718,o),
(317,740,o),
(255,740,cs),
(142,740,o),
(76,672,o),
(76,555,cs),
(76,464,l)
);
}
);
userData = {
com.hugojourdan.ColorFlow = {
"0" = 0;
"1" = 0;
"10" = 0;
"11" = 0;
"2" = 0;
"3" = 0;
"4" = 0;
"5" = 0;
"6" = 0;
"7" = 0;
"8" = 0;
"9" = 0;
};
};
width = 354;
},
{
associatedMasterId = "BF6BA5B2-0556-42F4-A103-614BEBF16A1A";
background = {
shapes = (
{
closed = 0;
nodes = (
(174,576,ls),
(174,634,o),
(202,677,o),
(240,677,cs),
(276,677,o),
(310,652,o),
(336,607,c),
(386,666,l),
(346,701,o),
(297,720,o),
(244,720,cs),
(153,720,o),
(93,653,o),
(93,553,cs)
);
}
);
};
layerId = "86D99777-783F-467F-9C7F-8AA797AB2347";
name = "13 Jun 23 5.11 PM";
shapes = (
{
closed = 1;
nodes = (
(184,0,l),
(184,445,l),
(311,445,l),
(311,490,l),
(11,480,l),
(11,445,l),
(91,445,l),
(91,0,l)
);
},
{
closed = 1;
nodes = (
(184,477,l),
(166,508,o),
(156,538,o),
(156,567,cs),
(156,631,o),
(193,676,o),
(245,676,cs),
(288,676,o),
(328,647,o),
(354,598,c),
(385,669,l),
(350,702,o),
(303,720,o),
(252,720,cs),
(153,720,o),
(92,655,o),
(92,549,cs),
(92,475,l)
);
}
);
userData = {
com.hugojourdan.ColorFlow = {
"0" = 0;
"1" = 0;
"10" = 0;
"11" = 0;
"2" = 0;
"3" = 0;
"4" = 0;
"5" = 0;
"6" = 0;
"7" = 0;
"8" = 0;
"9" = 0;
};
};
width = 317;
},
{
layerId = m004;
shapes = (
{
closed = 1;
nodes = (
(146,0,l),
(146,437,l),
(289,437,l),
(289,480,l),
(16,480,l),
(16,437,l),
(101,437,l),
(101,0,l)
);
},
{
closed = 1;
nodes = (
(146,469,l),
(146,518,o),
(146,536,o),
(146,557,cs),
(146,627,o),
(169,666,o),
(232,666,cs),
(278,666,o),
(317,644,o),
(350,603,c),
(383,634,l),
(340,684,o),
(287,710,o),
(228,710,cs),
(149,710,o),
(101,652,o),
(101,558,cs),
(101,469,l)
);
}
);
userData = {
com.hugojourdan.ColorFlow = {
"0" = 0;
"1" = 0;
"10" = 0;
"11" = 0;
"2" = 0;
"3" = 0;
"4" = 0;
"5" = 0;
"6" = 0;
"7" = 0;
"8" = 0;
"9" = 0;
};
};
width = 294;
},
{
layerId = m005;
shapes = (
{
closed = 1;
nodes = (
(184,0,l),
(184,416,l),
(311,416,l),
(311,488,l),
(11,488,l),
(11,416,l),
(91,416,l),
(91,0,l)
);
},
{
closed = 1;
nodes = (
(184,471,l),
(184,511,o),
(184,536,o),
(184,556,cs),
(184,610,o),
(205,642,o),
(253,642,cs),
(288,642,o),
(320,625,o),
(350,594,c),
(394,650,l),
(354,695,o),
(297,720,o),
(236,720,cs),
(146,720,o),
(91,660,o),
(91,559,cs),
(91,471,l)
);
}
);
userData = {
com.hugojourdan.ColorFlow = {
"0" = 0;
"1" = 0;
"10" = 0;
"11" = 0;
"2" = 0;
"3" = 0;
"4" = 0;
"5" = 0;
"6" = 0;
"7" = 0;
"8" = 0;
"9" = 0;
};
};
width = 317;
},
{
layerId = m006;
shapes = (
{
closed = 1;
nodes = (
(245,0,l),
(245,383,l),
(346,383,l),
(346,500,l),
(3,500,l),
(3,383,l),
(76,383,l),
(76,0,l)
);
},
{
closed = 1;
nodes = (
(245,474,l),
(245,495,o),
(245,531,o),
(245,548,cs),
(245,578,o),
(261,597,o),
(286,597,cs),
(303,597,o),
(325,589,o),
(349,573,c),
(412,670,l),
(375,707,o),
(312,730,o),
(248,730,cs),
(141,730,o),
(76,668,o),
(76,555,cs),
(76,474,l)
);
}
);
userData = {
com.hugojourdan.ColorFlow = {
"0" = 0;
"1" = 0;
"10" = 0;
"11" = 0;
"2" = 0;
"3" = 0;
"4" = 0;
"5" = 0;
"6" = 0;
"7" = 0;
"8" = 0;
"9" = 0;
};
};
width = 354;
}
);
note = f;
unicode = 102;
},
{
glyphname = g;
kernLeft = KO_g;
kernRight = KO_g;
lastChange = "2023-06-15 09:52:59 +0000";
layers = (
{
layerId = m01;
shapes = (
{
closed = 1;
nodes = (
(372,-185,o),
(446,-130,o),
(446,-31,cs),
(446,47,o),
(400,86,o),
(307,86,cs),
(194,86,ls),
(141,86,o),
(113,103,o),
(113,136,cs),
(113,166,o),
(140,186,o),
(181,186,cs),
(248,186,l),
(248,208,l),
(181,208,ls),
(112,208,o),
(70,175,o),
(70,120,cs),
(70,70,o),
(106,38,o),
(163,38,cs),
(299,38,ls),
(373,38,o),
(404,13,o),
(404,-45,cs),
(404,-121,o),
(350,-159,o),
(242,-159,cs),
(139,-159,o),
(84,-123,o),
(84,-56,cs),
(84,-15,o),
(110,18,o),
(162,41,c),
(144,49,l),
(84,23,o),
(55,-15,o),
(55,-65,cs),
(55,-143,o),
(119,-185,o),
(237,-185,cs)
);
},
{
closed = 1;
nodes = (
(352,186,o),
(417,245,o),
(417,338,cs),
(417,431,o),
(352,490,o),
(248,490,cs),
(143,490,o),
(77,431,o),
(77,338,cs),
(77,245,o),
(143,186,o),
(248,186,cs)
);
},
{
closed = 1;
nodes = (
(172,212,o),
(125,261,o),
(125,338,cs),
(125,415,o),
(172,464,o),
(248,464,cs),
(322,464,o),
(369,415,o),
(369,338,cs),
(369,261,o),
(322,212,o),
(248,212,cs)
);
},
{
closed = 1;
nodes = (
(401,442,o),
(426,468,o),
(452,468,cs),
(459,468,o),
(466,466,o),
(477,461,c),
(488,502,l),
(477,508,o),
(466,510,o),
(456,510,cs),
(416,510,o),
(388,477,o),
(380,423,c),
(395,409,l)
);
}
);
userData = {
com.hugojourdan.ColorFlow = {
"0" = 0;
"1" = 0;
"10" = 0;
"11" = 0;
"2" = 0;
"3" = 0;
"4" = 0;
"5" = 0;
"6" = 0;
"7" = 0;
"8" = 0;
"9" = 0;
};
};
width = 490;
},
{
layerId = "FF73925E-1E34-445B-881D-5A7CAAA8E8BE";
shapes = (
{
closed = 1;
nodes = (
(401,-185,o),
(487,-131,o),
(487,-27,cs),
(487,80,o),
(397,130,o),
(297,130,cs),
(193,130,ls),
(165,130,o),
(145,142,o),
(145,158,cs),
(145,174,o),
(165,184,o),
(193,184,cs),
(255,184,l),
(255,223,l),
(181,223,ls),
(100,223,o),
(47,178,o),
(47,108,cs),
(47,35,o),
(103,-17,o),
(182,-17,cs),
(317,-17,ls),
(380,-17,o),
(402,-29,o),
(402,-60,cs),
(402,-107,o),
(353,-129,o),
(248,-129,cs),
(146,-129,o),
(93,-108,o),
(93,-67,cs),
(93,-40,o),
(116,-19,o),
(162,-7,c),
(133,21,l),
(68,-2,o),
(35,-38,o),
(35,-84,cs),
(35,-151,o),
(103,-185,o),
(235,-185,cs)
);
},
{
closed = 1;
nodes = (
(387,184,o),
(461,243,o),
(461,347,cs),
(461,451,o),
(387,510,o),
(255,510,cs),
(123,510,o),
(49,451,o),
(49,347,cs),
(49,243,o),
(123,184,o),
(255,184,cs)
);
},
{
closed = 1;
nodes = (
(220,258,o),
(200,290,o),
(200,348,cs),
(200,404,o),
(220,436,o),
(255,436,cs),
(290,436,o),
(310,404,o),
(310,348,cs),
(310,290,o),
(290,258,o),
(255,258,cs)
);
},
{
closed = 1;
nodes = (
(429,441,o),
(452,455,o),
(478,455,cs),
(491,455,o),
(503,451,o),
(509,444,c),
(540,521,l),
(523,534,o),
(502,540,o),
(483,540,cs),
(435,540,o),
(405,502,o),
(397,438,c),
(421,421,l)
);
}
);
userData = {
com.hugojourdan.ColorFlow = {
"0" = 0;
"1" = 0;
"10" = 0;
"11" = 0;
"2" = 0;
"3" = 0;
"4" = 0;
"5" = 0;
"6" = 0;
"7" = 0;
"8" = 0;
"9" = 0;
};
};
width = 515;
},
{
layerId = "BF6BA5B2-0556-42F4-A103-614BEBF16A1A";
shapes = (
{
closed = 1;
nodes = (
(383,-185,o),
(462,-131,o),
(462,-31,cs),
(462,59,o),
(401,100,o),
(265,100,cs),
(193,100,ls),
(156,100,o),
(130,119,o),
(130,146,cs),
(130,173,o),
(156,192,o),
(193,192,cs),
(251,192,l),
(251,215,l),
(192,215,ls),
(106,215,o),
(61,182,o),
(61,120,cs),
(61,52,o),
(114,15,o),
(209,15,cs),
(306,15,ls),
(373,15,o),
(401,-5,o),
(401,-53,cs),
(401,-116,o),
(349,-148,o),
(243,-148,cs),
(141,-148,o),
(88,-118,o),
(88,-62,cs),
(88,-22,o),
(114,6,o),
(164,20,c),
(138,35,l),
(77,10,o),
(47,-26,o),
(47,-76,cs),
(47,-148,o),
(111,-185,o),
(235,-185,cs)
);
},
{
closed = 1;
nodes = (
(361,192,o),
(434,254,o),
(434,347,cs),
(434,440,o),
(361,500,o),
(249,500,cs),
(137,500,o),
(66,441,o),
(66,348,cs),
(66,254,o),
(139,192,o),
(251,192,cs)
);
},
{
closed = 1;
nodes = (
(191,228,o),
(154,273,o),
(154,347,cs),
(154,420,o),
(190,464,o),
(251,464,cs),
(311,464,o),
(346,421,o),
(346,347,cs),
(346,272,o),
(311,228,o),
(251,228,cs)
);
},
{
closed = 1;
nodes = (
(422,450,o),
(432,462,o),
(453,462,cs),
(464,462,o),
(475,458,o),
(486,450,c),
(500,511,l),
(487,517,o),
(474,520,o),
(461,520,cs),
(419,520,o),
(394,487,o),
(393,428,c),
(412,412,l)
);
}
);
userData = {
com.hugojourdan.ColorFlow = {
"0" = 0;
"1" = 0;
"10" = 0;
"11" = 0;
"2" = 0;
"3" = 0;
"4" = 0;
"5" = 0;
"6" = 0;
"7" = 0;
"8" = 0;
"9" = 0;
};
};
width = 499;
},
{
layerId = m004;
shapes = (
{
closed = 1;
nodes = (
(372,-204,o),
(446,-148,o),
(446,-47,cs),
(446,34,o),
(400,74,o),
(307,74,cs),
(194,74,ls),
(141,74,o),
(113,92,o),
(113,127,cs),
(113,159,o),
(140,180,o),
(181,180,cs),
(248,180,l),
(248,211,l),
(181,211,ls),
(112,211,o),
(70,175,o),
(70,115,cs),
(70,61,o),
(106,26,o),
(163,26,cs),
(302,26,ls),
(371,26,o),
(401,2,o),
(401,-53,cs),
(401,-124,o),
(350,-159,o),
(248,-159,cs),
(149,-159,o),
(94,-125,o),
(94,-64,cs),
(94,-23,o),
(119,7,o),
(170,29,c),
(144,46,l),
(84,18,o),
(55,-22,o),
(55,-77,cs),
(55,-159,o),
(119,-204,o),
(238,-204,cs)
);
},
{
closed = 1;
nodes = (
(352,180,o),
(417,240,o),
(417,335,cs),
(417,430,o),
(352,490,o),
(248,490,cs),
(143,490,o),
(77,430,o),
(77,335,cs),
(77,240,o),
(143,180,o),
(248,180,cs)
);
},
{
closed = 1;
nodes = (
(173,225,o),
(125,268,o),
(125,335,cs),
(125,402,o),
(173,445,o),
(248,445,cs),
(322,445,o),
(369,402,o),
(369,335,cs),
(369,268,o),
(322,225,o),
(248,225,cs)
);
},
{
closed = 1;
nodes = (
(401,420,o),
(427,443,o),
(455,443,cs),
(463,443,o),
(470,441,o),
(476,437,c),
(488,482,l),
(474,488,o),
(464,490,o),
(453,490,cs),
(417,490,o),
(388,455,o),
(380,403,c),
(395,389,l)
);
}
);
userData = {
com.hugojourdan.ColorFlow = {
"0" = 0;
"1" = 0;
"10" = 0;
"11" = 0;
"2" = 0;
"3" = 0;
"4" = 0;
"5" = 0;
"6" = 0;
"7" = 0;
"8" = 0;
"9" = 0;
};
};
width = 490;
},
{
layerId = m005;
shapes = (
{
closed = 1;
nodes = (
(386,-204,o),
(462,-150,o),
(462,-48,cs),
(462,40,o),
(406,88,o),
(303,88,cs),
(201,88,ls),
(160,88,o),
(137,104,o),
(137,133,cs),
(137,159,o),
(160,177,o),
(193,177,cs),
(251,177,l),
(251,211,l),
(181,211,ls),
(108,211,o),
(61,171,o),
(61,108,cs),
(61,50,o),
(105,10,o),
(170,10,cs),
(292,10,ls),
(349,10,o),
(374,-8,o),
(374,-49,cs),
(374,-102,o),
(331,-129,o),
(247,-129,cs),
(166,-129,o),
(122,-103,o),
(122,-56,cs),
(122,-24,o),
(143,-1,o),
(185,15,c),
(140,37,l),
(76,10,o),
(47,-28,o),
(47,-81,cs),
(47,-162,o),
(114,-204,o),
(241,-204,cs)
);
},
{
closed = 1;
nodes = (
(366,177,o),
(434,237,o),
(434,337,cs),
(434,438,o),
(365,498,o),
(251,498,cs),
(136,498,o),
(66,437,o),
(66,337,cs),
(66,237,o),
(135,177,o),
(251,177,cs)
);
},
{
closed = 1;
nodes = (
(191,247,o),
(154,282,o),
(154,338,cs),
(154,393,o),
(191,428,o),
(251,428,cs),
(310,428,o),
(346,393,o),
(346,338,cs),
(346,282,o),
(310,247,o),
(251,247,cs)
);
},
{
closed = 1;
nodes = (
(412,412,o),
(437,429,o),
(464,429,cs),
(474,429,o),
(483,427,o),
(489,423,c),
(508,485,l),
(495,494,o),
(480,498,o),
(464,498,cs),
(424,498,o),
(395,463,o),
(387,405,c),
(405,390,l)
);
}
);
userData = {
com.hugojourdan.ColorFlow = {
"0" = 0;
"1" = 0;
"10" = 0;
"11" = 0;
"2" = 0;
"3" = 0;
"4" = 0;
"5" = 0;
"6" = 0;
"7" = 0;
"8" = 0;
"9" = 0;
};
};
width = 500;
},
{
layerId = m006;
shapes = (
{
closed = 1;
nodes = (
(407,-204,o),
(487,-152,o),
(487,-49,cs),
(487,54,o),
(408,111,o),
(297,111,cs),
(213,111,ls),
(191,111,o),
(175,124,o),
(175,142,cs),
(175,160,o),
(191,172,o),
(213,172,cs),
(255,172,l),
(255,211,l),
(181,211,ls),
(100,211,o),
(47,161,o),
(47,98,cs),
(47,31,o),
(107,-16,o),
(182,-16,cs),
(277,-16,ls),
(308,-16,o),
(332,-20,o),
(332,-43,cs),
(332,-68,o),
(302,-81,o),
(245,-81,cs),
(191,-81,o),
(167,-69,o),
(167,-44,cs),
(167,-26,o),
(180,-14,o),
(208,-6,c),
(133,22,l),
(64,-3,o),
(35,-37,o),
(35,-87,cs),
(35,-163,o),
(104,-204,o),
(247,-204,cs)
);
},
{
closed = 1;
nodes = (
(387,172,o),
(461,233,o),
(461,341,cs),
(461,449,o),
(387,510,o),
(255,510,cs),
(123,510,o),
(49,449,o),
(49,341,cs),
(49,233,o),
(123,172,o),
(255,172,cs)
);
},
{
closed = 1;
nodes = (
(220,281,o),
(200,303,o),
(200,342,cs),
(200,379,o),
(220,401,o),
(255,401,cs),
(290,401,o),
(310,379,o),
(310,342,cs),
(310,303,o),
(290,281,o),
(255,281,cs)
);
},
{
closed = 1;
nodes = (
(430,403,o),
(455,408,o),
(477,408,cs),
(491,408,o),
(503,405,o),
(509,400,c),
(540,491,l),
(521,504,o),
(501,510,o),
(481,510,cs),
(436,510,o),
(405,472,o),
(397,408,c),
(421,391,l)
);
}
);
userData = {
com.hugojourdan.ColorFlow = {
"0" = 0;
"1" = 0;
"10" = 0;
"11" = 0;
"2" = 0;
"3" = 0;
"4" = 0;
"5" = 0;
"6" = 0;
"7" = 0;
"8" = 0;
"9" = 0;
};
};
width = 515;
}
);
note = g;
unicode = 103;
},
{
glyphname = h;
kernLeft = KO_l;
kernRight = KO_n;
lastChange = "2023-06-15 07:40:28 +0000";
layers = (
{
layerId = "FF73925E-1E34-445B-881D-5A7CAAA8E8BE";
shapes = (
{
closed = 1;
nodes = (
(217,0,l),
(217,356,ls),
(217,407,o),
(253,436,o),
(286,436,cs),
(320,436,o),
(337,407,o),
(337,349,cs),
(337,0,l),
(506,0,l),
(506,330,ls),
(506,450,o),
(438,510,o),
(344,510,cs),
(271,510,o),
(219,475,o),
(189,404,c),
(217,390,l),
(217,700,l),
(48,700,l),
(48,0,l)
);
}
);
userData = {
com.hugojourdan.ColorFlow = {
"0" = 0;
"1" = 0;
"10" = 0;
"11" = 0;
"2" = 0;
"3" = 0;
"4" = 0;
"5" = 0;
"6" = 0;
"7" = 0;
"8" = 0;
"9" = 0;
};
};
width = 549;
},
{
layerId = "BF6BA5B2-0556-42F4-A103-614BEBF16A1A";
shapes = (
{
closed = 1;
nodes = (
(169,0,l),
(169,353,ls),
(169,420,o),
(231,455,o),
(283,455,cs),
(340,455,o),
(368,412,o),
(368,326,cs),
(368,0,l),
(460,0,l),
(460,320,ls),
(460,440,o),
(409,500,o),
(305,500,cs),
(226,500,o),
(171,463,o),
(142,389,c),
(169,374,l),
(169,700,l),
(76,700,l),
(76,0,l)
);
}
);
userData = {
com.hugojourdan.ColorFlow = {
"0" = 0;
"1" = 0;
"10" = 0;
"11" = 0;
"2" = 0;
"3" = 0;
"4" = 0;
"5" = 0;
"6" = 0;
"7" = 0;
"8" = 0;
"9" = 0;
};
};
width = 531;
},
{
layerId = m004;
shapes = (
{
closed = 1;
nodes = (
(131,0,l),
(131,281,ls),
(131,376,o),
(191,445,o),
(277,445,cs),
(342,445,o),
(379,406,o),
(379,305,cs),
(379,0,l),
(424,0,l),
(424,309,ls),
(424,430,o),
(376,489,o),
(279,489,cs),
(199,489,o),
(141,449,o),
(113,373,c),
(131,359,l),
(131,700,l),
(86,700,l),
(86,0,l)
);
}
);
userData = {
com.hugojourdan.ColorFlow = {
"0" = 0;
"1" = 0;
"10" = 0;
"11" = 0;
"2" = 0;
"3" = 0;
"4" = 0;
"5" = 0;
"6" = 0;
"7" = 0;
"8" = 0;
"9" = 0;
};
};
width = 515;
},
{
layerId = m005;
shapes = (
{
closed = 1;
nodes = (
(169,0,l),
(169,291,ls),
(169,369,o),
(220,422,o),
(285,422,cs),
(338,422,o),
(368,387,o),
(368,303,cs),
(368,0,l),
(461,0,l),
(461,317,ls),
(461,438,o),
(403,497,o),
(305,497,cs),
(226,497,o),
(169,459,o),
(140,385,c),
(169,371,l),
(169,700,l),
(76,700,l),
(76,0,l)
);
}
);
userData = {
com.hugojourdan.ColorFlow = {
"0" = 0;
"1" = 0;
"10" = 0;
"11" = 0;
"2" = 0;
"3" = 0;
"4" = 0;
"5" = 0;
"6" = 0;
"7" = 0;
"8" = 0;
"9" = 0;
};
};
width = 542;
},
{
layerId = m006;
shapes = (
{
closed = 1;
nodes = (
(217,0,l),
(217,306,ls),
(217,357,o),
(253,386,o),
(286,386,cs),
(320,386,o),
(337,357,o),
(337,299,cs),
(337,0,l),
(506,0,l),
(506,330,ls),
(506,450,o),
(434,510,o),
(334,510,cs),
(256,510,o),
(201,475,o),
(169,404,c),
(217,390,l),
(217,700,l),
(48,700,l),
(48,0,l)
);
}
);
userData = {
com.hugojourdan.ColorFlow = {
"0" = 0;
"1" = 0;
"10" = 0;
"11" = 0;
"2" = 0;
"3" = 0;
"4" = 0;
"5" = 0;
"6" = 0;
"7" = 0;
"8" = 0;
"9" = 0;
};
};
width = 559;
},
{
associatedMasterId = m01;
layerId = "4A91CF86-C814-46C8-AE06-119107D25A1E";
name = "15 Jun 23 2.40 PM";
shapes = (
{
closed = 1;
nodes = (
(131,0,l),
(131,327,ls),
(131,400,o),
(198,460,o),
(280,460,cs),
(354,460,o),
(391,408,o),
(391,305,cs),
(391,0,l),
(436,0,l),
(436,310,ls),
(436,429,o),
(385,490,o),
(284,490,cs),
(199,490,o),
(138,446,o),
(115,369,c),
(131,369,l),
(131,700,l),
(86,700,l),
(86,0,l)
);
}
);
userData = {
com.hugojourdan.ColorFlow = {
"0" = 0;
"1" = 0;
"10" = 0;
"11" = 0;
"2" = 0;
"3" = 0;
"4" = 0;
"5" = 0;
"6" = 0;
"7" = 0;
"8" = 0;
"9" = 0;
};
};
width = 517;
},
{
layerId = m01;
name = "Moderat ExtraLight";
shapes = (
{
closed = 1;
nodes = (
(131,0,l),
(131,338,ls),
(131,402,o),
(198,459,o),
(274,459,cs),
(344,459,o),
(379,408,o),
(379,305,cs),
(379,0,l),
(424,0,l),
(424,309,ls),
(424,430,o),
(376,489,o),
(279,489,cs),
(199,489,o),
(141,449,o),
(113,373,c),
(131,359,l),
(131,700,l),
(86,700,l),
(86,0,l)
);
}
);
userData = {
com.hugojourdan.ColorFlow = {
"0" = 0;
"1" = 0;
"10" = 0;
"11" = 0;
"2" = 0;
"3" = 0;
"4" = 0;
"5" = 0;
"6" = 0;
"7" = 0;
"8" = 0;
"9" = 0;
};
};
width = 505;
}
);
metricLeft = "=l";
metricRight = "=n";
note = h;
unicode = 104;
},
{
glyphname = idotless;
kernLeft = KO_n;
kernRight = KO_u;
lastChange = "2023-06-15 06:41:56 +0000";
layers = (
{
anchors = (
{
name = title;
pos = (109,470);
},
{
name = top;
pos = (109,480);
}
);
layerId = m01;
shapes = (
{
closed = 1;
nodes = (
(131,0,l),
(131,480,l),
(86,480,l),
(86,0,l)
);
}
);
userData = {
com.hugojourdan.ColorFlow = {
"0" = 0;
"1" = 0;
"10" = 0;
"11" = 0;
"2" = 0;
"3" = 0;
"4" = 0;
"5" = 0;
"6" = 0;
"7" = 0;
"8" = 0;
"9" = 0;
};
};
width = 217;
},
{
anchors = (
{
name = title;
pos = (123,480);
},
{
name = top;
pos = (123,490);
}
);
layerId = "BF6BA5B2-0556-42F4-A103-614BEBF16A1A";
shapes = (
{
closed = 1;
nodes = (
(169,0,l),
(169,490,l),
(76,490,l),
(76,0,l)
);
}
);
userData = {
com.hugojourdan.ColorFlow = {
"0" = 0;
"1" = 0;
"10" = 0;
"11" = 0;
"2" = 0;
"3" = 0;
"4" = 0;
"5" = 0;
"6" = 0;
"7" = 0;
"8" = 0;
"9" = 0;
};
};
width = 245;
},
{
anchors = (
{
name = title;
pos = (133,490);
},
{
name = top;
pos = (133,500);
}
);
layerId = "FF73925E-1E34-445B-881D-5A7CAAA8E8BE";
shapes = (
{
closed = 1;
nodes = (
(217,0,l),
(217,500,l),
(48,500,l),
(48,0,l)
);
}
);
userData = {
com.hugojourdan.ColorFlow = {
"0" = 0;
"1" = 0;
"10" = 0;
"11" = 0;
"2" = 0;
"3" = 0;
"4" = 0;
"5" = 0;
"6" = 0;
"7" = 0;
"8" = 0;
"9" = 0;
};
};
width = 265;
},
{
anchors = (
{
name = title;
pos = (109,470);
},
{
name = top;
pos = (109,480);
}
);
layerId = m004;
metricLeft = "=n";
shapes = (
{
closed = 1;
nodes = (
(131,0,l),
(131,480,l),
(86,480,l),
(86,0,l)
);
}
);
userData = {
com.hugojourdan.ColorFlow = {
"0" = 0;
"1" = 0;
"10" = 0;
"11" = 0;
"2" = 0;
"3" = 0;
"4" = 0;
"5" = 0;
"6" = 0;
"7" = 0;
"8" = 0;
"9" = 0;
};
};
width = 217;
},
{
anchors = (
{
name = title;
pos = (123,480);
},
{
name = top;
pos = (123,490);
}
);
layerId = m005;
metricLeft = "=n";
shapes = (
{
closed = 1;
nodes = (
(169,0,l),
(169,490,l),
(76,490,l),
(76,0,l)
);
}
);
userData = {
com.hugojourdan.ColorFlow = {
"0" = 0;
"1" = 0;
"10" = 0;
"11" = 0;
"2" = 0;
"3" = 0;
"4" = 0;
"5" = 0;
"6" = 0;
"7" = 0;
"8" = 0;
"9" = 0;
};
};
width = 245;
},
{
anchors = (
{
name = title;
pos = (133,490);
},
{
name = top;
pos = (133,500);
}
);
layerId = m006;
metricLeft = "=n";
shapes = (
{
closed = 1;
nodes = (
(217,0,l),
(217,500,l),
(48,500,l),
(48,0,l)
);
}
);
userData = {
com.hugojourdan.ColorFlow = {
"0" = 0;
"1" = 0;
"10" = 0;
"11" = 0;
"2" = 0;
"3" = 0;
"4" = 0;
"5" = 0;
"6" = 0;
"7" = 0;
"8" = 0;
"9" = 0;
};
};
width = 265;
}
);
metricLeft = "=n+10";
metricRight = "=|";
unicode = 305;
},
{
glyphname = jdotless;
lastChange = "2023-06-15 12:12:44 +0000";
layers = (
{
anchors = (
{
name = title;
pos = (112,470);
},
{
name = top;
pos = (112,480);
}
);
layerId = m01;
shapes = (
{
closed = 1;
nodes = (
(97,-185,o),
(134,-159,o),
(134,-82,cs),
(134,480,l),
(89,480,l),
(89,-92,ls),
(89,-135,o),
(66,-154,o),
(38,-154,cs),
(18,-154,o),
(-4,-145,o),
(-22,-125,c),
(-38,-170,l),
(-9,-179,o),
(20,-185,o),
(45,-185,cs)
);
}
);
userData = {
com.hugojourdan.ColorFlow = {
"0" = 0;
"1" = 0;
"10" = 0;
"11" = 0;
"2" = 0;
"3" = 0;
"4" = 0;
"5" = 0;
"6" = 0;
"7" = 0;
"8" = 0;
"9" = 0;
};
};
width = 220;
},
{
anchors = (
{
name = title;
pos = (125,480);
},
{
name = top;
pos = (125,490);
}
);
layerId = "BF6BA5B2-0556-42F4-A103-614BEBF16A1A";
shapes = (
{
closed = 1;
nodes = (
(137,-185,o),
(171,-148,o),
(171,-61,cs),
(171,490,l),
(79,490,l),
(79,-70,ls),
(79,-114,o),
(67,-133,o),
(38,-133,cs),
(21,-133,o),
(3,-125,o),
(-18,-100,c),
(-39,-167,l),
(-8,-179,o),
(24,-185,o),
(57,-185,cs)
);
}
);
userData = {
com.hugojourdan.ColorFlow = {
"0" = 0;
"1" = 0;
"10" = 0;
"11" = 0;
"2" = 0;
"3" = 0;
"4" = 0;
"5" = 0;
"6" = 0;
"7" = 0;
"8" = 0;
"9" = 0;
};
};
width = 247;
},
{
anchors = (
{
name = title;
pos = (147,490);
},
{
name = top;
pos = (147,500);
}
);
layerId = "FF73925E-1E34-445B-881D-5A7CAAA8E8BE";
shapes = (
{
closed = 1;
nodes = (
(164,-185,o),
(231,-124,o),
(231,-27,cs),
(231,500,l),
(62,500,l),
(62,-37,ls),
(62,-86,o),
(48,-111,o),
(21,-111,cs),
(-2,-111,o),
(-30,-89,o),
(-53,-55,c),
(-105,-125,l),
(-68,-162,o),
(-5,-185,o),
(58,-185,cs)
);
}
);
userData = {
com.hugojourdan.ColorFlow = {
"0" = 0;
"1" = 0;
"10" = 0;
"11" = 0;
"2" = 0;
"3" = 0;
"4" = 0;
"5" = 0;
"6" = 0;
"7" = 0;
"8" = 0;
"9" = 0;
};
};
width = 279;
},
{
anchors = (
{
name = title;
pos = (112,470);
},
{
name = top;
pos = (112,480);
}
);
layerId = m004;
shapes = (
{
closed = 1;
nodes = (
(97,-185,o),
(134,-159,o),
(134,-82,cs),
(134,480,l),
(89,480,l),
(89,-81,ls),
(89,-121,o),
(66,-139,o),
(38,-139,cs),
(18,-139,o),
(-5,-135,o),
(-25,-125,c),
(-38,-170,l),
(-9,-179,o),
(20,-185,o),
(45,-185,cs)
);
}
);
userData = {
com.hugojourdan.ColorFlow = {
"0" = 0;
"1" = 0;
"10" = 0;
"11" = 0;
"2" = 0;
"3" = 0;
"4" = 0;
"5" = 0;
"6" = 0;
"7" = 0;
"8" = 0;
"9" = 0;
};
};
width = 220;
},
{
anchors = (
{
name = title;
pos = (126,480);
},
{
name = top;
pos = (126,490);
}
);
layerId = m005;
shapes = (
{
closed = 1;
nodes = (
(123,-185,o),
(172,-145,o),
(172,-61,cs),
(172,490,l),
(79,490,l),
(79,-52,ls),
(79,-88,o),
(59,-105,o),
(31,-105,cs),
(12,-105,o),
(-11,-99,o),
(-31,-88,c),
(-64,-153,l),
(-32,-172,o),
(10,-185,o),
(50,-185,cs)
);
}
);
userData = {
com.hugojourdan.ColorFlow = {
"0" = 0;
"1" = 0;
"10" = 0;
"11" = 0;
"2" = 0;
"3" = 0;
"4" = 0;
"5" = 0;
"6" = 0;
"7" = 0;
"8" = 0;
"9" = 0;
};
};
width = 248;
},
{
anchors = (
{
name = title;
pos = (147,490);
},
{
name = top;
pos = (147,500);
}
);
layerId = m006;
shapes = (
{
closed = 1;
nodes = (
(164,-185,o),
(231,-124,o),
(231,-27,cs),
(231,500,l),
(62,500,l),
(62,-7,ls),
(62,-37,o),
(48,-52,o),
(21,-52,cs),
(3,-52,o),
(-19,-44,o),
(-40,-29,c),
(-105,-125,l),
(-68,-162,o),
(-5,-185,o),
(58,-185,cs)
);
}
);
userData = {
com.hugojourdan.ColorFlow = {
"0" = 0;
"1" = 0;
"10" = 0;
"11" = 0;
"2" = 0;
"3" = 0;
"4" = 0;
"5" = 0;
"6" = 0;
"7" = 0;
"8" = 0;
"9" = 0;
};
};
width = 279;
}
);
metricRight = "=idotless";
unicode = 567;
},
{
glyphname = k;
kernLeft = KO_l;
kernRight = KO_k;
lastChange = "2023-06-15 11:53:39 +0000";
layers = (
{
layerId = m01;
shapes = (
{
closed = 1;
nodes = (
(432,0,l),
(198,299,l),
(149,289,l),
(370,0,l)
);
},
{
closed = 1;
nodes = (
(131,0,l),
(131,700,l),
(86,700,l),
(86,0,l)
);
},
{
closed = 1;
nodes = (
(186,269,l),
(394,480,l),
(354,480,l),
(179,302,l),
(115,294,l),
(115,269,l)
);
}
);
userData = {
com.hugojourdan.ColorFlow = {
"0" = 0;
"1" = 0;
"10" = 0;
"11" = 0;
"2" = 0;
"3" = 0;
"4" = 0;
"5" = 0;
"6" = 0;
"7" = 0;
"8" = 0;
"9" = 0;
};
};
width = 461;
},
{
layerId = "FF73925E-1E34-445B-881D-5A7CAAA8E8BE";
shapes = (
{
closed = 1;
nodes = (
(542,0,l),
(365,344,l),
(227,293,l),
(362,0,l)
);
},
{
closed = 1;
nodes = (
(217,0,l),
(217,700,l),
(48,700,l),
(48,0,l)
);
},
{
closed = 1;
nodes = (
(308,250,l),
(502,500,l),
(401,500,l),
(275,333,l),
(191,318,l),
(191,250,l)
);
}
);
userData = {
com.hugojourdan.ColorFlow = {
"0" = 0;
"1" = 0;
"10" = 0;
"11" = 0;
"2" = 0;
"3" = 0;
"4" = 0;
"5" = 0;
"6" = 0;
"7" = 0;
"8" = 0;
"9" = 0;
};
};
width = 563;
},
{
layerId = "BF6BA5B2-0556-42F4-A103-614BEBF16A1A";
shapes = (
{
closed = 1;
nodes = (
(479,0,l),
(268,314,l),
(193,278,l),
(375,0,l)
);
},
{
closed = 1;
nodes = (
(169,0,l),
(169,700,l),
(76,700,l),
(76,0,l)
);
},
{
closed = 1;
nodes = (
(235,259,l),
(443,490,l),
(380,490,l),
(220,312,l),
(142,299,l),
(154,259,l)
);
}
);
userData = {
com.hugojourdan.ColorFlow = {
"0" = 0;
"1" = 0;
"10" = 0;
"11" = 0;
"2" = 0;
"3" = 0;
"4" = 0;
"5" = 0;
"6" = 0;
"7" = 0;
"8" = 0;
"9" = 0;
};
};
width = 506;
},
{
layerId = m004;
shapes = (
{
closed = 1;
nodes = (
(432,0,l),
(205,299,l),
(154,299,l),
(379,0,l)
);
},
{
closed = 1;
nodes = (
(131,0,l),
(131,700,l),
(86,700,l),
(86,0,l)
);
},
{
closed = 1;
nodes = (
(93,189,l),
(395,484,l),
(339,484,l),
(91,236,l),
(87,236,l),
(87,189,l)
);
}
);
userData = {
com.hugojourdan.ColorFlow = {
"0" = 0;
"1" = 0;
"10" = 0;
"11" = 0;
"2" = 0;
"3" = 0;
"4" = 0;
"5" = 0;
"6" = 0;
"7" = 0;
"8" = 0;
"9" = 0;
};
};
width = 461;
},
{
layerId = m005;
shapes = (
{
closed = 1;
nodes = (
(479,0,l),
(260,297,l),
(164,297,l),
(377,0,l)
);
},
{
closed = 1;
nodes = (
(169,0,l),
(169,700,l),
(76,700,l),
(76,0,l)
);
},
{
closed = 1;
nodes = (
(166,199,l),
(449,490,l),
(354,490,l),
(133,262,l),
(116,249,l),
(116,153,l)
);
}
);
userData = {
com.hugojourdan.ColorFlow = {
"0" = 0;
"1" = 0;
"10" = 0;
"11" = 0;
"2" = 0;
"3" = 0;
"4" = 0;
"5" = 0;
"6" = 0;
"7" = 0;
"8" = 0;
"9" = 0;
};
};
width = 506;
},
{
layerId = m006;
shapes = (
{
closed = 1;
nodes = (
(542,0,l),
(353,313,l),
(180,313,l),
(355,0,l)
);
},
{
closed = 1;
nodes = (
(217,0,l),
(217,700,l),
(48,700,l),
(48,0,l)
);
},
{
closed = 1;
nodes = (
(270,216,l),
(522,500,l),
(365,500,l),
(187,302,l),
(149,269,l),
(149,97,l)
);
}
);
userData = {
com.hugojourdan.ColorFlow = {
"0" = 0;
"1" = 0;
"10" = 0;
"11" = 0;
"2" = 0;
"3" = 0;
"4" = 0;
"5" = 0;
"6" = 0;
"7" = 0;
"8" = 0;
"9" = 0;
};
};
width = 563;
}
);
metricLeft = l;
metricRight = "=w";
note = k;
unicode = 107;
},
{
glyphname = l;
kernLeft = KO_l;
kernRight = KO_d;
lastChange = "2023-06-15 07:33:59 +0000";
layers = (
{
layerId = m01;
shapes = (
{
closed = 1;
nodes = (
(131,0,l),
(131,700,l),
(86,700,l),
(86,0,l)
);
}
);
userData = {
com.hugojourdan.ColorFlow = {
"0" = 0;
"1" = 0;
"10" = 0;
"11" = 0;
"2" = 0;
"3" = 0;
"4" = 0;
"5" = 0;
"6" = 0;
"7" = 0;
"8" = 0;
"9" = 0;
};
};
width = 217;
},
{
layerId = "FF73925E-1E34-445B-881D-5A7CAAA8E8BE";
shapes = (
{
closed = 1;
nodes = (
(217,0,l),
(217,700,l),
(48,700,l),
(48,0,l)
);
}
);
userData = {
com.hugojourdan.ColorFlow = {
"0" = 0;
"1" = 0;
"10" = 0;
"11" = 0;
"2" = 0;
"3" = 0;
"4" = 0;
"5" = 0;
"6" = 0;
"7" = 0;
"8" = 0;
"9" = 0;
};
};
width = 265;
},
{
layerId = "BF6BA5B2-0556-42F4-A103-614BEBF16A1A";
shapes = (
{
closed = 1;
nodes = (
(169,0,l),
(169,700,l),
(76,700,l),
(76,0,l)
);
}
);
userData = {
com.hugojourdan.ColorFlow = {
"0" = 0;
"1" = 0;
"10" = 0;
"11" = 0;
"2" = 0;
"3" = 0;
"4" = 0;
"5" = 0;
"6" = 0;
"7" = 0;
"8" = 0;
"9" = 0;
};
};
width = 245;
},
{
layerId = m004;
metricLeft = "=n";
shapes = (
{
closed = 1;
nodes = (
(131,0,l),
(131,700,l),
(86,700,l),
(86,0,l)
);
}
);
userData = {
com.hugojourdan.ColorFlow = {
"0" = 0;
"1" = 0;
"10" = 0;
"11" = 0;
"2" = 0;
"3" = 0;
"4" = 0;
"5" = 0;
"6" = 0;
"7" = 0;
"8" = 0;
"9" = 0;
};
};
width = 217;
},
{
layerId = m005;
metricLeft = "=n";
shapes = (
{
closed = 1;
nodes = (
(169,0,l),
(169,700,l),
(76,700,l),
(76,0,l)
);
}
);
userData = {
com.hugojourdan.ColorFlow = {
"0" = 0;
"1" = 0;
"10" = 0;
"11" = 0;
"2" = 0;
"3" = 0;
"4" = 0;
"5" = 0;
"6" = 0;
"7" = 0;
"8" = 0;
"9" = 0;
};
};
width = 245;
},
{
layerId = m006;
metricLeft = "=n";
shapes = (
{
closed = 1;
nodes = (
(217,0,l),
(217,700,l),
(48,700,l),
(48,0,l)
);
}
);
userData = {
com.hugojourdan.ColorFlow = {
"0" = 0;
"1" = 0;
"10" = 0;
"11" = 0;
"2" = 0;
"3" = 0;
"4" = 0;
"5" = 0;
"6" = 0;
"7" = 0;
"8" = 0;
"9" = 0;
};
};
width = 265;
}
);
metricLeft = "=n+10";
metricRight = "=|";
note = l;
unicode = 108;
},
{
glyphname = m;
kernLeft = KO_n;
kernRight = KO_n;
lastChange = "2023-06-15 06:40:25 +0000";
layers = (
{
layerId = m01;
shapes = (
{
closed = 1;
nodes = (
(131,0,l),
(131,338,ls),
(131,402,o),
(198,460,o),
(274,460,cs),
(344,460,o),
(379,408,o),
(379,305,cs),
(379,0,l),
(424,0,l),
(424,338,ls),
(424,402,o),
(491,460,o),
(567,460,cs),
(637,460,o),
(672,408,o),
(672,305,cs),
(672,0,l),
(717,0,l),
(717,309,ls),
(717,429,o),
(669,490,o),
(574,490,cs),
(497,490,o),
(439,453,o),
(415,389,c),
(396,456,o),
(352,490,o),
(281,490,cs),
(195,490,o),
(132,442,o),
(113,365,c),
(123,365,l),
(124,402,o),
(121,441,o),
(114,480,c),
(76,480,l),
(82,443,o),
(86,406,o),
(86,369,cs),
(86,0,l)
);
}
);
userData = {
com.hugojourdan.ColorFlow = {
"0" = 0;
"1" = 0;
"10" = 0;
"11" = 0;
"2" = 0;
"3" = 0;
"4" = 0;
"5" = 0;
"6" = 0;
"7" = 0;
"8" = 0;
"9" = 0;
};
};
width = 798;
},
{
layerId = "FF73925E-1E34-445B-881D-5A7CAAA8E8BE";
shapes = (
{
closed = 1;
nodes = (
(216,0,l),
(216,356,ls),
(216,410,o),
(254,436,o),
(286,436,cs),
(320,436,o),
(337,407,o),
(337,349,cs),
(337,0,l),
(506,0,l),
(506,356,ls),
(506,410,o),
(544,436,o),
(576,436,cs),
(610,436,o),
(627,407,o),
(627,349,cs),
(627,0,l),
(796,0,l),
(796,330,ls),
(796,451,o),
(730,510,o),
(623,510,cs),
(562,510,o),
(513,487,o),
(478,442,c),
(450,487,o),
(402,510,o),
(333,510,cs),
(263,510,o),
(210,482,o),
(177,423,c),
(194,423,l),
(195,451,o),
(192,477,o),
(187,500,c),
(38,500,l),
(45,465,o),
(48,428,o),
(48,388,cs),
(48,0,l)
);
}
);
userData = {
com.hugojourdan.ColorFlow = {
"0" = 0;
"1" = 0;
"10" = 0;
"11" = 0;
"2" = 0;
"3" = 0;
"4" = 0;
"5" = 0;
"6" = 0;
"7" = 0;
"8" = 0;
"9" = 0;
};
};
width = 839;
},
{
layerId = "BF6BA5B2-0556-42F4-A103-614BEBF16A1A";
shapes = (
{
closed = 1;
nodes = (
(163,0,l),
(163,353,ls),
(163,422,o),
(226,455,o),
(278,455,cs),
(334,455,o),
(362,412,o),
(362,326,cs),
(362,0,l),
(455,0,l),
(455,353,l),
(452,422,o),
(517,455,o),
(569,455,cs),
(625,455,o),
(653,412,o),
(653,326,cs),
(653,0,l),
(746,0,l),
(746,320,ls),
(746,440,o),
(694,500,o),
(591,500,cs),
(523,500,o),
(472,472,o),
(439,416,c),
(416,472,o),
(370,500,o),
(300,500,cs),
(213,500,o),
(155,454,o),
(125,363,c),
(151,363,l),
(150,406,o),
(148,448,o),
(144,490,c),
(66,490,l),
(70,448,o),
(71,406,o),
(71,363,cs),
(71,0,l)
);
}
);
userData = {
com.hugojourdan.ColorFlow = {
"0" = 0;
"1" = 0;
"10" = 0;
"11" = 0;
"2" = 0;
"3" = 0;
"4" = 0;
"5" = 0;
"6" = 0;
"7" = 0;
"8" = 0;
"9" = 0;
};
};
width = 817;
},
{
layerId = m004;
shapes = (
{
closed = 1;
nodes = (
(131,0,l),
(131,283,ls),
(131,386,o),
(196,445,o),
(278,445,cs),
(344,445,o),
(379,406,o),
(379,305,cs),
(379,0,l),
(424,0,l),
(424,283,ls),
(424,386,o),
(488,445,o),
(570,445,cs),
(636,445,o),
(672,406,o),
(672,305,cs),
(672,0,l),
(717,0,l),
(717,309,ls),
(717,429,o),
(669,490,o),
(574,490,cs),
(497,490,o),
(439,453,o),
(415,389,c),
(396,456,o),
(352,490,o),
(281,490,cs),
(195,490,o),
(132,442,o),
(113,365,c),
(125,365,l),
(125,402,o),
(125,441,o),
(125,480,c),
(86,480,l),
(86,443,o),
(86,406,o),
(86,369,cs),
(86,0,l)
);
}
);
userData = {
com.hugojourdan.ColorFlow = {
"0" = 0;
"1" = 0;
"10" = 0;
"11" = 0;
"2" = 0;
"3" = 0;
"4" = 0;
"5" = 0;
"6" = 0;
"7" = 0;
"8" = 0;
"9" = 0;
};
};
width = 808;
},
{
layerId = m005;
shapes = (
{
closed = 1;
nodes = (
(169,0,l),
(169,292,ls),
(169,376,o),
(223,422,o),
(286,422,cs),
(340,422,o),
(368,387,o),
(368,303,cs),
(368,0,l),
(461,0,l),
(461,292,ls),
(461,376,o),
(515,422,o),
(577,422,cs),
(631,422,o),
(659,387,o),
(659,303,cs),
(659,0,l),
(752,0,l),
(752,317,ls),
(752,438,o),
(697,498,o),
(598,498,cs),
(527,498,o),
(473,466,o),
(444,410,c),
(422,468,o),
(376,498,o),
(306,498,cs),
(226,498,o),
(167,457,o),
(143,387,c),
(157,387,l),
(157,421,o),
(157,455,o),
(157,488,c),
(76,488,l),
(76,452,o),
(76,415,o),
(76,376,cs),
(76,0,l)
);
}
);
userData = {
com.hugojourdan.ColorFlow = {
"0" = 0;
"1" = 0;
"10" = 0;
"11" = 0;
"2" = 0;
"3" = 0;
"4" = 0;
"5" = 0;
"6" = 0;
"7" = 0;
"8" = 0;
"9" = 0;
};
};
width = 833;
},
{
layerId = m006;
shapes = (
{
closed = 1;
nodes = (
(216,0,l),
(216,306,ls),
(216,360,o),
(254,386,o),
(286,386,cs),
(320,386,o),
(337,357,o),
(337,299,cs),
(337,0,l),
(506,0,l),
(506,306,ls),
(506,360,o),
(544,386,o),
(576,386,cs),
(610,386,o),
(627,357,o),
(627,299,cs),
(627,0,l),
(796,0,l),
(796,330,ls),
(796,451,o),
(730,510,o),
(623,510,cs),
(562,510,o),
(513,487,o),
(478,442,c),
(450,487,o),
(402,510,o),
(333,510,cs),
(263,510,o),
(210,482,o),
(177,423,c),
(195,423,l),
(195,451,o),
(195,477,o),
(195,500,c),
(48,500,l),
(48,465,o),
(48,428,o),
(48,388,cs),
(48,0,l)
);
}
);
userData = {
com.hugojourdan.ColorFlow = {
"0" = 0;
"1" = 0;
"10" = 0;
"11" = 0;
"2" = 0;
"3" = 0;
"4" = 0;
"5" = 0;
"6" = 0;
"7" = 0;
"8" = 0;
"9" = 0;
};
};
width = 849;
}
);
metricLeft = "=n";
metricRight = "=n";
note = m;
unicode = 109;
},
{
glyphname = n;
kernLeft = KO_n;
kernRight = KO_n;
lastChange = "2023-06-15 06:53:56 +0000";
layers = (
{
anchors = (
{
name = top;
pos = (278,480);
}
);
background = {
shapes = (
{
closed = 1;
nodes = (
(131,0,l),
(131,308,ls),
(131,392,o),
(195,460,o),
(274,460,cs),
(341,460,o),
(379,412,o),
(379,325,cs),
(379,0,l),
(424,0,l),
(424,332,ls),
(424,433,o),
(371,490,o),
(278,490,cs),
(198,490,o),
(137,440,o),
(115,359,c),
(124,369,l),
(124,419,o),
(121,455,o),
(114,480,c),
(76,480,l),
(83,455,o),
(86,419,o),
(86,369,cs),
(86,0,l)
);
}
);
};
layerId = m01;
metricRight = "=|+5";
shapes = (
{
closed = 1;
nodes = (
(131,0,l),
(131,308,ls),
(131,392,o),
(195,460,o),
(274,460,cs),
(341,460,o),
(379,412,o),
(379,325,cs),
(379,0,l),
(424,0,l),
(424,330,ls),
(424,432,o),
(371,490,o),
(278,490,cs),
(198,490,o),
(137,440,o),
(115,359,c),
(124,358,l),
(124,428,o),
(123,444,o),
(114,480,c),
(76,480,l),
(85,444,o),
(86,428,o),
(86,358,cs),
(86,0,l)
);
}
);
userData = {
com.hugojourdan.ColorFlow = {
"0" = 0;
"1" = 0;
"10" = 0;
"11" = 0;
"2" = 0;
"3" = 0;
"4" = 0;
"5" = 0;
"6" = 0;
"7" = 0;
"8" = 0;
"9" = 0;
};
};
width = 505;
},
{
anchors = (
{
name = top;
pos = (310,500);
}
);
layerId = "FF73925E-1E34-445B-881D-5A7CAAA8E8BE";
metricRight = "=|+5";
shapes = (
{
closed = 1;
nodes = (
(217,0,l),
(217,356,ls),
(217,401,o),
(248,436,o),
(286,436,cs),
(320,436,o),
(337,407,o),
(337,349,cs),
(337,0,l),
(506,0,l),
(506,330,ls),
(506,445,o),
(446,510,o),
(340,510,cs),
(265,510,o),
(210,478,o),
(177,415,c),
(194,415,l),
(195,449,o),
(193,473,o),
(187,500,c),
(38,500,l),
(45,469,o),
(48,433,o),
(48,388,cs),
(48,0,l)
);
}
);
userData = {
com.hugojourdan.ColorFlow = {
"0" = 0;
"1" = 0;
"10" = 0;
"11" = 0;
"2" = 0;
"3" = 0;
"4" = 0;
"5" = 0;
"6" = 0;
"7" = 0;
"8" = 0;
"9" = 0;
};
};
width = 549;
},
{
anchors = (
{
name = top;
pos = (297,490);
}
);
layerId = "BF6BA5B2-0556-42F4-A103-614BEBF16A1A";
metricRight = "=|+5";
shapes = (
{
closed = 1;
nodes = (
(169,0,l),
(169,344,ls),
(169,406,o),
(221,455,o),
(285,455,cs),
(345,455,o),
(373,411,o),
(373,318,cs),
(373,0,l),
(466,0,l),
(466,324,ls),
(466,443,o),
(415,500,o),
(308,500,cs),
(220,500,o),
(160,455,o),
(130,364,c),
(154,364,l),
(155,431,o),
(153,463,o),
(144,490,c),
(66,490,l),
(74,447,o),
(76,409,o),
(76,364,cs),
(76,0,l)
);
}
);
userData = {
com.hugojourdan.ColorFlow = {
"0" = 0;
"1" = 0;
"10" = 0;
"11" = 0;
"2" = 0;
"3" = 0;
"4" = 0;
"5" = 0;
"6" = 0;
"7" = 0;
"8" = 0;
"9" = 0;
};
};
width = 537;
},
{
anchors = (
{
name = top;
pos = (290,480);
}
);
associatedMasterId = m01;
layerId = "55553BCB-C4F8-4996-A293-81924295F9D9";
name = "13 Jun 23 2.30 AM";
shapes = (
{
closed = 1;
nodes = (
(143,0,l),
(143,327,ls),
(143,402,o),
(210,460,o),
(286,460,cs),
(356,460,o),
(391,408,o),
(391,305,cs),
(391,0,l),
(436,0,l),
(436,309,ls),
(436,429,o),
(388,490,o),
(293,490,cs),
(208,490,o),
(147,445,o),
(127,369,c),
(136,369,l),
(136,407,o),
(133,444,o),
(126,480,c),
(88,480,l),
(95,444,o),
(98,407,o),
(98,369,cs),
(98,0,l)
);
}
);
userData = {
com.hugojourdan.ColorFlow = {
"0" = 0;
"1" = 0;
"10" = 0;
"11" = 0;
"2" = 0;
"3" = 0;
"4" = 0;
"5" = 0;
"6" = 0;
"7" = 0;
"8" = 0;
"9" = 0;
};
};
width = 519;
},
{
anchors = (
{
name = top;
pos = (304,490);
}
);
associatedMasterId = "BF6BA5B2-0556-42F4-A103-614BEBF16A1A";
layerId = "65CF0C8A-6E4E-4F41-A50E-84721B4522B7";
name = "13 Jun 23 12.52 PM";
shapes = (
{
closed = 1;
nodes = (
(178,0,l),
(178,344,ls),
(178,406,o),
(229,455,o),
(292,455,cs),
(351,455,o),
(378,411,o),
(378,318,cs),
(378,0,l),
(471,0,l),
(471,324,ls),
(471,443,o),
(421,500,o),
(315,500,cs),
(228,500,o),
(169,455,o),
(139,364,c),
(163,364,l),
(164,431,o),
(162,463,o),
(153,490,c),
(75,490,l),
(83,447,o),
(85,409,o),
(85,364,cs),
(85,0,l)
);
}
);
userData = {
com.hugojourdan.ColorFlow = {
"0" = 0;
"1" = 0;
"10" = 0;
"11" = 0;
"2" = 0;
"3" = 0;
"4" = 0;
"5" = 0;
"6" = 0;
"7" = 0;
"8" = 0;
"9" = 0;
};
};
width = 541;
},
{
anchors = (
{
name = top;
pos = (278,480);
}
);
layerId = m004;
shapes = (
{
closed = 1;
nodes = (
(131,0,l),
(131,273,ls),
(131,373,o),
(188,445,o),
(274,445,cs),
(344,445,o),
(379,408,o),
(379,305,cs),
(379,0,l),
(424,0,l),
(424,309,ls),
(424,429,o),
(376,490,o),
(281,490,cs),
(196,490,o),
(135,445,o),
(115,369,c),
(124,369,l),
(124,406,o),
(124,443,o),
(124,480,c),
(86,480,l),
(86,443,o),
(86,406,o),
(86,369,cs),
(86,0,l)
);
}
);
userData = {
com.hugojourdan.ColorFlow = {
"0" = 0;
"1" = 0;
"10" = 0;
"11" = 0;
"2" = 0;
"3" = 0;
"4" = 0;
"5" = 0;
"6" = 0;
"7" = 0;
"8" = 0;
"9" = 0;
};
};
width = 515;
},
{
anchors = (
{
name = top;
pos = (298,488);
}
);
layerId = m005;
shapes = (
{
closed = 1;
nodes = (
(169,0,l),
(169,284,ls),
(169,365,o),
(218,422,o),
(287,422,cs),
(347,422,o),
(373,385,o),
(373,300,cs),
(373,0,l),
(466,0,l),
(466,317,ls),
(466,435,o),
(412,498,o),
(310,498,cs),
(228,498,o),
(169,460,o),
(144,391,c),
(157,391,l),
(157,423,o),
(157,456,o),
(157,488,c),
(76,488,l),
(76,451,o),
(76,414,o),
(76,377,cs),
(76,0,l)
);
}
);
userData = {
com.hugojourdan.ColorFlow = {
"0" = 0;
"1" = 0;
"10" = 0;
"11" = 0;
"2" = 0;
"3" = 0;
"4" = 0;
"5" = 0;
"6" = 0;
"7" = 0;
"8" = 0;
"9" = 0;
};
};
width = 547;
},
{
anchors = (
{
name = top;
pos = (310,500);
}
);
layerId = m006;
shapes = (
{
closed = 1;
nodes = (
(217,0,l),
(217,301,ls),
(217,349,o),
(247,386,o),
(286,386,cs),
(320,386,o),
(337,356,o),
(337,293,cs),
(337,0,l),
(506,0,l),
(506,330,ls),
(506,445,o),
(445,510,o),
(336,510,cs),
(265,510,o),
(212,482,o),
(177,425,c),
(198,425,l),
(198,450,o),
(198,475,o),
(198,500,c),
(48,500,l),
(48,466,o),
(48,432,o),
(48,398,cs),
(48,0,l)
);
}
);
userData = {
com.hugojourdan.ColorFlow = {
"0" = 0;
"1" = 0;
"10" = 0;
"11" = 0;
"2" = 0;
"3" = 0;
"4" = 0;
"5" = 0;
"6" = 0;
"7" = 0;
"8" = 0;
"9" = 0;
};
};
width = 559;
}
);
metricRight = "=|+5";
note = n;
unicode = 110;
},
{
glyphname = eng;
kernLeft = KO_n;
lastChange = "2023-06-15 13:51:23 +0000";
layers = (
{
layerId = m01;
shapes = (
{
ref = n;
},
{
closed = 1;
nodes = (
(387,-185,o),
(424,-159,o),
(424,-82,cs),
(424,48,l),
(379,48,l),
(379,-92,ls),
(379,-135,o),
(356,-154,o),
(328,-154,cs),
(308,-154,o),
(286,-145,o),
(268,-125,c),
(252,-170,l),
(281,-179,o),
(310,-185,o),
(335,-185,cs)
);
}
);
userData = {
com.hugojourdan.ColorFlow = {
"0" = 0;
"1" = 0;
"10" = 0;
"11" = 0;
"2" = 0;
"3" = 0;
"4" = 0;
"5" = 0;
"6" = 0;
"7" = 0;
"8" = 0;
"9" = 0;
};
};
width = 528;
},
{
layerId = "FF73925E-1E34-445B-881D-5A7CAAA8E8BE";
shapes = (
{
ref = n;
},
{
closed = 1;
nodes = (
(439,-185,o),
(506,-124,o),
(506,-27,cs),
(506,55,l),
(337,55,l),
(337,-37,ls),
(337,-86,o),
(323,-111,o),
(296,-111,cs),
(273,-111,o),
(245,-89,o),
(222,-55,c),
(170,-125,l),
(207,-162,o),
(270,-185,o),
(333,-185,cs)
);
}
);
userData = {
com.hugojourdan.ColorFlow = {
"0" = 0;
"1" = 0;
"10" = 0;
"11" = 0;
"2" = 0;
"3" = 0;
"4" = 0;
"5" = 0;
"6" = 0;
"7" = 0;
"8" = 0;
"9" = 0;
};
};
width = 583;
},
{
layerId = "BF6BA5B2-0556-42F4-A103-614BEBF16A1A";
shapes = (
{
ref = n;
},
{
closed = 1;
nodes = (
(431,-185,o),
(465,-148,o),
(465,-61,cs),
(465,44,l),
(373,44,l),
(373,-70,ls),
(373,-114,o),
(361,-133,o),
(332,-133,cs),
(315,-133,o),
(297,-125,o),
(276,-100,c),
(255,-167,l),
(286,-179,o),
(318,-185,o),
(351,-185,cs)
);
}
);
userData = {
com.hugojourdan.ColorFlow = {
"0" = 0;
"1" = 0;
"10" = 0;
"11" = 0;
"2" = 0;
"3" = 0;
"4" = 0;
"5" = 0;
"6" = 0;
"7" = 0;
"8" = 0;
"9" = 0;
};
};
width = 549;
},
{
layerId = m004;
shapes = (
{
ref = n;
},
{
closed = 1;
nodes = (
(387,-185,o),
(424,-159,o),
(424,-82,cs),
(424,29,l),
(379,29,l),
(379,-81,ls),
(379,-121,o),
(356,-139,o),
(328,-139,cs),
(308,-139,o),
(285,-135,o),
(265,-125,c),
(252,-170,l),
(281,-179,o),
(310,-185,o),
(335,-185,cs)
);
}
);
userData = {
com.hugojourdan.ColorFlow = {
"0" = 0;
"1" = 0;
"10" = 0;
"11" = 0;
"2" = 0;
"3" = 0;
"4" = 0;
"5" = 0;
"6" = 0;
"7" = 0;
"8" = 0;
"9" = 0;
};
};
width = 528;
},
{
layerId = m005;
shapes = (
{
alignment = -1;
ref = n;
},
{
closed = 1;
nodes = (
(417,-185,o),
(466,-145,o),
(466,-61,cs),
(466,39,l),
(373,39,l),
(373,-52,ls),
(373,-88,o),
(353,-105,o),
(326,-105,cs),
(306,-105,o),
(284,-100,o),
(263,-88,c),
(230,-153,l),
(262,-172,o),
(305,-185,o),
(344,-185,cs)
);
}
);
userData = {
com.hugojourdan.ColorFlow = {
"0" = 0;
"1" = 0;
"10" = 0;
"11" = 0;
"2" = 0;
"3" = 0;
"4" = 0;
"5" = 0;
"6" = 0;
"7" = 0;
"8" = 0;
"9" = 0;
};
};
width = 549;
},
{
layerId = m006;
shapes = (
{
ref = n;
},
{
closed = 1;
nodes = (
(439,-185,o),
(506,-124,o),
(506,-27,cs),
(506,56,l),
(337,56,l),
(337,-7,ls),
(337,-37,o),
(323,-52,o),
(296,-52,cs),
(278,-52,o),
(256,-44,o),
(235,-29,c),
(170,-125,l),
(207,-162,o),
(270,-185,o),
(333,-185,cs)
);
}
);
userData = {
com.hugojourdan.ColorFlow = {
"0" = 0;
"1" = 0;
"10" = 0;
"11" = 0;
"2" = 0;
"3" = 0;
"4" = 0;
"5" = 0;
"6" = 0;
"7" = 0;
"8" = 0;
"9" = 0;
};
};
width = 583;
}
);
note = eng;
unicode = 331;
},
{
glyphname = o;
kernLeft = KO_e;
kernRight = KO_o;
lastChange = "2023-06-15 07:45:35 +0000";
layers = (
{
anchors = (
{
name = center;
pos = (258,240);
},
{
name = top;
pos = (258,480);
}
);
layerId = m01;
shapes = (
{
closed = 1;
nodes = (
(387,-10,o),
(459,80,o),
(459,240,cs),
(459,400,o),
(387,490,o),
(258,490,cs),
(129,490,o),
(57,400,o),
(57,240,cs),
(57,80,o),
(129,-10,o),
(258,-10,cs)
);
},
{
closed = 1;
nodes = (
(160,18,o),
(105,98,o),
(105,240,cs),
(105,382,o),
(160,462,o),
(258,462,cs),
(356,462,o),
(411,382,o),
(411,240,cs),
(411,98,o),
(356,18,o),
(258,18,cs)
);
}
);
userData = {
com.hugojourdan.ColorFlow = {
"0" = 0;
"1" = 0;
"10" = 0;
"11" = 0;
"2" = 0;
"3" = 0;
"4" = 0;
"5" = 0;
"6" = 0;
"7" = 0;
"8" = 0;
"9" = 0;
};
};
width = 516;
},
{
anchors = (
{
name = center;
pos = (281,250);
},
{
name = top;
pos = (281,500);
}
);
layerId = "FF73925E-1E34-445B-881D-5A7CAAA8E8BE";
metricLeft = "=n*0.83";
shapes = (
{
closed = 1;
nodes = (
(440,-10,o),
(530,84,o),
(530,250,cs),
(530,416,o),
(440,510,o),
(281,510,cs),
(122,510,o),
(32,416,o),
(32,250,cs),
(32,84,o),
(122,-10,o),
(281,-10,cs)
);
},
{
closed = 1;
nodes = (
(232,64,o),
(206,129,o),
(206,250,cs),
(206,371,o),
(232,436,o),
(281,436,cs),
(330,436,o),
(356,371,o),
(356,250,cs),
(356,129,o),
(330,64,o),
(281,64,cs)
);
}
);
userData = {
com.hugojourdan.ColorFlow = {
"0" = 0;
"1" = 0;
"10" = 0;
"11" = 0;
"2" = 0;
"3" = 0;
"4" = 0;
"5" = 0;
"6" = 0;
"7" = 0;
"8" = 0;
"9" = 0;
};
};
width = 562;
},
{
anchors = (
{
name = center;
pos = (274,245);
},
{
name = top;
pos = (274,490);
}
);
layerId = "BF6BA5B2-0556-42F4-A103-614BEBF16A1A";
shapes = (
{
closed = 1;
nodes = (
(416,-10,o),
(498,83,o),
(498,245,cs),
(498,407,o),
(416,500,o),
(274,500,cs),
(132,500,o),
(50,407,o),
(50,245,cs),
(50,83,o),
(132,-10,o),
(274,-10,cs)
);
},
{
closed = 1;
nodes = (
(192,32,o),
(146,108,o),
(146,245,cs),
(146,381,o),
(192,458,o),
(274,458,cs),
(356,458,o),
(402,381,o),
(402,245,cs),
(402,108,o),
(356,32,o),
(274,32,cs)
);
}
);
userData = {
com.hugojourdan.ColorFlow = {
"0" = 0;
"1" = 0;
"10" = 0;
"11" = 0;
"2" = 0;
"3" = 0;
"4" = 0;
"5" = 0;
"6" = 0;
"7" = 0;
"8" = 0;
"9" = 0;
};
};
width = 548;
},
{
anchors = (
{
name = center;
pos = (258,240);
},
{
name = top;
pos = (258,480);
}
);
layerId = m004;
metricLeft = "=n*0.66";
shapes = (
{
closed = 1;
nodes = (
(387,-10,o),
(459,80,o),
(459,240,cs),
(459,400,o),
(387,490,o),
(258,490,cs),
(129,490,o),
(57,400,o),
(57,240,cs),
(57,80,o),
(129,-10,o),
(258,-10,cs)
);
},
{
closed = 1;
nodes = (
(160,35,o),
(105,109,o),
(105,240,cs),
(105,371,o),
(160,445,o),
(258,445,cs),
(356,445,o),
(411,371,o),
(411,240,cs),
(411,109,o),
(356,35,o),
(258,35,cs)
);
}
);
userData = {
com.hugojourdan.ColorFlow = {
"0" = 0;
"1" = 0;
"10" = 0;
"11" = 0;
"2" = 0;
"3" = 0;
"4" = 0;
"5" = 0;
"6" = 0;
"7" = 0;
"8" = 0;
"9" = 0;
};
};
width = 516;
},
{
anchors = (
{
name = center;
pos = (274,245);
},
{
name = top;
pos = (274,488);
}
);
layerId = m005;
metricLeft = "=n*0.66";
shapes = (
{
closed = 1;
nodes = (
(417,-10,o),
(498,82,o),
(498,244,cs),
(498,406,o),
(417,498,o),
(274,498,cs),
(130,498,o),
(50,406,o),
(50,244,cs),
(50,82,o),
(130,-10,o),
(274,-10,cs)
);
},
{
closed = 1;
nodes = (
(192,65,o),
(146,130,o),
(146,244,cs),
(146,358,o),
(192,423,o),
(274,423,cs),
(355,423,o),
(402,358,o),
(402,244,cs),
(402,130,o),
(355,65,o),
(274,65,cs)
);
}
);
userData = {
com.hugojourdan.ColorFlow = {
"0" = 0;
"1" = 0;
"10" = 0;
"11" = 0;
"2" = 0;
"3" = 0;
"4" = 0;
"5" = 0;
"6" = 0;
"7" = 0;
"8" = 0;
"9" = 0;
};
};
width = 548;
},
{
anchors = (
{
name = center;
pos = (281,250);
},
{
name = top;
pos = (281,500);
}
);
layerId = m006;
metricLeft = "=n*0.66";
shapes = (
{
closed = 1;
nodes = (
(440,-10,o),
(530,84,o),
(530,250,cs),
(530,416,o),
(440,510,o),
(281,510,cs),
(122,510,o),
(32,416,o),
(32,250,cs),
(32,84,o),
(122,-10,o),
(281,-10,cs)
);
},
{
closed = 1;
nodes = (
(233,113,o),
(206,162,o),
(206,250,cs),
(206,338,o),
(233,387,o),
(281,387,cs),
(329,387,o),
(356,338,o),
(356,250,cs),
(356,162,o),
(329,113,o),
(281,113,cs)
);
}
);
userData = {
com.hugojourdan.ColorFlow = {
"0" = 0;
"1" = 0;
"10" = 0;
"11" = 0;
"2" = 0;
"3" = 0;
"4" = 0;
"5" = 0;
"6" = 0;
"7" = 0;
"8" = 0;
"9" = 0;
};
};
width = 562;
}
);
metricLeft = "=n*0.75";
metricRight = "=|";
note = o;
unicode = 111;
},
{
glyphname = p;
kernLeft = KO_n;
kernRight = KO_p;
lastChange = "2023-06-15 07:48:19 +0000";
layers = (
{
layerId = m01;
shapes = (
{
closed = 1;
nodes = (
(131,-175,l),
(131,113,l),
(122,111,l),
(146,33,o),
(204,-10,o),
(286,-10,cs),
(410,-10,o),
(483,83,o),
(483,240,cs),
(483,397,o),
(410,490,o),
(286,490,cs),
(201,490,o),
(142,444,o),
(117,361,c),
(124,358,l),
(124,397,o),
(122,416,o),
(114,480,c),
(76,480,l),
(84,416,o),
(86,397,o),
(86,358,cs),
(86,-175,l)
);
},
{
closed = 1;
nodes = (
(193,18,o),
(131,90,o),
(131,197,cs),
(131,283,ls),
(131,390,o),
(193,462,o),
(283,462,cs),
(379,462,o),
(435,381,o),
(435,240,cs),
(435,99,o),
(379,18,o),
(283,18,cs)
);
}
);
userData = {
com.hugojourdan.ColorFlow = {
"0" = 0;
"1" = 0;
"10" = 0;
"11" = 0;
"2" = 0;
"3" = 0;
"4" = 0;
"5" = 0;
"6" = 0;
"7" = 0;
"8" = 0;
"9" = 0;
};
};
width = 540;
},
{
layerId = "FF73925E-1E34-445B-881D-5A7CAAA8E8BE";
shapes = (
{
closed = 1;
nodes = (
(217,-175,l),
(217,75,l),
(198,53,l),
(225,11,o),
(270,-10,o),
(332,-10,cs),
(459,-10,o),
(535,86,o),
(535,248,cs),
(535,412,o),
(458,510,o),
(330,510,cs),
(253,510,o),
(202,478,o),
(179,415,c),
(197,388,l),
(197,433,o),
(194,469,o),
(187,500,c),
(38,500,l),
(45,469,o),
(48,433,o),
(48,388,cs),
(48,-175,l)
);
},
{
closed = 1;
nodes = (
(244,64,o),
(217,102,o),
(217,158,cs),
(217,342,ls),
(217,397,o),
(245,436,o),
(286,436,cs),
(335,436,o),
(361,372,o),
(361,249,cs),
(361,126,o),
(335,64,o),
(285,64,cs)
);
}
);
userData = {
com.hugojourdan.ColorFlow = {
"0" = 0;
"1" = 0;
"10" = 0;
"11" = 0;
"2" = 0;
"3" = 0;
"4" = 0;
"5" = 0;
"6" = 0;
"7" = 0;
"8" = 0;
"9" = 0;
};
};
width = 567;
},
{
associatedMasterId = "BF6BA5B2-0556-42F4-A103-614BEBF16A1A";
layerId = "D1AB85A8-F23B-4FF7-B10B-EBC24A5A6CA0";
name = "13 Jun 23 12.10 PM";
shapes = (
{
closed = 1;
nodes = (
(173,-180,l),
(173,52,l),
(198,16,o),
(241,-11,o),
(305,-11,cs),
(423,-11,o),
(488,79,o),
(488,244,cs),
(488,410,o),
(423,500,o),
(305,500,cs),
(220,500,o),
(152,443,o),
(152,383,c),
(157,383,l),
(159,419,o),
(157,454,o),
(153,490,c),
(75,490,l),
(80,448,o),
(81,405,o),
(80,363,cs),
(80,-180,l)
);
},
{
closed = 1;
nodes = (
(221,33,o),
(173,85,o),
(173,139,cs),
(173,350,ls),
(173,404,o),
(221,456,o),
(274,456,cs),
(353,456,o),
(393,388,o),
(393,244,cs),
(393,101,o),
(353,33,o),
(274,33,cs)
);
}
);
userData = {
com.hugojourdan.ColorFlow = {
"0" = 0;
"1" = 0;
"10" = 0;
"11" = 0;
"2" = 0;
"3" = 0;
"4" = 0;
"5" = 0;
"6" = 0;
"7" = 0;
"8" = 0;
"9" = 0;
};
};
width = 538;
},
{
layerId = "BF6BA5B2-0556-42F4-A103-614BEBF16A1A";
name = Regular;
shapes = (
{
closed = 1;
nodes = (
(169,-175,l),
(169,100,l),
(156,90,l),
(181,25,o),
(236,-10,o),
(312,-10,cs),
(441,-10,o),
(517,85,o),
(517,244,cs),
(517,405,o),
(441,500,o),
(312,500,cs),
(228,500,o),
(170,459,o),
(145,383,c),
(157,376,l),
(157,424,o),
(155,449,o),
(147,490,c),
(66,490,l),
(74,449,o),
(76,424,o),
(76,376,cs),
(76,-175,l)
);
},
{
closed = 1;
nodes = (
(219,34,o),
(169,95,o),
(169,185,cs),
(169,305,ls),
(169,395,o),
(219,456,o),
(293,456,cs),
(376,456,o),
(421,381,o),
(421,245,cs),
(421,109,o),
(375,34,o),
(292,34,cs)
);
}
);
userData = {
com.hugojourdan.ColorFlow = {
"0" = 0;
"1" = 0;
"10" = 0;
"11" = 0;
"2" = 0;
"3" = 0;
"4" = 0;
"5" = 0;
"6" = 0;
"7" = 0;
"8" = 0;
"9" = 0;
};
};
width = 567;
},
{
associatedMasterId = "FF73925E-1E34-445B-881D-5A7CAAA8E8BE";
layerId = "0A51655D-83E8-48D4-B7D4-034ABF190F3F";
name = "13 Jun 23 12.10 PM";
shapes = (
{
closed = 1;
nodes = (
(239,-188,l),
(239,32,l),
(267,4,o),
(305,-10,o),
(350,-10,cs),
(471,-10,o),
(539,83,o),
(539,250,cs),
(539,417,o),
(471,510,o),
(350,510,cs),
(281,510,o),
(227,476,o),
(203,413,c),
(220,413,l),
(217,440,o),
(215,470,o),
(209,500,c),
(60,500,l),
(67,461,o),
(70,424,o),
(70,388,cs),
(70,-188,l)
);
},
{
closed = 1;
nodes = (
(263,64,o),
(239,92,o),
(239,144,cs),
(239,356,ls),
(239,408,o),
(263,436,o),
(295,436,cs),
(345,436,o),
(368,369,o),
(368,250,cs),
(368,131,o),
(345,64,o),
(295,64,cs)
);
}
);
userData = {
com.hugojourdan.ColorFlow = {
"0" = 0;
"1" = 0;
"10" = 0;
"11" = 0;
"2" = 0;
"3" = 0;
"4" = 0;
"5" = 0;
"6" = 0;
"7" = 0;
"8" = 0;
"9" = 0;
};
};
width = 573;
},
{
layerId = m004;
shapes = (
{
closed = 1;
nodes = (
(131,-175,l),
(131,115,l),
(119,99,l),
(142,27,o),
(198,-10,o),
(286,-10,cs),
(422,-10,o),
(483,78,o),
(483,240,cs),
(483,402,o),
(422,490,o),
(288,490,cs),
(187,490,o),
(132,441,o),
(113,360,c),
(126,360,l),
(127,402,o),
(127,440,o),
(127,480,c),
(86,480,l),
(86,443,o),
(86,406,o),
(86,369,cs),
(86,-175,l)
);
},
{
closed = 1;
nodes = (
(197,35,o),
(131,88,o),
(131,240,cs),
(131,240,ls),
(131,392,o),
(197,445,o),
(282,445,cs),
(384,445,o),
(435,369,o),
(435,240,cs),
(435,111,o),
(384,35,o),
(282,35,cs)
);
}
);
userData = {
com.hugojourdan.ColorFlow = {
"0" = 0;
"1" = 0;
"10" = 0;
"11" = 0;
"2" = 0;
"3" = 0;
"4" = 0;
"5" = 0;
"6" = 0;
"7" = 0;
"8" = 0;
"9" = 0;
};
};
width = 540;
},
{
layerId = m005;
shapes = (
{
closed = 1;
nodes = (
(169,-175,l),
(169,103,l),
(156,85,l),
(181,23,o),
(233,-8,o),
(314,-8,cs),
(448,-8,o),
(516,78,o),
(516,246,cs),
(516,414,o),
(448,500,o),
(316,500,cs),
(225,500,o),
(167,461,o),
(144,383,c),
(159,383,l),
(159,419,o),
(159,454,o),
(159,490,c),
(76,490,l),
(76,452,o),
(76,415,o),
(76,379,cs),
(76,-175,l)
);
},
{
closed = 1;
nodes = (
(156,68,o),
(169,246,o),
(169,246,cs),
(169,246,ls),
(169,246,o),
(156,424,o),
(295,424,cs),
(377,424,o),
(421,362,o),
(421,246,cs),
(421,130,o),
(377,68,o),
(295,68,cs)
);
}
);
userData = {
com.hugojourdan.ColorFlow = {
"0" = 0;
"1" = 0;
"10" = 0;
"11" = 0;
"2" = 0;
"3" = 0;
"4" = 0;
"5" = 0;
"6" = 0;
"7" = 0;
"8" = 0;
"9" = 0;
};
};
width = 566;
},
{
layerId = m006;
shapes = (
{
closed = 1;
nodes = (
(217,-175,l),
(217,87,l),
(200,71,l),
(228,14,o),
(267,-10,o),
(333,-10,cs),
(465,-10,o),
(535,80,o),
(535,250,cs),
(535,419,o),
(465,510,o),
(336,510,cs),
(256,510,o),
(204,474,o),
(181,403,c),
(198,403,l),
(198,440,o),
(198,470,o),
(198,500,c),
(48,500,l),
(48,461,o),
(48,424,o),
(48,388,cs),
(48,-175,l)
);
},
{
closed = 1;
nodes = (
(239,124,o),
(217,163,o),
(217,252,cs),
(217,252,ls),
(217,341,o),
(239,381,o),
(289,381,cs),
(339,381,o),
(361,342,o),
(361,252,cs),
(361,163,o),
(339,124,o),
(289,124,cs)
);
}
);
userData = {
com.hugojourdan.ColorFlow = {
"0" = 0;
"1" = 0;
"10" = 0;
"11" = 0;
"2" = 0;
"3" = 0;
"4" = 0;
"5" = 0;
"6" = 0;
"7" = 0;
"8" = 0;
"9" = 0;
};
};
width = 567;
}
);
metricLeft = "=n";
metricRight = "=o";
note = p;
unicode = 112;
},
